<?xml version="1.0" encoding="UTF-8" standalone="no"?>
<!-- Created with Inkscape (http://www.inkscape.org/) -->

<svg xmlns:dc="http://purl.org/dc/elements/1.1/" xmlns:cc="http://creativecommons.org/ns#" xmlns:rdf="http://www.w3.org/1999/02/22-rdf-syntax-ns#" xmlns:svg="http://www.w3.org/2000/svg" xmlns="http://www.w3.org/2000/svg" xmlns:sodipodi="http://sodipodi.sourceforge.net/DTD/sodipodi-0.dtd" xmlns:inkscape="http://www.inkscape.org/namespaces/inkscape" width="1000mm" height="2000mm" viewBox="0 0 1000 2000" version="1.1" id="svg8" inkscape:version="0.92.2 2405546, 2018-03-11" sodipodi:docname="banner3.svg">
  <defs id="defs2">
    <inkscape:perspective sodipodi:type="inkscape:persp3d" inkscape:vp_x="0 : 1000 : 1" inkscape:vp_y="0 : 1000 : 0" inkscape:vp_z="1000 : 1000 : 1" inkscape:persp3d-origin="500 : 666.66667 : 1" id="perspective15666" />
  </defs>
  <sodipodi:namedview id="base" pagecolor="#898989" bordercolor="#666666" borderopacity="1.0" inkscape:pageopacity="0.67058824" inkscape:pageshadow="2" inkscape:zoom="0.056568542" inkscape:cx="-5138.0587" inkscape:cy="2490.8971" inkscape:document-units="mm" inkscape:current-layer="layer1" showgrid="false" inkscape:snap-bbox="true" inkscape:bbox-paths="false" inkscape:bbox-nodes="false" inkscape:snap-bbox-edge-midpoints="false" inkscape:snap-bbox-midpoints="false" inkscape:snap-page="true" inkscape:showpageshadow="false" inkscape:pagecheckerboard="true" showguides="false" inkscape:snap-global="true" inkscape:guide-bbox="true">
    <sodipodi:guide position="1599.6081,-304.01909" orientation="0,19200" id="guide14773" inkscape:locked="false" />
    <sodipodi:guide position="5080,0" orientation="-3420.4724,0" id="guide14775" inkscape:locked="false" />
    <sodipodi:guide position="1543.4815,-579.97487" orientation="0,-19200" id="guide14777" inkscape:locked="false" />
    <sodipodi:guide position="999.99999,420.9495" orientation="3420.4724,0" id="guide14779" inkscape:locked="false" />
    <sodipodi:guide position="98.305621,1615.1734" orientation="1,0" id="guide16698" inkscape:locked="false" />
  </sodipodi:namedview>
  <metadata id="metadata5">
    <rdf:RDF>
      <cc:Work rdf:about="">
        <dc:format>image/svg+xml</dc:format>
        <dc:type rdf:resource="http://purl.org/dc/dcmitype/StillImage" />
        <dc:title></dc:title>
      </cc:Work>
    </rdf:RDF>
  </metadata>
  <g inkscape:label="Layer 1" inkscape:groupmode="layer" id="layer1" transform="translate(0,1703)">
    <rect y="-1703" x="2.8643228e-06" height="2000" width="1000" id="rect14771" style="opacity:1;vector-effect:none;fill:white;fill-opacity:1;fill-rule:evenodd;stroke:none;stroke-width:1.41869628;stroke-linecap:butt;stroke-linejoin:miter;stroke-miterlimit:4;stroke-dasharray:none;stroke-dashoffset:0;stroke-opacity:1;paint-order:fill markers stroke" />
    <g id="g14765" transform="matrix(0.34826663,0,0,0.34826663,321.17141,-1437.4606)" style="stroke-width:2.87136316">
      <path d="M 451.59959,-516.8543 C 436.8478,-516.8543 422.09602,-516.8543 407.08315,-512.59843 C 281.36661,-492.13522 185.81944,-397.88051 156.14616,-280.77349 C 129.24439,-173.46406 160.39285,-59.627343 238.15956,18.57018 C 268.00254,45.201743 325.49534,45.201743 361.1346,-7.6696748 C 350.8214,35.149642 330.45611,58.778584 309.43808,71.833305 C 369.75069,104.99215 439.20156,116.87191 507.08587,105.51435 C 591.15799,91.806938 665.83074,43.765717 713.61085,-27.382248 C 762.30479,-99.574609 783.19227,-205.44801 754.60253,-288.86744 L 725.36006,-258.05837 C 735.93434,-216.28345 735.93434,-175.29171 726.92662,-135.99713 C 665.43909,-139.78301 511.9161,-63.674282 423.53595,-89.130879 C 489.8537,-32.343014 639.85193,-112.36819 697.03141,-59.496774 C 694.42048,-54.405439 691.1568,-49.444673 687.89314,-44.353338 C 683.71564,-37.434349 679.01596,-30.907066 674.31627,-24.640765 C 633.84678,-106.23254 506.30259,-10.019528 414.65877,-87.303224 C 288.5506,23.269886 168.74784,-72.159788 155.654,-221.24422 C 164.33797,-357.14336 264.81981,-468.96971 397.94878,-490.94075 C 460.61123,-501.37144 518.83508,-492.16792 571.57597,-466.29355 L 626.79725,-462.42932 C 623.53359,-466.29355 624.7085,-465.8366 622.88085,-466.99845 C 572.22871,-501.00588 512.30775,-518.4052 451.47296,-516.83471 Z" id="path871" inkscape:connector-curvature="0" style="fill:#424242;fill-opacity:1;stroke-width:0.75971472" />
      <path d="M 574.05245,-453.45423 C 506.95141,-453.45423 515.04531,-369.29073 538.54373,-316.28874 C 562.43379,-261.4591 622.74639,-195.40247 668.04611,-254.93182 C 722.48411,-324.64376 782.01343,-390.28269 845.98135,-451.13053 C 754.59862,-444.77291 633.19013,-450.32112 574.05245,-453.45423 Z M 801.07326,-436.07848 L 584.36564,-358.45537 C 539.19646,-342.13704 536.45498,-411.19629 597.28977,-415.59568 C 677.44548,-421.35282 723.39794,-427.95846 801.07326,-436.07848 Z M 807.99224,-427.95846 L 631.49302,-294.35688 C 600.1618,-269.16142 583.974,-298.53439 608.12515,-313.15563 L 807.99224,-428.33705 Z M 471.57324,-353.75566 C 467.52629,-353.75566 463.87098,-352.9724 458.51857,-351.40589 C 438.67546,-342.3981 435.80343,-307.4116 450.29412,-274.25268 C 464.91535,-241.3549 492.72182,-221.6424 512.43438,-230.51954 C 532.27749,-239.39675 536.58552,-273.07779 521.96429,-305.84501 C 510.08454,-332.8682 493.11345,-354.40843 471.57324,-353.75566 Z M 303.29847,-299.70936 C 275.43979,-287.3074 271.22313,-236.0025 293.8991,-184.56711 C 316.48369,-133.65384 357.47538,-101.93102 385.28183,-114.33297 C 409.95517,-125.03776 415.96032,-166.81276 401.33908,-211.5903 L 378.88504,-201.92983 C 384.10692,-179.60634 380.05996,-159.89377 367.52748,-154.41081 C 351.86187,-147.49182 328.62454,-165.24617 315.70041,-194.22758 C 293.76855,-243.83532 312.43674,-279.34402 340.76539,-269.94468 C 340.76539,-269.94468 354.4728,-275.81928 362.43615,-278.03856 C 347.55382,-293.182 332.80204,-302.1897 321.70556,-302.84247 C 314.91713,-303.2341 309.69526,-302.1897 303.29847,-299.70936 Z M 401.73073,-276.99416 L 324.57759,-245.66297 C 323.40267,-241.7466 323.01103,-240.18001 322.61939,-236.78576 C 321.83611,-227.12537 324.18595,-215.50667 329.53837,-203.10472 H 330.32165 L 414.7854,-240.57164 C 442.85295,-252.97359 428.62336,-285.21861 401.73073,-276.99416 Z M 270.19181,-223.47006 L 167.36013,-181.56449 C 169.54026,-169.94587 175.38875,-152.97478 182.97352,-141.74779 L 283.58591,-182.86995 C 280.71388,-189.52788 272.80274,-210.67647 270.19181,-223.47006 Z" id="path873" inkscape:connector-curvature="0" style="fill:#f13535;fill-opacity:1;stroke-width:0.75971472" />
    </g>
    <g id="g14788" transform="matrix(0.31654205,0,0,0.31654205,-193.45433,-1183.7998)" style="stroke-width:3.15913796">
      <g id="g14769" transform="matrix(14.908441,0,0,14.908441,115.5443,-654.84024)" style="stroke-width:0.06402727">
        <path d="M 115.9,29.13 C 116.7,29.12 117.4,28.98 118.1,28.7 C 118.7,28.42 119.2,28.04 119.7,27.56 C 120.2,27.08 120.5,26.52 120.8,25.89 C 121,25.26 121.1,24.58 121.1,23.85 C 121.1,23.14 121,22.46 120.8,21.83 C 120.5,21.19 120.2,20.64 119.7,20.17 C 119.2,19.69 118.7,19.31 118.1,19.03 C 117.4,18.75 116.7,18.6 115.9,18.59 Z M 113.7,18.59 C 112.9,18.6 112.2,18.74 111.5,19.02 C 110.9,19.3 110.4,19.68 109.9,20.16 C 109.4,20.63 109.1,21.19 108.8,21.83 C 108.6,22.46 108.5,23.14 108.5,23.85 C 108.5,24.58 108.6,25.26 108.8,25.89 C 109.1,26.52 109.4,27.08 109.9,27.56 C 110.4,28.04 110.9,28.42 111.5,28.7 C 112.2,28.98 112.9,29.12 113.7,29.13 Z M 115.9,16.72 C 117,16.75 118.1,16.95 119,17.34 C 119.9,17.72 120.7,18.23 121.4,18.88 C 122.1,19.53 122.6,20.28 123,21.13 C 123.3,21.98 123.5,22.89 123.5,23.85 C 123.5,24.82 123.3,25.74 123,26.6 C 122.6,27.45 122.1,28.21 121.4,28.86 C 120.7,29.5 119.9,30.01 119,30.4 C 118.1,30.79 117,30.99 115.9,31.02 V 33.16 H 113.7 V 31.02 C 112.6,30.99 111.5,30.79 110.6,30.4 C 109.7,30.01 108.9,29.5 108.2,28.86 C 107.5,28.21 107,27.45 106.6,26.6 C 106.3,25.74 106.1,24.82 106.1,23.85 C 106.1,22.89 106.3,21.98 106.6,21.13 C 107,20.28 107.5,19.53 108.2,18.88 C 108.9,18.23 109.7,17.72 110.6,17.34 C 111.5,16.95 112.6,16.75 113.7,16.72 V 15.44 H 115.9 Z M 104,24.31 C 104,25.64 103.8,26.86 103.3,27.97 C 102.9,29.07 102.3,30.02 101.5,30.82 C 100.8,31.62 99.86,32.24 98.78,32.69 C 97.71,33.12 96.52,33.34 95.22,33.34 C 93.92,33.34 92.73,33.12 91.66,32.69 C 90.59,32.24 89.67,31.62 88.9,30.82 C 88.13,30.02 87.54,29.07 87.12,27.97 C 86.7,26.86 86.49,25.64 86.49,24.31 C 86.49,22.98 86.7,21.77 87.12,20.66 C 87.54,19.55 88.13,18.6 88.9,17.8 C 89.67,16.99 90.59,16.37 91.66,15.92 C 92.73,15.47 93.92,15.25 95.22,15.25 C 96.52,15.25 97.71,15.47 98.78,15.92 C 99.86,16.37 100.8,16.99 101.5,17.8 C 102.3,18.6 102.9,19.55 103.3,20.66 C 103.8,21.77 104,22.98 104,24.31 Z M 101.5,24.31 C 101.5,23.22 101.4,22.25 101.1,21.38 C 100.8,20.51 100.3,19.78 99.79,19.19 C 99.24,18.59 98.58,18.13 97.81,17.81 C 97.04,17.49 96.17,17.33 95.22,17.33 C 94.27,17.33 93.41,17.49 92.63,17.81 C 91.86,18.13 91.2,18.59 90.65,19.19 C 90.1,19.78 89.68,20.51 89.38,21.38 C 89.09,22.25 88.94,23.22 88.94,24.31 C 88.94,25.4 89.09,26.37 89.38,27.24 C 89.68,28.09 90.1,28.82 90.65,29.43 C 91.2,30.02 91.86,30.48 92.63,30.8 C 93.41,31.11 94.27,31.27 95.22,31.27 C 96.17,31.27 97.04,31.11 97.81,30.8 C 98.58,30.48 99.24,30.02 99.79,29.43 C 100.3,28.82 100.8,28.09 101.1,27.24 C 101.4,26.37 101.5,25.4 101.5,24.31 Z M 78,24.63 C 78.69,24.63 79.29,24.54 79.8,24.36 C 80.33,24.18 80.77,23.93 81.13,23.61 C 81.49,23.28 81.76,22.88 81.94,22.43 C 82.12,21.98 82.21,21.48 82.21,20.94 C 82.21,19.81 81.86,18.92 81.16,18.29 C 80.47,17.66 79.42,17.34 78,17.34 H 75.16 V 24.63 Z M 78,15.45 C 79.12,15.45 80.09,15.58 80.92,15.84 C 81.75,16.1 82.43,16.47 82.98,16.94 C 83.53,17.42 83.93,18 84.19,18.67 C 84.46,19.35 84.6,20.11 84.6,20.94 C 84.6,21.76 84.46,22.51 84.17,23.2 C 83.88,23.88 83.45,24.47 82.89,24.97 C 82.34,25.46 81.66,25.85 80.83,26.13 C 80.02,26.4 79.07,26.53 78,26.53 H 75.16 V 33.16 H 72.77 V 15.45 Z M 68.23,33.16 H 65.82 V 17.34 H 56.97 V 33.16 H 54.57 V 15.45 H 68.23 Z" id="path875" inkscape:connector-curvature="0" style="fill:#f13535;fill-opacity:1;stroke-width:0.06402727" />
        <path d="M 211.8,17.11 Q 212.8,16.23 214.1,15.76 Q 215.4,15.29 217.1,15.29 Q 218.5,15.29 219.6,15.62 Q 220.7,15.95 221.4,16.56 Q 222.2,17.16 222.6,17.99 Q 223,18.82 223,19.81 Q 223,21.14 222.4,22.16 Q 221.7,23.17 220.5,23.73 Q 221.2,24.01 221.7,24.43 Q 222.3,24.84 222.7,25.36 Q 223.1,25.88 223.3,26.5 Q 223.5,27.11 223.5,27.79 Q 223.5,28.95 223.1,29.97 Q 222.7,30.98 221.8,31.74 Q 221,32.48 219.8,32.91 Q 218.6,33.34 217.1,33.34 Q 215.2,33.34 213.7,32.72 Q 212.1,32.09 211.1,31.03 L 211.7,29.89 Q 211.8,29.76 212,29.67 Q 212.1,29.57 212.3,29.57 Q 212.6,29.57 212.9,29.86 Q 213.3,30.13 213.8,30.46 Q 214.4,30.8 215.2,31.08 Q 216,31.35 217.1,31.35 Q 218.1,31.35 218.9,31.12 Q 219.7,30.88 220.2,30.44 Q 220.7,29.99 221,29.35 Q 221.3,28.71 221.3,27.9 Q 221.3,27.21 221,26.63 Q 220.7,26.05 220.2,25.64 Q 219.7,25.22 219,25 Q 218.3,24.77 217.4,24.77 H 214.9 V 22.8 H 217.3 Q 218,22.8 218.7,22.61 Q 219.3,22.43 219.8,22.07 Q 220.2,21.71 220.5,21.19 Q 220.8,20.67 220.8,20.01 Q 220.8,19.4 220.5,18.89 Q 220.3,18.39 219.8,18.03 Q 219.3,17.66 218.7,17.46 Q 218,17.26 217.1,17.26 Q 216.1,17.26 215.4,17.47 Q 214.7,17.68 214.2,17.94 Q 213.7,18.19 213.4,18.4 Q 213.1,18.61 212.9,18.61 Q 212.7,18.61 212.6,18.52 Q 212.5,18.44 212.4,18.24 Z M 208.3,15.46 V 33.17 H 205.9 V 20.59 Q 205.9,20.06 205.9,19.49 Q 205.9,18.91 206,18.26 Q 205.8,18.82 205.6,19.3 Q 205.3,19.78 205.1,20.14 L 196.8,32.42 Q 196.6,32.7 196.3,32.93 Q 196.1,33.17 195.7,33.17 H 193.9 V 15.46 H 196.3 V 28.05 Q 196.3,28.58 196.3,29.16 Q 196.3,29.73 196.2,30.39 Q 196.4,29.82 196.6,29.34 Q 196.9,28.86 197.1,28.49 L 205.4,16.21 Q 205.6,15.93 205.9,15.69 Q 206.1,15.46 206.5,15.46 Z M 189.4,15.46 V 33.17 H 187 V 25.11 H 177.4 V 33.17 H 175 V 15.46 H 177.4 V 23.36 H 187 V 15.46 Z M 165.5,24.64 Q 166.5,24.64 167.3,24.37 Q 168,24.1 168.6,23.62 Q 169.1,23.12 169.4,22.44 Q 169.7,21.76 169.7,20.95 Q 169.7,19.25 168.6,18.3 Q 167.6,17.35 165.5,17.35 H 162.6 V 24.64 Z M 165.5,15.46 Q 167.1,15.46 168.4,15.85 Q 169.6,16.24 170.4,16.95 Q 171.2,17.67 171.6,18.68 Q 172.1,19.7 172.1,20.95 Q 172.1,22.18 171.6,23.21 Q 171.2,24.23 170.3,24.98 Q 169.5,25.72 168.3,26.14 Q 167.1,26.54 165.5,26.54 H 162.6 V 33.17 H 160.2 V 15.46 Z M 152.9,26.59 L 150.1,19.39 Q 150,19.07 149.9,18.65 Q 149.7,18.21 149.6,17.73 Q 149.3,18.73 149.1,19.4 L 146.3,26.59 Z M 157.9,33.17 H 156 Q 155.7,33.17 155.5,33.01 Q 155.3,32.85 155.2,32.6 L 153.6,28.32 H 145.6 L 144,32.6 Q 143.9,32.82 143.7,33 Q 143.5,33.17 143.1,33.17 H 141.3 L 148.4,15.46 H 150.8 Z M 141.1,33.17 H 138.9 Q 138.6,33.17 138.3,32.98 Q 138.1,32.79 137.9,32.42 L 133.2,25.93 Q 132.9,25.44 132.5,25.26 Q 132.1,25.06 131.5,25.06 H 129.3 V 33.17 H 127 V 15.46 H 129.3 V 23.22 H 131.2 Q 131.7,23.22 132.1,23.05 Q 132.5,22.87 132.9,22.37 L 137.5,16.14 Q 137.7,15.84 138,15.66 Q 138.3,15.46 138.6,15.46 H 140.6 L 135.3,22.74 Q 134.7,23.59 133.7,23.91 Q 134.4,24.09 134.8,24.47 Q 135.3,24.84 135.7,25.51 Z" id="path877" inkscape:connector-curvature="0" style="fill:#424242;fill-opacity:1;stroke-width:0.06402727" />
      </g>
    </g>
    <rect style="opacity:1;vector-effect:none;fill:#424242;fill-opacity:1;fill-rule:evenodd;stroke:none;stroke-width:1.41869628;stroke-linecap:butt;stroke-linejoin:miter;stroke-miterlimit:4;stroke-dasharray:none;stroke-dashoffset:0;stroke-opacity:1;paint-order:fill markers stroke" id="rect14813" width="906.0603" height="905" x="4358.1611" y="-608" />
    <g id="g15575" transform="translate(174.86166,9.3544333)">
      <g id="text14821" style="font-style:normal;font-variant:normal;font-weight:normal;font-stretch:normal;font-size:228.25726318px;line-height:8.1520443px;font-family:Roboto;-inkscape-font-specification:Roboto;font-variant-ligatures:normal;font-variant-caps:normal;font-variant-numeric:normal;font-feature-settings:normal;text-align:start;writing-mode:lr-tb;text-anchor:start;opacity:1;fill:white;fill-opacity:1;fill-rule:nonzero;stroke:none;stroke-width:5.29166651;stroke-linecap:square;stroke-linejoin:miter;stroke-miterlimit:4;stroke-dasharray:5.29166667, 10.58333333999999937;stroke-dashoffset:0;stroke-opacity:1;paint-order:stroke fill markers" aria-label="этаж">
        <path id="path15558" style="fill:white;fill-opacity:1;stroke-width:5.29166651" d="M 4428.6586,9.2051117 Q 4417.6247,9.2051117 4409.4885,16.226697 Q 4401.4639,23.248283 4401.4639,32.833305 H 4381.848 Q 4381.848,22.468107 4388.4238,12.994539 Q 4394.9996,3.5209709 4405.922,-2.0517162 Q 4416.8445,-7.7358571 4428.6586,-7.7358571 Q 4452.1753,-7.7358571 4466.6643,9.3165654 Q 4481.2647,26.257534 4481.2647,53.675155 V 57.130221 Q 4481.2647,74.071189 4474.5775,88.114361 Q 4468.0018,102.04608 4455.9647,109.73639 Q 4444.0392,117.31524 4428.6586,117.31524 Q 4408.5969,117.31524 4395.2225,104.83242 Q 4381.848,92.349603 4381.848,73.736828 H 4401.4639 Q 4401.4639,85.10511 4409.3771,92.906872 Q 4417.2903,100.59718 4428.6586,100.59718 Q 4441.9216,100.59718 4450.5035,90.343436 Q 4459.0855,80.089691 4460.4229,62.145639 H 4415.1727 V 45.20467 H 4460.2 Q 4458.6396,28.932424 4450.2806,19.124495 Q 4441.9216,9.2051117 4428.6586,9.2051117 Z" inkscape:connector-curvature="0" />
        <path id="path15560" style="fill:white;fill-opacity:1;stroke-width:5.29166651" d="M 4598.5141,11.211279 H 4558.0564 V 115.08617 H 4537.4374 V 11.211279 H 4497.7599 V -5.5067822 H 4598.5141 Z" inkscape:connector-curvature="0" />
        <path id="path15562" style="fill:white;fill-opacity:1;stroke-width:5.29166651" d="M 4693.0269,115.08617 Q 4691.2436,111.51965 4690.1291,102.38044 Q 4675.7515,117.31524 4655.8013,117.31524 Q 4637.9687,117.31524 4626.489,107.2844 Q 4615.1207,97.142114 4615.1207,81.650044 Q 4615.1207,62.814361 4629.3868,52.449163 Q 4643.7643,41.972512 4669.733,41.972512 H 4689.7947 V 32.498944 Q 4689.7947,21.687931 4683.3304,15.335067 Q 4676.8661,8.8707505 4664.2718,8.8707505 Q 4653.2379,8.8707505 4645.7705,14.443438 Q 4638.3031,20.016125 4638.3031,27.92934 H 4617.5727 Q 4617.5727,18.901587 4623.9255,10.542557 Q 4630.3898,2.0720722 4641.3123,-2.8318924 Q 4652.3462,-7.7358571 4665.4978,-7.7358571 Q 4686.3396,-7.7358571 4698.1537,2.7407947 Q 4709.9678,13.105993 4710.4136,31.384406 V 86.88837 Q 4710.4136,103.49498 4714.6489,113.30291 V 115.08617 Z M 4658.8106,99.371189 Q 4668.507,99.371189 4677.2004,94.35577 Q 4685.8938,89.340352 4689.7947,81.315683 V 56.572952 H 4673.6339 Q 4635.7396,56.572952 4635.7396,78.752247 Q 4635.7396,88.448722 4642.2039,93.909955 Q 4648.6683,99.371189 4658.8106,99.371189 Z" inkscape:connector-curvature="0" />
        <path id="path15564" style="fill:white;fill-opacity:1;stroke-width:5.29166651" d="M 4839.1427,62.702908 H 4824.6537 V 115.08617 H 4804.0348 V 62.702908 H 4789.5458 L 4755.7753,115.08617 H 4729.6951 L 4772.8277,52.672071 L 4733.8189,-5.5067822 H 4758.7846 L 4789.8802,44.424494 H 4804.0348 V -5.5067822 H 4824.6537 V 44.424494 H 4838.6969 L 4870.0154,-5.5067822 H 4894.981 L 4855.8608,52.783525 L 4898.9934,115.08617 H 4872.9132 Z" inkscape:connector-curvature="0" />
      </g>
    </g>
    <g aria-label="2" transform="matrix(1.0027637,0,0,0.99724392,179.53888,-14.03165)" style="font-style:normal;font-variant:normal;font-weight:normal;font-stretch:normal;font-size:430.66778564px;line-height:15.38099194px;font-family:Roboto;-inkscape-font-specification:Roboto;font-variant-ligatures:normal;font-variant-caps:normal;font-variant-numeric:normal;font-feature-settings:normal;text-align:start;writing-mode:lr-tb;text-anchor:start;opacity:1;fill:white;fill-opacity:1;fill-rule:nonzero;stroke:none;stroke-width:5.29166698;stroke-linecap:square;stroke-linejoin:miter;stroke-miterlimit:4;stroke-dasharray:5.29166679, 10.58333357000000063;stroke-dashoffset:0;stroke-opacity:1;paint-order:stroke fill markers" id="text14825">
      <path d="M 4721.5771,-109.25921 H 4520.9633 V -137.22738 L 4626.9479,-254.9881 Q 4650.5001,-281.69455 4659.3321,-298.30723 Q 4668.3745,-315.13019 4668.3745,-333.00458 Q 4668.3745,-356.9773 4653.8647,-372.32825 Q 4639.3549,-387.6792 4615.1719,-387.6792 Q 4586.1523,-387.6792 4569.9602,-371.06653 Q 4553.9783,-354.66414 4553.9783,-325.22396 H 4515.0752 Q 4515.0752,-367.49165 4542.2023,-393.56724 Q 4569.5396,-419.64283 4615.1719,-419.64283 Q 4657.8601,-419.64283 4682.674,-397.14212 Q 4707.4879,-374.8517 4707.4879,-337.6309 Q 4707.4879,-292.41919 4649.8692,-229.96395 L 4567.8573,-141.01255 H 4721.5771 Z" style="stroke-width:5.29166698" id="path15567" inkscape:connector-curvature="0" />
    </g>
    <flowRoot xml:space="preserve" id="flowRoot14827" style="font-style:normal;font-variant:normal;font-weight:normal;font-stretch:normal;font-size:700.00006104px;line-height:25px;font-family:Roboto;-inkscape-font-specification:Roboto;font-variant-ligatures:normal;font-variant-caps:normal;font-variant-numeric:normal;font-feature-settings:normal;text-align:start;writing-mode:lr-tb;text-anchor:start;opacity:1;fill:white;fill-opacity:1;fill-rule:nonzero;stroke:none;stroke-width:20;stroke-linecap:square;stroke-linejoin:miter;stroke-miterlimit:4;stroke-dasharray:20, 40;stroke-dashoffset:0;stroke-opacity:1;paint-order:stroke fill markers"><flowRegion id="flowRegion14829"><rect id="rect14831" width="3164.3027" height="5762.9204" x="16201.584" y="-716.10229" /></flowRegion><flowPara id="flowPara14833" /></flowRoot>    <path style="fill:#424242;fill-opacity:1;stroke-width:0.39687511" inkscape:connector-curvature="0" d="M 670.17807,-417.62595 H 364.97749 L 505.16411,-557.81271 L 469.55319,-593.17295 L 268.92834,-392.54784 L 469.55319,-191.92297 L 504.91334,-227.2831 L 364.97749,-367.46973 H 670.17807 Z" id="path16447" />
    <g id="g16903">
      <path d="M 213.17266,-12.903002 Q 213.17266,-0.51380899 207.50473,7.0601511 Q 201.8368,14.634111 192.15618,14.634111 Q 182.27492,14.634111 176.60699,8.3642766 V 34.496947 H 167.32763 V -40.64075 H 175.80445 L 176.25588,-34.621709 Q 181.92381,-41.643923 192.0057,-41.643923 Q 201.78664,-41.643923 207.45458,-34.270598 Q 213.17266,-26.897272 213.17266,-13.755699 Z M 203.89331,-13.956334 Q 203.89331,-23.135372 199.98093,-28.452191 Q 196.06856,-33.769011 189.24698,-33.769011 Q 180.82032,-33.769011 176.60699,-26.295368 V -0.36333296 Q 180.77016,7.0601511 189.34729,7.0601511 Q 196.0184,7.0601511 199.93077,1.7934901 Q 203.89331,-3.5233295 203.89331,-13.956334 Z" style="font-style:normal;font-variant:normal;font-weight:normal;font-stretch:normal;font-size:medium;line-height:3.66874838px;font-family:Roboto;-inkscape-font-specification:Roboto;font-variant-ligatures:normal;font-variant-caps:normal;font-variant-numeric:normal;font-feature-settings:normal;text-align:start;writing-mode:lr-tb;text-anchor:start;fill:#424242;fill-opacity:1;fill-rule:nonzero;stroke:none;stroke-width:5.29166651;stroke-linecap:square;stroke-linejoin:miter;stroke-miterlimit:4;stroke-dasharray:5.29166683, 10.58333363000000027;stroke-dashoffset:0;stroke-opacity:1;paint-order:stroke fill markers" id="path16830" inkscape:connector-curvature="0" />
      <path d="M 251.14278,-32.314409 Q 249.03612,-32.66552 246.57834,-32.66552 Q 237.44946,-32.66552 234.18915,-24.890925 V 13.630938 H 224.9098 V -40.64075 H 233.93836 L 234.08883,-34.370915 Q 238.65327,-41.643923 247.02977,-41.643923 Q 249.73834,-41.643923 251.14278,-40.941702 Z" style="font-style:normal;font-variant:normal;font-weight:normal;font-stretch:normal;font-size:medium;line-height:3.66874838px;font-family:Roboto;-inkscape-font-specification:Roboto;font-variant-ligatures:normal;font-variant-caps:normal;font-variant-numeric:normal;font-feature-settings:normal;text-align:start;writing-mode:lr-tb;text-anchor:start;fill:#424242;fill-opacity:1;fill-rule:nonzero;stroke:none;stroke-width:5.29166651;stroke-linecap:square;stroke-linejoin:miter;stroke-miterlimit:4;stroke-dasharray:5.29166683, 10.58333363000000027;stroke-dashoffset:0;stroke-opacity:1;paint-order:stroke fill markers" id="path16832" inkscape:connector-curvature="0" />
      <path d="M 256.15865,-14.006493 Q 256.15865,-21.981722 259.26849,-28.351874 Q 262.42848,-34.722026 267.99609,-38.182974 Q 273.61387,-41.643923 280.78656,-41.643923 Q 291.87162,-41.643923 298.6932,-33.969646 Q 305.56494,-26.295368 305.56494,-13.555065 V -12.903002 Q 305.56494,-4.9779311 302.50526,1.342062 Q 299.49574,7.6118965 293.82781,11.123004 Q 288.21004,14.634111 280.88687,14.634111 Q 269.85197,14.634111 262.98023,6.9598337 Q 256.15865,-0.71444369 256.15865,-13.35443 Z M 265.48816,-12.903002 Q 265.48816,-3.8744403 269.65133,1.5928554 Q 273.86466,7.0601511 280.88687,7.0601511 Q 287.95925,7.0601511 292.12242,1.5426967 Q 296.28559,-4.0249163 296.28559,-14.006493 Q 296.28559,-22.934737 292.0221,-28.452191 Q 287.80877,-34.019804 280.78656,-34.019804 Q 273.91482,-34.019804 269.70149,-28.552509 Q 265.48816,-23.085213 265.48816,-12.903002 Z" style="font-style:normal;font-variant:normal;font-weight:normal;font-stretch:normal;font-size:medium;line-height:3.66874838px;font-family:Roboto;-inkscape-font-specification:Roboto;font-variant-ligatures:normal;font-variant-caps:normal;font-variant-numeric:normal;font-feature-settings:normal;text-align:start;writing-mode:lr-tb;text-anchor:start;fill:#424242;fill-opacity:1;fill-rule:nonzero;stroke:none;stroke-width:5.29166651;stroke-linecap:square;stroke-linejoin:miter;stroke-miterlimit:4;stroke-dasharray:5.29166683, 10.58333363000000027;stroke-dashoffset:0;stroke-opacity:1;paint-order:stroke fill markers" id="path16834" inkscape:connector-curvature="0" />
      <path d="M 321.7662,13.630938 V -33.468059 H 313.18907 V -40.64075 H 321.7662 V -46.208363 Q 321.7662,-54.935972 326.43096,-59.701046 Q 331.09572,-64.466121 339.62269,-64.466121 Q 342.83285,-64.466121 345.99284,-63.613423 L 345.49126,-56.089622 Q 343.1338,-56.54105 340.47539,-56.54105 Q 335.96111,-56.54105 333.50333,-53.88264 Q 331.04556,-51.274389 331.04556,-46.358839 V -40.64075 H 342.63221 V -33.468059 H 331.04556 V 13.630938 Z" style="font-style:normal;font-variant:normal;font-weight:normal;font-stretch:normal;font-size:medium;line-height:3.66874838px;font-family:Roboto;-inkscape-font-specification:Roboto;font-variant-ligatures:normal;font-variant-caps:normal;font-variant-numeric:normal;font-feature-settings:normal;text-align:start;writing-mode:lr-tb;text-anchor:start;fill:#424242;fill-opacity:1;fill-rule:nonzero;stroke:none;stroke-width:5.29166651;stroke-linecap:square;stroke-linejoin:miter;stroke-miterlimit:4;stroke-dasharray:5.29166683, 10.58333363000000027;stroke-dashoffset:0;stroke-opacity:1;paint-order:stroke fill markers" id="path16836" inkscape:connector-curvature="0" />
      <path d="M 368.06265,-11.498559 L 362.24425,-5.4293592 V 13.630938 H 352.96489 V -63.412788 H 362.24425 V -16.815379 L 367.20995,-22.784261 L 384.11343,-40.64075 H 395.39913 L 374.28233,-17.969028 L 397.85691,13.630938 H 386.97247 Z" style="font-style:normal;font-variant:normal;font-weight:normal;font-stretch:normal;font-size:medium;line-height:3.66874838px;font-family:Roboto;-inkscape-font-specification:Roboto;font-variant-ligatures:normal;font-variant-caps:normal;font-variant-numeric:normal;font-feature-settings:normal;text-align:start;writing-mode:lr-tb;text-anchor:start;fill:#424242;fill-opacity:1;fill-rule:nonzero;stroke:none;stroke-width:5.29166651;stroke-linecap:square;stroke-linejoin:miter;stroke-miterlimit:4;stroke-dasharray:5.29166683, 10.58333363000000027;stroke-dashoffset:0;stroke-opacity:1;paint-order:stroke fill markers" id="path16838" inkscape:connector-curvature="0" />
      <path d="M 438.58577,13.630938 Q 437.78323,12.02586 437.28164,7.9128485 Q 430.81117,14.634111 421.83277,14.634111 Q 413.80738,14.634111 408.64104,10.11983 Q 403.52485,5.5553908 403.52485,-1.4166652 Q 403.52485,-9.8934814 409.94516,-14.558238 Q 416.41563,-19.273154 428.1026,-19.273154 H 437.13116 V -23.536641 Q 437.13116,-28.402033 434.22196,-31.261077 Q 431.31276,-34.17028 425.64483,-34.17028 Q 420.67912,-34.17028 417.31849,-31.662347 Q 413.95786,-29.154413 413.95786,-25.593147 H 404.62834 Q 404.62834,-29.656 407.48739,-33.4179 Q 410.39659,-37.22996 415.31214,-39.436941 Q 420.27785,-41.643923 426.19657,-41.643923 Q 435.57625,-41.643923 440.89307,-36.929008 Q 446.20988,-32.264251 446.41052,-24.038228 V 0.94079261 Q 446.41052,8.4144353 448.31655,12.828399 V 13.630938 Z M 423.18705,6.5585643 Q 427.55086,6.5585643 431.46323,4.3014239 Q 435.37561,2.0442835 437.13116,-1.5671412 V -12.702367 H 429.85816 Q 412.80421,-12.702367 412.80421,-2.7207907 Q 412.80421,1.6430141 415.71341,4.1007892 Q 418.62261,6.5585643 423.18705,6.5585643 Z" style="font-style:normal;font-variant:normal;font-weight:normal;font-stretch:normal;font-size:medium;line-height:3.66874838px;font-family:Roboto;-inkscape-font-specification:Roboto;font-variant-ligatures:normal;font-variant-caps:normal;font-variant-numeric:normal;font-feature-settings:normal;text-align:start;writing-mode:lr-tb;text-anchor:start;fill:#424242;fill-opacity:1;fill-rule:nonzero;stroke:none;stroke-width:5.29166651;stroke-linecap:square;stroke-linejoin:miter;stroke-miterlimit:4;stroke-dasharray:5.29166683, 10.58333363000000027;stroke-dashoffset:0;stroke-opacity:1;paint-order:stroke fill markers" id="path16840" inkscape:connector-curvature="0" />
      <path d="M 487.28984,-32.314409 Q 485.18318,-32.66552 482.7254,-32.66552 Q 473.59652,-32.66552 470.33621,-24.890925 V 13.630938 H 461.05685 V -40.64075 H 470.08541 L 470.23589,-34.370915 Q 474.80033,-41.643923 483.17683,-41.643923 Q 485.8854,-41.643923 487.28984,-40.941702 Z" style="font-style:normal;font-variant:normal;font-weight:normal;font-stretch:normal;font-size:medium;line-height:3.66874838px;font-family:Roboto;-inkscape-font-specification:Roboto;font-variant-ligatures:normal;font-variant-caps:normal;font-variant-numeric:normal;font-feature-settings:normal;text-align:start;writing-mode:lr-tb;text-anchor:start;fill:#424242;fill-opacity:1;fill-rule:nonzero;stroke:none;stroke-width:5.29166651;stroke-linecap:square;stroke-linejoin:miter;stroke-miterlimit:4;stroke-dasharray:5.29166683, 10.58333363000000027;stroke-dashoffset:0;stroke-opacity:1;paint-order:stroke fill markers" id="path16842" inkscape:connector-curvature="0" />
      <path d="M 504.54443,-40.64075 L 504.84538,-33.81917 Q 511.06506,-41.643923 521.09679,-41.643923 Q 538.30122,-41.643923 538.45169,-22.232516 V 13.630938 H 529.17234 V -22.282674 Q 529.12218,-28.151239 526.46377,-30.960125 Q 523.85552,-33.769011 518.28791,-33.769011 Q 513.77363,-33.769011 510.36284,-31.361395 Q 506.95205,-28.953778 505.04602,-25.041401 V 13.630938 H 495.76666 V -40.64075 Z" style="font-style:normal;font-variant:normal;font-weight:normal;font-stretch:normal;font-size:medium;line-height:3.66874838px;font-family:Roboto;-inkscape-font-specification:Roboto;font-variant-ligatures:normal;font-variant-caps:normal;font-variant-numeric:normal;font-feature-settings:normal;text-align:start;writing-mode:lr-tb;text-anchor:start;fill:#424242;fill-opacity:1;fill-rule:nonzero;stroke:none;stroke-width:5.29166651;stroke-linecap:square;stroke-linejoin:miter;stroke-miterlimit:4;stroke-dasharray:5.29166683, 10.58333363000000027;stroke-dashoffset:0;stroke-opacity:1;paint-order:stroke fill markers" id="path16844" inkscape:connector-curvature="0" />
      <path d="M 562.62816,13.630938 H 553.3488 V -40.64075 H 562.62816 Z M 552.59642,-55.03629 Q 552.59642,-57.29343 553.95071,-58.848349 Q 555.35515,-60.403268 558.06372,-60.403268 Q 560.77229,-60.403268 562.17673,-58.848349 Q 563.58117,-57.29343 563.58117,-55.03629 Q 563.58117,-52.779149 562.17673,-51.274389 Q 560.77229,-49.769629 558.06372,-49.769629 Q 555.35515,-49.769629 553.95071,-51.274389 Q 552.59642,-52.779149 552.59642,-55.03629 Z" style="font-style:normal;font-variant:normal;font-weight:normal;font-stretch:normal;font-size:medium;line-height:3.66874838px;font-family:Roboto;-inkscape-font-specification:Roboto;font-variant-ligatures:normal;font-variant-caps:normal;font-variant-numeric:normal;font-feature-settings:normal;text-align:start;writing-mode:lr-tb;text-anchor:start;fill:#424242;fill-opacity:1;fill-rule:nonzero;stroke:none;stroke-width:5.29166651;stroke-linecap:square;stroke-linejoin:miter;stroke-miterlimit:4;stroke-dasharray:5.29166683, 10.58333363000000027;stroke-dashoffset:0;stroke-opacity:1;paint-order:stroke fill markers" id="path16846" inkscape:connector-curvature="0" />
      <path d="M 586.1526,6.0569775 H 617.90304 V 13.630938 H 574.81673 V 6.8093577 L 604.76146,-32.966472 H 575.26816 V -40.64075 H 616.39828 V -34.069963 Z" style="font-style:normal;font-variant:normal;font-weight:normal;font-stretch:normal;font-size:medium;line-height:3.66874838px;font-family:Roboto;-inkscape-font-specification:Roboto;font-variant-ligatures:normal;font-variant-caps:normal;font-variant-numeric:normal;font-feature-settings:normal;text-align:start;writing-mode:lr-tb;text-anchor:start;fill:#424242;fill-opacity:1;fill-rule:nonzero;stroke:none;stroke-width:5.29166651;stroke-linecap:square;stroke-linejoin:miter;stroke-miterlimit:4;stroke-dasharray:5.29166683, 10.58333363000000027;stroke-dashoffset:0;stroke-opacity:1;paint-order:stroke fill markers" id="path16848" inkscape:connector-curvature="0" />
      <path d="M 628.58683,8.765546 Q 628.58683,6.3579296 629.99128,4.752852 Q 631.44588,3.1477743 634.30492,3.1477743 Q 637.16397,3.1477743 638.61857,4.752852 Q 640.12333,6.3579296 640.12333,8.765546 Q 640.12333,11.072845 638.61857,12.627764 Q 637.16397,14.182683 634.30492,14.182683 Q 631.44588,14.182683 629.99128,12.627764 Q 628.58683,11.072845 628.58683,8.765546 Z" style="font-style:normal;font-variant:normal;font-weight:normal;font-stretch:normal;font-size:medium;line-height:3.66874838px;font-family:Roboto;-inkscape-font-specification:Roboto;font-variant-ligatures:normal;font-variant-caps:normal;font-variant-numeric:normal;font-feature-settings:normal;text-align:start;writing-mode:lr-tb;text-anchor:start;fill:#424242;fill-opacity:1;fill-rule:nonzero;stroke:none;stroke-width:5.29166651;stroke-linecap:square;stroke-linejoin:miter;stroke-miterlimit:4;stroke-dasharray:5.29166683, 10.58333363000000027;stroke-dashoffset:0;stroke-opacity:1;paint-order:stroke fill markers" id="path16850" inkscape:connector-curvature="0" />
      <path d="M 677.24073,7.0601511 Q 682.20643,7.0601511 685.91818,4.0506305 Q 689.62992,1.04111 690.03119,-3.4731709 H 698.80896 Q 698.55816,1.191586 695.5988,5.4049148 Q 692.63944,9.6182435 687.67373,12.126177 Q 682.75818,14.634111 677.24073,14.634111 Q 666.15566,14.634111 659.58487,7.2607858 Q 653.06424,-0.16269826 653.06424,-13.003319 V -14.558238 Q 653.06424,-22.483309 655.97345,-28.652826 Q 658.88265,-34.822343 664.29979,-38.233133 Q 669.76708,-41.643923 677.19057,-41.643923 Q 686.31945,-41.643923 692.33849,-36.176627 Q 698.40769,-30.709332 698.80896,-21.981722 H 690.03119 Q 689.62992,-27.248383 686.01849,-30.609014 Q 682.45723,-34.019804 677.19057,-34.019804 Q 670.11819,-34.019804 666.20582,-28.903619 Q 662.3436,-23.837593 662.3436,-14.207127 V -12.451574 Q 662.3436,-3.0719015 666.20582,1.9941248 Q 670.06804,7.0601511 677.24073,7.0601511 Z" style="font-style:normal;font-variant:normal;font-weight:normal;font-stretch:normal;font-size:medium;line-height:3.66874838px;font-family:Roboto;-inkscape-font-specification:Roboto;font-variant-ligatures:normal;font-variant-caps:normal;font-variant-numeric:normal;font-feature-settings:normal;text-align:start;writing-mode:lr-tb;text-anchor:start;fill:#424242;fill-opacity:1;fill-rule:nonzero;stroke:none;stroke-width:5.29166651;stroke-linecap:square;stroke-linejoin:miter;stroke-miterlimit:4;stroke-dasharray:5.29166683, 10.58333363000000027;stroke-dashoffset:0;stroke-opacity:1;paint-order:stroke fill markers" id="path16852" inkscape:connector-curvature="0" />
      <path d="M 706.78423,-14.006493 Q 706.78423,-21.981722 709.89406,-28.351874 Q 713.05406,-34.722026 718.62167,-38.182974 Q 724.23945,-41.643923 731.41214,-41.643923 Q 742.4972,-41.643923 749.31878,-33.969646 Q 756.19052,-26.295368 756.19052,-13.555065 V -12.903002 Q 756.19052,-4.9779311 753.13084,1.342062 Q 750.12132,7.6118965 744.45339,11.123004 Q 738.83562,14.634111 731.51245,14.634111 Q 720.47755,14.634111 713.60581,6.9598337 Q 706.78423,-0.71444369 706.78423,-13.35443 Z M 716.11374,-12.903002 Q 716.11374,-3.8744403 720.27691,1.5928554 Q 724.49024,7.0601511 731.51245,7.0601511 Q 738.58483,7.0601511 742.748,1.5426967 Q 746.91117,-4.0249163 746.91117,-14.006493 Q 746.91117,-22.934737 742.64768,-28.452191 Q 738.43435,-34.019804 731.41214,-34.019804 Q 724.5404,-34.019804 720.32707,-28.552509 Q 716.11374,-23.085213 716.11374,-12.903002 Z" style="font-style:normal;font-variant:normal;font-weight:normal;font-stretch:normal;font-size:medium;line-height:3.66874838px;font-family:Roboto;-inkscape-font-specification:Roboto;font-variant-ligatures:normal;font-variant-caps:normal;font-variant-numeric:normal;font-feature-settings:normal;text-align:start;writing-mode:lr-tb;text-anchor:start;fill:#424242;fill-opacity:1;fill-rule:nonzero;stroke:none;stroke-width:5.29166651;stroke-linecap:square;stroke-linejoin:miter;stroke-miterlimit:4;stroke-dasharray:5.29166683, 10.58333363000000027;stroke-dashoffset:0;stroke-opacity:1;paint-order:stroke fill markers" id="path16854" inkscape:connector-curvature="0" />
      <path d="M 776.55494,-40.64075 L 776.80573,-34.621709 Q 782.77461,-41.643923 792.90667,-41.643923 Q 804.29269,-41.643923 808.4057,-32.916314 Q 811.11427,-36.82869 815.42791,-39.236307 Q 819.79172,-41.643923 825.71044,-41.643923 Q 843.56693,-41.643923 843.86788,-22.734102 V 13.630938 H 834.58853 V -22.182357 Q 834.58853,-28.000763 831.93012,-30.859808 Q 829.27171,-33.769011 823.00187,-33.769011 Q 817.83553,-33.769011 814.42474,-30.659173 Q 811.01395,-27.599494 810.4622,-22.382992 V 13.630938 H 801.13269 V -21.931564 Q 801.13269,-33.769011 789.54604,-33.769011 Q 780.41716,-33.769011 777.05653,-25.994416 V 13.630938 H 767.77717 V -40.64075 Z" style="font-style:normal;font-variant:normal;font-weight:normal;font-stretch:normal;font-size:medium;line-height:3.66874838px;font-family:Roboto;-inkscape-font-specification:Roboto;font-variant-ligatures:normal;font-variant-caps:normal;font-variant-numeric:normal;font-feature-settings:normal;text-align:start;writing-mode:lr-tb;text-anchor:start;fill:#424242;fill-opacity:1;fill-rule:nonzero;stroke:none;stroke-width:5.29166651;stroke-linecap:square;stroke-linejoin:miter;stroke-miterlimit:4;stroke-dasharray:5.29166683, 10.58333363000000027;stroke-dashoffset:0;stroke-opacity:1;paint-order:stroke fill markers" id="path16856" inkscape:connector-curvature="0" />
    </g>
    <g id="g16921">
      <path d="M 124.98343,126.78797 H 145.07361 V 135.44753 H 124.98343 V 158.20981 H 115.77955 V 135.44753 H 95.689364 V 126.78797 H 115.77955 V 105.7576 H 124.98343 Z" style="font-style:normal;font-variant:normal;font-weight:normal;font-stretch:normal;font-size:medium;line-height:3.61934328px;font-family:Roboto;-inkscape-font-specification:Roboto;font-variant-ligatures:normal;font-variant-caps:normal;font-variant-numeric:normal;font-feature-settings:normal;text-align:start;writing-mode:lr-tb;text-anchor:start;fill:#424242;fill-opacity:1;fill-rule:nonzero;stroke:none;stroke-width:5.29166603;stroke-linecap:square;stroke-linejoin:miter;stroke-miterlimit:4;stroke-dasharray:5.29166661, 10.58333322999999915;stroke-dashoffset:0;stroke-opacity:1;paint-order:stroke fill markers" id="path16797" inkscape:connector-curvature="0" />
      <path d="M 201.73189,98.533052 L 171.89351,165.43436 H 162.29377 L 192.03318,100.90825 H 153.04041 V 93.386798 H 201.73189 Z" style="font-style:normal;font-variant:normal;font-weight:normal;font-stretch:normal;font-size:medium;line-height:3.61934328px;font-family:Roboto;-inkscape-font-specification:Roboto;font-variant-ligatures:normal;font-variant-caps:normal;font-variant-numeric:normal;font-feature-settings:normal;text-align:start;writing-mode:lr-tb;text-anchor:start;fill:#424242;fill-opacity:1;fill-rule:nonzero;stroke:none;stroke-width:5.29166603;stroke-linecap:square;stroke-linejoin:miter;stroke-miterlimit:4;stroke-dasharray:5.29166661, 10.58333322999999915;stroke-dashoffset:0;stroke-opacity:1;paint-order:stroke fill markers" id="path16799" inkscape:connector-curvature="0" />
      <path d="M 212.81613,136.18978 Q 212.81613,125.00657 215.78512,114.71406 Q 218.8036,104.42155 224.74159,96.009408 Q 230.67957,87.597262 237.06291,84.133437 L 238.94327,90.170389 Q 231.71872,95.712509 227.0673,107.09365 Q 222.46536,118.47479 222.02001,132.5775 L 221.97053,136.78358 Q 221.97053,155.8841 228.94766,169.93733 Q 233.15373,178.34948 238.94327,183.09986 L 237.06291,188.69147 Q 230.48164,185.02971 224.49417,176.41963 Q 212.81613,159.59534 212.81613,136.18978 Z" style="font-style:normal;font-variant:normal;font-weight:normal;font-stretch:normal;font-size:medium;line-height:3.61934328px;font-family:Roboto;-inkscape-font-specification:Roboto;font-variant-ligatures:normal;font-variant-caps:normal;font-variant-numeric:normal;font-feature-settings:normal;text-align:start;writing-mode:lr-tb;text-anchor:start;fill:#424242;fill-opacity:1;fill-rule:nonzero;stroke:none;stroke-width:5.29166603;stroke-linecap:square;stroke-linejoin:miter;stroke-miterlimit:4;stroke-dasharray:5.29166661, 10.58333322999999915;stroke-dashoffset:0;stroke-opacity:1;paint-order:stroke fill markers" id="path16801" inkscape:connector-curvature="0" />
      <path d="M 260.17157,124.95709 H 267.04974 Q 273.53204,124.85812 277.24328,121.54275 Q 280.95452,118.22737 280.95452,112.58628 Q 280.95452,99.918582 268.3363,99.918582 Q 262.39831,99.918582 258.83552,103.33292 Q 255.32221,106.69778 255.32221,112.28939 H 246.16782 Q 246.16782,103.72879 252.4027,98.087703 Q 258.68707,92.397133 268.3363,92.397133 Q 278.52984,92.397133 284.31938,97.790804 Q 290.10891,103.18447 290.10891,112.78422 Q 290.10891,117.48512 287.04095,121.88913 Q 284.02248,126.29313 278.77726,128.4704 Q 284.71524,130.35076 287.93165,134.70528 Q 291.19754,139.0598 291.19754,145.34417 Q 291.19754,155.04288 284.86369,160.73345 Q 278.52984,166.42402 268.38578,166.42402 Q 258.24172,166.42402 251.85839,160.93138 Q 245.52454,155.43875 245.52454,146.4328 H 254.72842 Q 254.72842,152.12337 258.43966,155.53771 Q 262.1509,158.95206 268.38578,158.95206 Q 275.01653,158.95206 278.52984,155.48823 Q 282.04315,152.02441 282.04315,145.5421 Q 282.04315,139.25774 278.18346,135.89288 Q 274.32377,132.52802 267.04974,132.42905 H 260.17157 Z" style="font-style:normal;font-variant:normal;font-weight:normal;font-stretch:normal;font-size:medium;line-height:3.61934328px;font-family:Roboto;-inkscape-font-specification:Roboto;font-variant-ligatures:normal;font-variant-caps:normal;font-variant-numeric:normal;font-feature-settings:normal;text-align:start;writing-mode:lr-tb;text-anchor:start;fill:#424242;fill-opacity:1;fill-rule:nonzero;stroke:none;stroke-width:5.29166603;stroke-linecap:square;stroke-linejoin:miter;stroke-miterlimit:4;stroke-dasharray:5.29166661, 10.58333322999999915;stroke-dashoffset:0;stroke-opacity:1;paint-order:stroke fill markers" id="path16803" inkscape:connector-curvature="0" />
      <path d="M 342.51163,141.23707 H 352.50724 V 148.70903 H 342.51163 V 165.43436 H 333.30775 V 148.70903 H 300.50038 V 143.31536 L 332.76344,93.386798 H 342.51163 Z M 310.89185,141.23707 H 333.30775 V 105.90605 L 332.21912,107.88538 Z" style="font-style:normal;font-variant:normal;font-weight:normal;font-stretch:normal;font-size:medium;line-height:3.61934328px;font-family:Roboto;-inkscape-font-specification:Roboto;font-variant-ligatures:normal;font-variant-caps:normal;font-variant-numeric:normal;font-feature-settings:normal;text-align:start;writing-mode:lr-tb;text-anchor:start;fill:#424242;fill-opacity:1;fill-rule:nonzero;stroke:none;stroke-width:5.29166603;stroke-linecap:square;stroke-linejoin:miter;stroke-miterlimit:4;stroke-dasharray:5.29166661, 10.58333322999999915;stroke-dashoffset:0;stroke-opacity:1;paint-order:stroke fill markers" id="path16805" inkscape:connector-curvature="0" />
      <path d="M 408.07689,165.43436 H 360.86991 V 158.85309 L 385.80945,131.14249 Q 391.35157,124.85812 393.42986,120.94895 Q 395.55764,116.99029 395.55764,112.78422 Q 395.55764,107.14313 392.1433,103.53086 Q 388.72896,99.918582 383.03839,99.918582 Q 376.2097,99.918582 372.3995,103.82776 Q 368.63877,107.68745 368.63877,114.6151 H 359.48438 Q 359.48438,104.66897 365.86771,98.533052 Q 372.30053,92.397133 383.03839,92.397133 Q 393.08348,92.397133 398.9225,97.691837 Q 404.76152,102.93706 404.76152,111.69559 Q 404.76152,122.33448 391.20312,137.03099 L 371.90466,157.96239 H 408.07689 Z" style="font-style:normal;font-variant:normal;font-weight:normal;font-stretch:normal;font-size:medium;line-height:3.61934328px;font-family:Roboto;-inkscape-font-specification:Roboto;font-variant-ligatures:normal;font-variant-caps:normal;font-variant-numeric:normal;font-feature-settings:normal;text-align:start;writing-mode:lr-tb;text-anchor:start;fill:#424242;fill-opacity:1;fill-rule:nonzero;stroke:none;stroke-width:5.29166603;stroke-linecap:square;stroke-linejoin:miter;stroke-miterlimit:4;stroke-dasharray:5.29166661, 10.58333322999999915;stroke-dashoffset:0;stroke-opacity:1;paint-order:stroke fill markers" id="path16807" inkscape:connector-curvature="0" />
      <path d="M 439.94409,136.68461 Q 439.94409,147.71937 437.02458,157.86343 Q 434.15455,167.958 428.16709,176.5186 Q 422.2291,185.07919 415.69732,188.69147 L 413.76747,183.09986 Q 421.38788,177.26084 425.98982,164.98901 Q 430.64125,152.66769 430.74021,137.67427 V 136.09081 Q 430.74021,125.69934 428.56295,116.79236 Q 426.38569,107.8359 422.47652,100.7598 Q 418.61682,93.683697 413.76747,89.72504 L 415.69732,84.133437 Q 422.2291,87.745711 428.1176,96.207341 Q 434.05559,104.66897 436.9751,114.86251 Q 439.94409,125.05605 439.94409,136.68461 Z" style="font-style:normal;font-variant:normal;font-weight:normal;font-stretch:normal;font-size:medium;line-height:3.61934328px;font-family:Roboto;-inkscape-font-specification:Roboto;font-variant-ligatures:normal;font-variant-caps:normal;font-variant-numeric:normal;font-feature-settings:normal;text-align:start;writing-mode:lr-tb;text-anchor:start;fill:#424242;fill-opacity:1;fill-rule:nonzero;stroke:none;stroke-width:5.29166603;stroke-linecap:square;stroke-linejoin:miter;stroke-miterlimit:4;stroke-dasharray:5.29166661, 10.58333322999999915;stroke-dashoffset:0;stroke-opacity:1;paint-order:stroke fill markers" id="path16809" inkscape:connector-curvature="0" />
      <path d="M 500.31359,165.43436 H 453.1066 V 158.85309 L 478.04614,131.14249 Q 483.58826,124.85812 485.66656,120.94895 Q 487.79433,116.99029 487.79433,112.78422 Q 487.79433,107.14313 484.37999,103.53086 Q 480.96565,99.918582 475.27508,99.918582 Q 468.4464,99.918582 464.63619,103.82776 Q 460.87547,107.68745 460.87547,114.6151 H 451.72107 Q 451.72107,104.66897 458.10441,98.533052 Q 464.53722,92.397133 475.27508,92.397133 Q 485.32017,92.397133 491.15919,97.691837 Q 496.99821,102.93706 496.99821,111.69559 Q 496.99821,122.33448 483.43981,137.03099 L 464.14136,157.96239 H 500.31359 Z" style="font-style:normal;font-variant:normal;font-weight:normal;font-stretch:normal;font-size:medium;line-height:3.61934328px;font-family:Roboto;-inkscape-font-specification:Roboto;font-variant-ligatures:normal;font-variant-caps:normal;font-variant-numeric:normal;font-feature-settings:normal;text-align:start;writing-mode:lr-tb;text-anchor:start;fill:#424242;fill-opacity:1;fill-rule:nonzero;stroke:none;stroke-width:5.29166603;stroke-linecap:square;stroke-linejoin:miter;stroke-miterlimit:4;stroke-dasharray:5.29166661, 10.58333322999999915;stroke-dashoffset:0;stroke-opacity:1;paint-order:stroke fill markers" id="path16811" inkscape:connector-curvature="0" />
      <path d="M 523.42226,124.95709 H 530.30042 Q 536.78272,124.85812 540.49396,121.54275 Q 544.20521,118.22737 544.20521,112.58628 Q 544.20521,99.918582 531.58699,99.918582 Q 525.649,99.918582 522.08621,103.33292 Q 518.5729,106.69778 518.5729,112.28939 H 509.41851 Q 509.41851,103.72879 515.65339,98.087703 Q 521.93776,92.397133 531.58699,92.397133 Q 541.78053,92.397133 547.57006,97.790804 Q 553.3596,103.18447 553.3596,112.78422 Q 553.3596,117.48512 550.29164,121.88913 Q 547.27316,126.29313 542.02794,128.4704 Q 547.96593,130.35076 551.18234,134.70528 Q 554.44823,139.0598 554.44823,145.34417 Q 554.44823,155.04288 548.11438,160.73345 Q 541.78053,166.42402 531.63647,166.42402 Q 521.49241,166.42402 515.10908,160.93138 Q 508.77522,155.43875 508.77522,146.4328 H 517.9791 Q 517.9791,152.12337 521.69034,155.53771 Q 525.40158,158.95206 531.63647,158.95206 Q 538.26722,158.95206 541.78053,155.48823 Q 545.29384,152.02441 545.29384,145.5421 Q 545.29384,139.25774 541.43415,135.89288 Q 537.57445,132.52802 530.30042,132.42905 H 523.42226 Z" style="font-style:normal;font-variant:normal;font-weight:normal;font-stretch:normal;font-size:medium;line-height:3.61934328px;font-family:Roboto;-inkscape-font-specification:Roboto;font-variant-ligatures:normal;font-variant-caps:normal;font-variant-numeric:normal;font-feature-settings:normal;text-align:start;writing-mode:lr-tb;text-anchor:start;fill:#424242;fill-opacity:1;fill-rule:nonzero;stroke:none;stroke-width:5.29166603;stroke-linecap:square;stroke-linejoin:miter;stroke-miterlimit:4;stroke-dasharray:5.29166661, 10.58333322999999915;stroke-dashoffset:0;stroke-opacity:1;paint-order:stroke fill markers" id="path16813" inkscape:connector-curvature="0" />
      <path d="M 605.76233,141.23707 H 615.75794 V 148.70903 H 605.76233 V 165.43436 H 596.55845 V 148.70903 H 563.75108 V 143.31536 L 596.01414,93.386798 H 605.76233 Z M 574.14256,141.23707 H 596.55845 V 105.90605 L 595.46982,107.88538 Z" style="font-style:normal;font-variant:normal;font-weight:normal;font-stretch:normal;font-size:medium;line-height:3.61934328px;font-family:Roboto;-inkscape-font-specification:Roboto;font-variant-ligatures:normal;font-variant-caps:normal;font-variant-numeric:normal;font-feature-settings:normal;text-align:start;writing-mode:lr-tb;text-anchor:start;fill:#424242;fill-opacity:1;fill-rule:nonzero;stroke:none;stroke-width:5.29166603;stroke-linecap:square;stroke-linejoin:miter;stroke-miterlimit:4;stroke-dasharray:5.29166661, 10.58333322999999915;stroke-dashoffset:0;stroke-opacity:1;paint-order:stroke fill markers" id="path16815" inkscape:connector-curvature="0" />
      <path d="M 644.11183,138.56497 H 619.96402 V 131.09301 H 644.11183 Z" style="font-style:normal;font-variant:normal;font-weight:normal;font-stretch:normal;font-size:medium;line-height:3.61934328px;font-family:Roboto;-inkscape-font-specification:Roboto;font-variant-ligatures:normal;font-variant-caps:normal;font-variant-numeric:normal;font-feature-settings:normal;text-align:start;writing-mode:lr-tb;text-anchor:start;fill:#424242;fill-opacity:1;fill-rule:nonzero;stroke:none;stroke-width:5.29166603;stroke-linecap:square;stroke-linejoin:miter;stroke-miterlimit:4;stroke-dasharray:5.29166661, 10.58333322999999915;stroke-dashoffset:0;stroke-opacity:1;paint-order:stroke fill markers" id="path16817" inkscape:connector-curvature="0" />
      <path d="M 690.67551,141.23707 H 700.67112 V 148.70903 H 690.67551 V 165.43436 H 681.47163 V 148.70903 H 648.66426 V 143.31536 L 680.92731,93.386798 H 690.67551 Z M 659.05573,141.23707 H 681.47163 V 105.90605 L 680.383,107.88538 Z" style="font-style:normal;font-variant:normal;font-weight:normal;font-stretch:normal;font-size:medium;line-height:3.61934328px;font-family:Roboto;-inkscape-font-specification:Roboto;font-variant-ligatures:normal;font-variant-caps:normal;font-variant-numeric:normal;font-feature-settings:normal;text-align:start;writing-mode:lr-tb;text-anchor:start;fill:#424242;fill-opacity:1;fill-rule:nonzero;stroke:none;stroke-width:5.29166603;stroke-linecap:square;stroke-linejoin:miter;stroke-miterlimit:4;stroke-dasharray:5.29166661, 10.58333322999999915;stroke-dashoffset:0;stroke-opacity:1;paint-order:stroke fill markers" id="path16819" inkscape:connector-curvature="0" />
      <path d="M 752.72749,112.19042 Q 752.72749,117.58409 749.85747,121.79016 Q 747.03693,125.99624 742.18757,128.37143 Q 747.82866,130.79611 751.09455,135.44753 Q 754.40992,140.09895 754.40992,145.98745 Q 754.40992,155.33978 748.07607,160.8819 Q 741.7917,166.42402 731.4992,166.42402 Q 721.10772,166.42402 714.82335,160.8819 Q 708.58847,155.2903 708.58847,145.98745 Q 708.58847,140.14843 711.75539,135.44753 Q 714.9718,130.74662 720.61289,128.32195 Q 715.81302,125.94675 713.04196,121.74068 Q 710.2709,117.53461 710.2709,112.19042 Q 710.2709,103.08551 716.10992,97.741321 Q 721.94894,92.397133 731.4992,92.397133 Q 740.99997,92.397133 746.83899,97.741321 Q 752.72749,103.08551 752.72749,112.19042 Z M 745.25553,145.78952 Q 745.25553,139.75257 741.39584,135.94236 Q 737.58563,132.13215 731.40023,132.13215 Q 725.21483,132.13215 721.4541,135.89288 Q 717.74286,139.6536 717.74286,145.78952 Q 717.74286,151.92544 721.35514,155.43875 Q 725.0169,158.95206 731.4992,158.95206 Q 737.93201,158.95206 741.59377,155.43875 Q 745.25553,151.87596 745.25553,145.78952 Z M 731.4992,99.918582 Q 726.10553,99.918582 722.74067,103.28344 Q 719.42529,106.59882 719.42529,112.33887 Q 719.42529,117.83151 722.69118,121.24585 Q 726.00656,124.61071 731.4992,124.61071 Q 736.99183,124.61071 740.25773,121.24585 Q 743.5731,117.83151 743.5731,112.33887 Q 743.5731,106.84623 740.15876,103.38241 Q 736.74442,99.918582 731.4992,99.918582 Z" style="font-style:normal;font-variant:normal;font-weight:normal;font-stretch:normal;font-size:medium;line-height:3.61934328px;font-family:Roboto;-inkscape-font-specification:Roboto;font-variant-ligatures:normal;font-variant-caps:normal;font-variant-numeric:normal;font-feature-settings:normal;text-align:start;writing-mode:lr-tb;text-anchor:start;fill:#424242;fill-opacity:1;fill-rule:nonzero;stroke:none;stroke-width:5.29166603;stroke-linecap:square;stroke-linejoin:miter;stroke-miterlimit:4;stroke-dasharray:5.29166661, 10.58333322999999915;stroke-dashoffset:0;stroke-opacity:1;paint-order:stroke fill markers" id="path16821" inkscape:connector-curvature="0" />
      <path d="M 786.02967,138.56497 H 761.88187 V 131.09301 H 786.02967 Z" style="font-style:normal;font-variant:normal;font-weight:normal;font-stretch:normal;font-size:medium;line-height:3.61934328px;font-family:Roboto;-inkscape-font-specification:Roboto;font-variant-ligatures:normal;font-variant-caps:normal;font-variant-numeric:normal;font-feature-settings:normal;text-align:start;writing-mode:lr-tb;text-anchor:start;fill:#424242;fill-opacity:1;fill-rule:nonzero;stroke:none;stroke-width:5.29166603;stroke-linecap:square;stroke-linejoin:miter;stroke-miterlimit:4;stroke-dasharray:5.29166661, 10.58333322999999915;stroke-dashoffset:0;stroke-opacity:1;paint-order:stroke fill markers" id="path16823" inkscape:connector-curvature="0" />
      <path d="M 837.64064,112.19042 Q 837.64064,117.58409 834.77062,121.79016 Q 831.95007,125.99624 827.10072,128.37143 Q 832.7418,130.79611 836.0077,135.44753 Q 839.32307,140.09895 839.32307,145.98745 Q 839.32307,155.33978 832.98922,160.8819 Q 826.70485,166.42402 816.41234,166.42402 Q 806.02087,166.42402 799.7365,160.8819 Q 793.50162,155.2903 793.50162,145.98745 Q 793.50162,140.14843 796.66854,135.44753 Q 799.88495,130.74662 805.52604,128.32195 Q 800.72616,125.94675 797.9551,121.74068 Q 795.18404,117.53461 795.18404,112.19042 Q 795.18404,103.08551 801.02306,97.741321 Q 806.86208,92.397133 816.41234,92.397133 Q 825.91312,92.397133 831.75214,97.741321 Q 837.64064,103.08551 837.64064,112.19042 Z M 830.16868,145.78952 Q 830.16868,139.75257 826.30899,135.94236 Q 822.49878,132.13215 816.31338,132.13215 Q 810.12798,132.13215 806.36725,135.89288 Q 802.65601,139.6536 802.65601,145.78952 Q 802.65601,151.92544 806.26828,155.43875 Q 809.93004,158.95206 816.41234,158.95206 Q 822.84516,158.95206 826.50692,155.43875 Q 830.16868,151.87596 830.16868,145.78952 Z M 816.41234,99.918582 Q 811.01867,99.918582 807.65381,103.28344 Q 804.33844,106.59882 804.33844,112.33887 Q 804.33844,117.83151 807.60433,121.24585 Q 810.91971,124.61071 816.41234,124.61071 Q 821.90498,124.61071 825.17087,121.24585 Q 828.48625,117.83151 828.48625,112.33887 Q 828.48625,106.84623 825.07191,103.38241 Q 821.65756,99.918582 816.41234,99.918582 Z" style="font-style:normal;font-variant:normal;font-weight:normal;font-stretch:normal;font-size:medium;line-height:3.61934328px;font-family:Roboto;-inkscape-font-specification:Roboto;font-variant-ligatures:normal;font-variant-caps:normal;font-variant-numeric:normal;font-feature-settings:normal;text-align:start;writing-mode:lr-tb;text-anchor:start;fill:#424242;fill-opacity:1;fill-rule:nonzero;stroke:none;stroke-width:5.29166603;stroke-linecap:square;stroke-linejoin:miter;stroke-miterlimit:4;stroke-dasharray:5.29166661, 10.58333322999999915;stroke-dashoffset:0;stroke-opacity:1;paint-order:stroke fill markers" id="path16825" inkscape:connector-curvature="0" />
      <path d="M 886.87648,93.337315 V 101.10618 H 885.19405 Q 874.50567,101.30411 868.17182,107.44003 Q 861.83797,113.57595 860.84831,124.70967 Q 866.53888,118.17789 876.38604,118.17789 Q 885.78785,118.17789 891.37945,124.80864 Q 897.02054,131.43939 897.02054,141.92983 Q 897.02054,153.06355 890.9341,159.74379 Q 884.89715,166.42402 874.70361,166.42402 Q 864.36161,166.42402 857.9288,158.50671 Q 851.49598,150.53991 851.49598,138.02066 V 134.50735 Q 851.49598,114.6151 859.95761,104.12466 Q 868.46872,93.584731 885.24353,93.337315 Z M 874.85206,125.7983 Q 870.15115,125.7983 866.19249,128.61885 Q 862.23384,131.43939 860.69986,135.69495 V 139.0598 Q 860.69986,147.96678 864.708,153.40994 Q 868.71614,158.85309 874.70361,158.85309 Q 880.88901,158.85309 884.40232,154.30063 Q 887.96511,149.74818 887.96511,142.37518 Q 887.96511,134.9527 884.35283,130.40024 Q 880.79004,125.7983 874.85206,125.7983 Z" style="font-style:normal;font-variant:normal;font-weight:normal;font-stretch:normal;font-size:medium;line-height:3.61934328px;font-family:Roboto;-inkscape-font-specification:Roboto;font-variant-ligatures:normal;font-variant-caps:normal;font-variant-numeric:normal;font-feature-settings:normal;text-align:start;writing-mode:lr-tb;text-anchor:start;fill:#424242;fill-opacity:1;fill-rule:nonzero;stroke:none;stroke-width:5.29166603;stroke-linecap:square;stroke-linejoin:miter;stroke-miterlimit:4;stroke-dasharray:5.29166661, 10.58333322999999915;stroke-dashoffset:0;stroke-opacity:1;paint-order:stroke fill markers" id="path16827" inkscape:connector-curvature="0" />
    </g>
    <g id="g16780" transform="translate(105.83332,-22.22493)">
      <path d="M 152.64082,-1033.126 H 141.92131 V -1001.0967 H 134.1077 V -1070.9672 H 141.92131 V -1039.971 H 152.51167 L 178.14808,-1070.9672 H 187.89895 L 159.2275,-1037.0651 L 191.06314,-1001.0967 H 180.86024 Z" style="font-style:normal;font-variant:normal;font-weight:300;font-stretch:normal;font-size:132.25028992px;line-height:1.10000002em;font-family:Roboto;-inkscape-font-specification:'Roboto Light';font-variant-ligatures:normal;font-variant-caps:normal;font-variant-numeric:normal;font-feature-settings:normal;text-align:start;writing-mode:lr-tb;baseline-shift:baseline;text-anchor:start;fill:#424242;fill-opacity:1;fill-rule:nonzero;stroke:none;stroke-width:7.41065073;stroke-linecap:square;stroke-linejoin:miter;stroke-miterlimit:4;stroke-dasharray:5.29166658, 10.58333316999999951;stroke-dashoffset:0;stroke-opacity:1;paint-order:stroke fill markers" id="path16718" inkscape:connector-curvature="0" />
      <path d="M 246.21048,-1001.0967 Q 245.04813,-1004.39 244.72525,-1010.8476 Q 240.65701,-1005.5524 234.32862,-1002.6465 Q 228.06481,-999.80517 221.0261,-999.80517 Q 210.95235,-999.80517 204.68854,-1005.4232 Q 198.48931,-1011.0413 198.48931,-1019.6298 Q 198.48931,-1029.8327 206.94868,-1035.7736 Q 215.47262,-1041.7146 230.64783,-1041.7146 H 244.66068 V -1049.6573 Q 244.66068,-1057.1481 240.01125,-1061.41 Q 235.4264,-1065.7366 226.57958,-1065.7366 Q 218.50766,-1065.7366 213.21249,-1061.6038 Q 207.91731,-1057.4709 207.91731,-1051.6592 L 200.16827,-1051.7237 Q 200.16827,-1060.054 207.91731,-1066.124 Q 215.66635,-1072.2587 226.96703,-1072.2587 Q 238.65517,-1072.2587 245.371,-1066.3823 Q 252.15142,-1060.5706 252.34514,-1050.1094 V -1017.0468 Q 252.34514,-1006.9085 254.47613,-1001.8716 V -1001.0967 Z M 221.93016,-1006.6502 Q 229.6792,-1006.6502 235.74928,-1010.3955 Q 241.88394,-1014.1409 244.66068,-1020.4047 V -1035.7736 H 230.84155 Q 219.28257,-1035.6445 212.76046,-1031.5117 Q 206.23835,-1027.4434 206.23835,-1020.2756 Q 206.23835,-1014.3992 210.5649,-1010.5247 Q 214.95602,-1006.6502 221.93016,-1006.6502 Z" style="font-style:normal;font-variant:normal;font-weight:300;font-stretch:normal;font-size:132.25028992px;line-height:1.10000002em;font-family:Roboto;-inkscape-font-specification:'Roboto Light';font-variant-ligatures:normal;font-variant-caps:normal;font-variant-numeric:normal;font-feature-settings:normal;text-align:start;writing-mode:lr-tb;baseline-shift:baseline;text-anchor:start;fill:#424242;fill-opacity:1;fill-rule:nonzero;stroke:none;stroke-width:7.41065073;stroke-linecap:square;stroke-linejoin:miter;stroke-miterlimit:4;stroke-dasharray:5.29166658, 10.58333316999999951;stroke-dashoffset:0;stroke-opacity:1;paint-order:stroke fill markers" id="path16720" inkscape:connector-curvature="0" />
      <path d="M 329.06064,-1035.3216 Q 329.06064,-1018.984 321.8282,-1009.3623 Q 314.59576,-999.80517 302.4556,-999.80517 Q 288.11988,-999.80517 280.49999,-1009.8789 V -974.23334 H 272.81552 V -1070.9672 H 279.98338 L 280.37083,-1061.0872 Q 287.92615,-1072.2587 302.26187,-1072.2587 Q 314.78949,-1072.2587 321.89278,-1062.7661 Q 329.06064,-1053.2736 329.06064,-1036.4194 Z M 321.3116,-1036.6777 Q 321.3116,-1050.0448 315.82269,-1057.7938 Q 310.33379,-1065.5429 300.51834,-1065.5429 Q 293.41505,-1065.5429 288.3136,-1062.1204 Q 283.21215,-1058.6979 280.49999,-1052.1758 V -1018.6612 Q 283.27672,-1012.6557 288.44275,-1009.4915 Q 293.60878,-1006.3273 300.64749,-1006.3273 Q 310.39837,-1006.3273 315.82269,-1014.0763 Q 321.3116,-1021.8899 321.3116,-1036.6777 Z" style="font-style:normal;font-variant:normal;font-weight:300;font-stretch:normal;font-size:132.25028992px;line-height:1.10000002em;font-family:Roboto;-inkscape-font-specification:'Roboto Light';font-variant-ligatures:normal;font-variant-caps:normal;font-variant-numeric:normal;font-feature-settings:normal;text-align:start;writing-mode:lr-tb;baseline-shift:baseline;text-anchor:start;fill:#424242;fill-opacity:1;fill-rule:nonzero;stroke:none;stroke-width:7.41065073;stroke-linecap:square;stroke-linejoin:miter;stroke-miterlimit:4;stroke-dasharray:5.29166658, 10.58333316999999951;stroke-dashoffset:0;stroke-opacity:1;paint-order:stroke fill markers" id="path16722" inkscape:connector-curvature="0" />
      <path d="M 399.89978,-1001.0967 H 392.15073 V -1033.126 H 354.50331 V -1001.0967 H 346.75427 V -1070.9672 H 354.50331 V -1039.6482 H 392.15073 V -1070.9672 H 399.89978 Z" style="font-style:normal;font-variant:normal;font-weight:300;font-stretch:normal;font-size:132.25028992px;line-height:1.10000002em;font-family:Roboto;-inkscape-font-specification:'Roboto Light';font-variant-ligatures:normal;font-variant-caps:normal;font-variant-numeric:normal;font-feature-settings:normal;text-align:start;writing-mode:lr-tb;baseline-shift:baseline;text-anchor:start;fill:#424242;fill-opacity:1;fill-rule:nonzero;stroke:none;stroke-width:7.41065073;stroke-linecap:square;stroke-linejoin:miter;stroke-miterlimit:4;stroke-dasharray:5.29166658, 10.58333316999999951;stroke-dashoffset:0;stroke-opacity:1;paint-order:stroke fill markers" id="path16724" inkscape:connector-curvature="0" />
      <path d="M 466.54151,-1070.9672 H 474.29055 V -1001.0967 H 466.54151 V -1058.5042 L 428.82952,-1001.0967 H 421.14505 V -1070.9672 H 428.82952 V -1013.4951 Z" style="font-style:normal;font-variant:normal;font-weight:300;font-stretch:normal;font-size:132.25028992px;line-height:1.10000002em;font-family:Roboto;-inkscape-font-specification:'Roboto Light';font-variant-ligatures:normal;font-variant-caps:normal;font-variant-numeric:normal;font-feature-settings:normal;text-align:start;writing-mode:lr-tb;baseline-shift:baseline;text-anchor:start;fill:#424242;fill-opacity:1;fill-rule:nonzero;stroke:none;stroke-width:7.41065073;stroke-linecap:square;stroke-linejoin:miter;stroke-miterlimit:4;stroke-dasharray:5.29166658, 10.58333316999999951;stroke-dashoffset:0;stroke-opacity:1;paint-order:stroke fill markers" id="path16726" inkscape:connector-curvature="0" />
      <path d="M 535.96002,-1052.4986 Q 535.96002,-1058.827 531.24602,-1062.2495 Q 526.53202,-1065.672 518.26638,-1065.672 Q 510.77564,-1065.672 505.41589,-1061.7975 Q 500.12071,-1057.9876 500.12071,-1052.1112 H 492.43624 Q 492.43624,-1060.8289 499.86241,-1066.5115 Q 507.35315,-1072.1941 518.26638,-1072.1941 Q 530.27739,-1072.1941 536.99322,-1067.0281 Q 543.70906,-1061.8621 543.70906,-1052.3695 Q 543.70906,-1047.3326 540.60944,-1043.2644 Q 537.50983,-1039.1961 531.5689,-1036.936 Q 545.00057,-1033.2552 545.00057,-1020.2756 Q 545.00057,-1010.8476 537.70355,-1005.3587 Q 530.40654,-999.86975 518.33095,-999.86975 Q 506.64282,-999.86975 498.95835,-1005.7461 Q 491.27389,-1011.6225 491.27389,-1021.115 H 499.02293 Q 499.02293,-1014.7867 504.57641,-1010.5247 Q 510.19446,-1006.3273 518.33095,-1006.3273 Q 527.17777,-1006.3273 532.15007,-1010.0081 Q 537.18695,-1013.7534 537.18695,-1020.1464 Q 537.18695,-1027.1851 532.6021,-1030.2847 Q 528.01725,-1033.3843 518.58925,-1033.3843 H 507.93432 V -1040.1002 H 519.88076 Q 535.96002,-1040.4876 535.96002,-1052.4986 Z" style="font-style:normal;font-variant:normal;font-weight:300;font-stretch:normal;font-size:132.25028992px;line-height:1.10000002em;font-family:Roboto;-inkscape-font-specification:'Roboto Light';font-variant-ligatures:normal;font-variant-caps:normal;font-variant-numeric:normal;font-feature-settings:normal;text-align:start;writing-mode:lr-tb;baseline-shift:baseline;text-anchor:start;fill:#424242;fill-opacity:1;fill-rule:nonzero;stroke:none;stroke-width:7.41065073;stroke-linecap:square;stroke-linejoin:miter;stroke-miterlimit:4;stroke-dasharray:5.29166658, 10.58333316999999951;stroke-dashoffset:0;stroke-opacity:1;paint-order:stroke fill markers" id="path16728" inkscape:connector-curvature="0" />
      <path d="M 570.44322,-1045.5891 H 590.59073 Q 598.33977,-1045.5891 604.15155,-1042.7478 Q 610.02791,-1039.971 612.99837,-1034.9987 Q 616.03341,-1030.0264 616.03341,-1023.4397 Q 616.03341,-1013.3014 609.05928,-1007.1668 Q 602.14972,-1001.0967 590.33243,-1001.0967 H 562.75876 V -1070.9672 H 570.44322 Z M 570.44322,-1039.0024 V -1007.6188 H 590.46158 Q 598.7918,-1007.6188 603.5058,-1011.8162 Q 608.28437,-1016.0136 608.28437,-1023.3106 Q 608.28437,-1030.2847 603.63495,-1034.5467 Q 599.0501,-1038.8733 591.04276,-1039.0024 Z M 639.73256,-1001.0967 H 631.98352 V -1070.9672 H 639.73256 Z" style="font-style:normal;font-variant:normal;font-weight:300;font-stretch:normal;font-size:132.25028992px;line-height:1.10000002em;font-family:Roboto;-inkscape-font-specification:'Roboto Light';font-variant-ligatures:normal;font-variant-caps:normal;font-variant-numeric:normal;font-feature-settings:normal;text-align:start;writing-mode:lr-tb;baseline-shift:baseline;text-anchor:start;fill:#424242;fill-opacity:1;fill-rule:nonzero;stroke:none;stroke-width:7.41065073;stroke-linecap:square;stroke-linejoin:miter;stroke-miterlimit:4;stroke-dasharray:5.29166658, 10.58333316999999951;stroke-dashoffset:0;stroke-opacity:1;paint-order:stroke fill markers" id="path16730" inkscape:connector-curvature="0" />
    </g>
    <g id="g16787" transform="translate(73.481087,-22.22493)">
      <path d="M 174.20898,-925.49187 V -862.14347 H 205.26972 V -925.49187 H 213.01876 V -862.14347 H 243.8212 V -925.49187 H 251.57024 V -855.62136 H 166.45994 V -925.49187 Z" style="font-style:normal;font-variant:normal;font-weight:300;font-stretch:normal;font-size:132.25028992px;line-height:1.10000002em;font-family:Roboto;-inkscape-font-specification:'Roboto Light';font-variant-ligatures:normal;font-variant-caps:normal;font-variant-numeric:normal;font-feature-settings:normal;text-align:start;writing-mode:lr-tb;baseline-shift:baseline;text-anchor:start;fill:#424242;fill-opacity:1;fill-rule:nonzero;stroke:none;stroke-width:7.41065073;stroke-linecap:square;stroke-linejoin:miter;stroke-miterlimit:4;stroke-dasharray:5.29166658, 10.58333316999999951;stroke-dashoffset:0;stroke-opacity:1;paint-order:stroke fill markers" id="path16732" inkscape:connector-curvature="0" />
      <path d="M 320.98873,-918.90519 H 295.54604 V -855.62136 H 287.797 V -918.90519 H 263.32295 V -925.49187 H 320.98873 Z" style="font-style:normal;font-variant:normal;font-weight:300;font-stretch:normal;font-size:132.25028992px;line-height:1.10000002em;font-family:Roboto;-inkscape-font-specification:'Roboto Light';font-variant-ligatures:normal;font-variant-caps:normal;font-variant-numeric:normal;font-feature-settings:normal;text-align:start;writing-mode:lr-tb;baseline-shift:baseline;text-anchor:start;fill:#424242;fill-opacity:1;fill-rule:nonzero;stroke:none;stroke-width:7.41065073;stroke-linecap:square;stroke-linejoin:miter;stroke-miterlimit:4;stroke-dasharray:5.29166658, 10.58333316999999951;stroke-dashoffset:0;stroke-opacity:1;paint-order:stroke fill markers" id="path16734" inkscape:connector-curvature="0" />
      <path d="M 329.31894,-891.58982 Q 329.31894,-901.66357 333.19346,-909.73549 Q 337.13256,-917.80741 344.23585,-922.26311 Q 351.40371,-926.78338 360.44426,-926.78338 Q 374.39253,-926.78338 383.04562,-916.96793 Q 391.69872,-907.21705 391.69872,-891.07322 V -889.45883 Q 391.69872,-879.32051 387.75962,-871.18401 Q 383.8851,-863.1121 376.78182,-858.72097 Q 369.67853,-854.32985 360.57341,-854.32985 Q 346.68971,-854.32985 337.97204,-864.08073 Q 329.31894,-873.89618 329.31894,-890.04001 Z M 337.06798,-889.45883 Q 337.06798,-876.93122 343.52552,-868.8593 Q 350.04763,-860.85196 360.57341,-860.85196 Q 371.03461,-860.85196 377.49215,-868.8593 Q 384.01425,-876.93122 384.01425,-890.10459 V -891.58982 Q 384.01425,-899.59716 381.04379,-906.24842 Q 378.07332,-912.89968 372.71357,-916.5159 Q 367.35382,-920.19669 360.44426,-920.19669 Q 350.1122,-920.19669 343.59009,-912.0602 Q 337.06798,-903.98828 337.06798,-890.87949 Z" style="font-style:normal;font-variant:normal;font-weight:300;font-stretch:normal;font-size:132.25028992px;line-height:1.10000002em;font-family:Roboto;-inkscape-font-specification:'Roboto Light';font-variant-ligatures:normal;font-variant-caps:normal;font-variant-numeric:normal;font-feature-settings:normal;text-align:start;writing-mode:lr-tb;baseline-shift:baseline;text-anchor:start;fill:#424242;fill-opacity:1;fill-rule:nonzero;stroke:none;stroke-width:7.41065073;stroke-linecap:square;stroke-linejoin:miter;stroke-miterlimit:4;stroke-dasharray:5.29166658, 10.58333316999999951;stroke-dashoffset:0;stroke-opacity:1;paint-order:stroke fill markers" id="path16736" inkscape:connector-curvature="0" />
      <path d="M 463.89395,-889.84629 Q 463.89395,-873.50873 456.66151,-863.887 Q 449.42908,-854.32985 437.28891,-854.32985 Q 422.95319,-854.32985 415.3333,-864.4036 V -828.75802 H 407.64883 V -925.49187 H 414.8167 L 415.20415,-915.61185 Q 422.75946,-926.78338 437.09519,-926.78338 Q 449.6228,-926.78338 456.72609,-917.2908 Q 463.89395,-907.79823 463.89395,-890.94407 Z M 456.14491,-891.20237 Q 456.14491,-904.56946 450.65601,-912.3185 Q 445.1671,-920.06754 435.35165,-920.06754 Q 428.24837,-920.06754 423.14691,-916.64505 Q 418.04546,-913.22256 415.3333,-906.70045 V -873.18585 Q 418.11004,-867.18034 423.27606,-864.01615 Q 428.44209,-860.85196 435.4808,-860.85196 Q 445.23168,-860.85196 450.65601,-868.601 Q 456.14491,-876.41462 456.14491,-891.20237 Z" style="font-style:normal;font-variant:normal;font-weight:300;font-stretch:normal;font-size:132.25028992px;line-height:1.10000002em;font-family:Roboto;-inkscape-font-specification:'Roboto Light';font-variant-ligatures:normal;font-variant-caps:normal;font-variant-numeric:normal;font-feature-settings:normal;text-align:start;writing-mode:lr-tb;baseline-shift:baseline;text-anchor:start;fill:#424242;fill-opacity:1;fill-rule:nonzero;stroke:none;stroke-width:7.41065073;stroke-linecap:square;stroke-linejoin:miter;stroke-miterlimit:4;stroke-dasharray:5.29166658, 10.58333316999999951;stroke-dashoffset:0;stroke-opacity:1;paint-order:stroke fill markers" id="path16738" inkscape:connector-curvature="0" />
      <path d="M 489.59493,-900.11376 H 509.74243 Q 517.49147,-900.11376 523.30325,-897.27245 Q 529.17961,-894.49571 532.15007,-889.52341 Q 535.18512,-884.55111 535.18512,-877.96442 Q 535.18512,-867.8261 528.21098,-861.69144 Q 521.30142,-855.62136 509.48413,-855.62136 H 481.91046 V -925.49187 H 489.59493 Z M 489.59493,-893.52708 V -862.14347 H 509.61328 Q 517.9435,-862.14347 522.6575,-866.34086 Q 527.43607,-870.53826 527.43607,-877.83527 Q 527.43607,-884.80941 522.78665,-889.07138 Q 518.2018,-893.39793 510.19446,-893.52708 Z M 558.88426,-855.62136 H 551.13522 V -925.49187 H 558.88426 Z" style="font-style:normal;font-variant:normal;font-weight:300;font-stretch:normal;font-size:132.25028992px;line-height:1.10000002em;font-family:Roboto;-inkscape-font-specification:'Roboto Light';font-variant-ligatures:normal;font-variant-caps:normal;font-variant-numeric:normal;font-feature-settings:normal;text-align:start;writing-mode:lr-tb;baseline-shift:baseline;text-anchor:start;fill:#424242;fill-opacity:1;fill-rule:nonzero;stroke:none;stroke-width:7.41065073;stroke-linecap:square;stroke-linejoin:miter;stroke-miterlimit:4;stroke-dasharray:5.29166658, 10.58333316999999951;stroke-dashoffset:0;stroke-opacity:1;paint-order:stroke fill markers" id="path16740" inkscape:connector-curvature="0" />
    </g>
    <g id="g16795" transform="translate(82.521619,-22.22493)">
      <path d="M 219.34714,-742.4337 H 210.04829 V -710.14604 H 202.29925 V -742.4337 H 193.06498 L 167.23485,-710.14604 H 157.4194 L 186.34915,-745.98535 L 160.64816,-780.01655 H 170.01159 L 192.93583,-749.34327 H 202.29925 V -780.01655 H 210.04829 V -749.34327 H 219.47629 L 242.40054,-780.01655 H 251.89311 L 226.06298,-745.98535 L 255.0573,-710.14604 H 245.17728 Z" style="font-style:normal;font-variant:normal;font-weight:300;font-stretch:normal;font-size:132.25028992px;line-height:1.10000002em;font-family:Roboto;-inkscape-font-specification:'Roboto Light';font-variant-ligatures:normal;font-variant-caps:normal;font-variant-numeric:normal;font-feature-settings:normal;text-align:start;writing-mode:lr-tb;baseline-shift:baseline;text-anchor:start;fill:#424242;fill-opacity:1;fill-rule:nonzero;stroke:none;stroke-width:7.41065073;stroke-linecap:square;stroke-linejoin:miter;stroke-miterlimit:4;stroke-dasharray:5.29166658, 10.58333316999999951;stroke-dashoffset:0;stroke-opacity:1;paint-order:stroke fill markers" id="path16742" inkscape:connector-curvature="0" />
      <path d="M 311.56072,-710.14604 Q 310.39836,-713.43938 310.07549,-719.89691 Q 306.00724,-714.60173 299.67886,-711.69584 Q 293.41505,-708.85453 286.37634,-708.85453 Q 276.30259,-708.85453 270.03878,-714.47258 Q 263.83955,-720.09064 263.83955,-728.67916 Q 263.83955,-738.88206 272.29891,-744.82299 Q 280.82286,-750.76392 295.99806,-750.76392 H 310.01091 V -758.70669 Q 310.01091,-766.19743 305.36149,-770.4594 Q 300.77664,-774.78595 291.92982,-774.78595 Q 283.8579,-774.78595 278.56272,-770.65313 Q 273.26754,-766.5203 273.26754,-760.70852 L 265.5185,-760.7731 Q 265.5185,-769.10332 273.26754,-775.1734 Q 281.01658,-781.30806 292.31727,-781.30806 Q 304.0054,-781.30806 310.72124,-775.4317 Q 317.50165,-769.61992 317.69538,-759.15872 V -726.09614 Q 317.69538,-715.95782 319.82636,-710.92094 V -710.14604 Z M 287.28039,-715.69951 Q 295.02943,-715.69951 301.09951,-719.44488 Q 307.23417,-723.19025 310.01091,-729.45406 V -744.82299 H 296.19179 Q 284.6328,-744.69384 278.11069,-740.56102 Q 271.58859,-736.49277 271.58859,-729.32491 Q 271.58859,-723.44855 275.91513,-719.57403 Q 280.30626,-715.69951 287.28039,-715.69951 Z" style="font-style:normal;font-variant:normal;font-weight:300;font-stretch:normal;font-size:132.25028992px;line-height:1.10000002em;font-family:Roboto;-inkscape-font-specification:'Roboto Light';font-variant-ligatures:normal;font-variant-caps:normal;font-variant-numeric:normal;font-feature-settings:normal;text-align:start;writing-mode:lr-tb;baseline-shift:baseline;text-anchor:start;fill:#424242;fill-opacity:1;fill-rule:nonzero;stroke:none;stroke-width:7.41065073;stroke-linecap:square;stroke-linejoin:miter;stroke-miterlimit:4;stroke-dasharray:5.29166658, 10.58333316999999951;stroke-dashoffset:0;stroke-opacity:1;paint-order:stroke fill markers" id="path16744" inkscape:connector-curvature="0" />
      <path d="M 391.95701,-780.01655 V -710.14604 H 384.20797 V -773.36529 H 355.6011 L 354.37416,-747.21228 Q 353.59926,-732.68283 351.46827,-724.99836 Q 349.33729,-717.37847 345.13989,-713.76225 Q 340.94249,-710.14604 333.96836,-710.14604 H 330.99789 V -716.99102 L 333.38718,-717.12017 Q 340.03844,-717.24932 342.94433,-723.57771 Q 345.85022,-729.90609 346.75428,-746.17907 L 348.17493,-780.01655 Z" style="font-style:normal;font-variant:normal;font-weight:300;font-stretch:normal;font-size:132.25028992px;line-height:1.10000002em;font-family:Roboto;-inkscape-font-specification:'Roboto Light';font-variant-ligatures:normal;font-variant-caps:normal;font-variant-numeric:normal;font-feature-settings:normal;text-align:start;writing-mode:lr-tb;baseline-shift:baseline;text-anchor:start;fill:#424242;fill-opacity:1;fill-rule:nonzero;stroke:none;stroke-width:7.41065073;stroke-linecap:square;stroke-linejoin:miter;stroke-miterlimit:4;stroke-dasharray:5.29166658, 10.58333316999999951;stroke-dashoffset:0;stroke-opacity:1;paint-order:stroke fill markers" id="path16746" inkscape:connector-curvature="0" />
      <path d="M 421.14507,-748.18091 H 441.09885 Q 441.42172,-757.73806 445.48997,-765.35795 Q 449.55822,-773.04241 456.53235,-777.17524 Q 463.50649,-781.30806 472.15958,-781.30806 Q 486.04328,-781.30806 494.69638,-771.49261 Q 503.41405,-761.67715 503.41405,-745.53332 V -743.98351 Q 503.41405,-733.90976 499.47495,-725.77327 Q 495.53586,-717.63677 488.43257,-713.24565 Q 481.32928,-708.85453 472.28873,-708.85453 Q 458.92164,-708.85453 450.33312,-717.89508 Q 441.7446,-727.0002 441.09885,-741.59422 H 421.14507 V -710.14604 H 413.4606 V -780.01655 H 421.14507 Z M 448.71874,-743.98351 Q 448.71874,-731.4559 455.17627,-723.38398 Q 461.69838,-715.37664 472.28873,-715.37664 Q 482.68536,-715.37664 489.1429,-723.38398 Q 495.66501,-731.4559 495.66501,-744.62927 V -746.1145 Q 495.66501,-758.51296 489.1429,-766.58488 Q 482.62079,-774.72137 472.15958,-774.72137 Q 461.76295,-774.72137 455.24085,-766.58488 Q 448.71874,-758.51296 448.71874,-745.40417 Z" style="font-style:normal;font-variant:normal;font-weight:300;font-stretch:normal;font-size:132.25028992px;line-height:1.10000002em;font-family:Roboto;-inkscape-font-specification:'Roboto Light';font-variant-ligatures:normal;font-variant-caps:normal;font-variant-numeric:normal;font-feature-settings:normal;text-align:start;writing-mode:lr-tb;baseline-shift:baseline;text-anchor:start;fill:#424242;fill-opacity:1;fill-rule:nonzero;stroke:none;stroke-width:7.41065073;stroke-linecap:square;stroke-linejoin:miter;stroke-miterlimit:4;stroke-dasharray:5.29166658, 10.58333316999999951;stroke-dashoffset:0;stroke-opacity:1;paint-order:stroke fill markers" id="path16748" inkscape:connector-curvature="0" />
      <path d="M 561.01526,-761.548 Q 561.01526,-767.87639 556.30126,-771.29888 Q 551.58726,-774.72137 543.32161,-774.72137 Q 535.83087,-774.72137 530.47112,-770.84685 Q 525.17594,-767.03691 525.17594,-761.16055 H 517.49148 Q 517.49148,-769.87822 524.91764,-775.56085 Q 532.40838,-781.24348 543.32161,-781.24348 Q 555.33263,-781.24348 562.04846,-776.07745 Q 568.7643,-770.91143 568.7643,-761.41885 Q 568.7643,-756.38198 565.66468,-752.31373 Q 562.56506,-748.24548 556.62413,-745.98535 Q 570.0558,-742.30455 570.0558,-729.32491 Q 570.0558,-719.89691 562.75879,-714.40801 Q 555.46178,-708.9191 543.38619,-708.9191 Q 531.69805,-708.9191 524.01359,-714.79546 Q 516.32912,-720.67182 516.32912,-730.16439 H 524.07816 Q 524.07816,-723.83601 529.63164,-719.57403 Q 535.2497,-715.37664 543.38619,-715.37664 Q 552.23301,-715.37664 557.20531,-719.05743 Q 562.24219,-722.8028 562.24219,-729.19576 Q 562.24219,-736.23447 557.65734,-739.33409 Q 553.07249,-742.4337 543.64449,-742.4337 H 532.98956 V -749.14954 H 544.936 Q 561.01526,-749.53699 561.01526,-761.548 Z" style="font-style:normal;font-variant:normal;font-weight:300;font-stretch:normal;font-size:132.25028992px;line-height:1.10000002em;font-family:Roboto;-inkscape-font-specification:'Roboto Light';font-variant-ligatures:normal;font-variant-caps:normal;font-variant-numeric:normal;font-feature-settings:normal;text-align:start;writing-mode:lr-tb;baseline-shift:baseline;text-anchor:start;fill:#424242;fill-opacity:1;fill-rule:nonzero;stroke:none;stroke-width:7.41065073;stroke-linecap:square;stroke-linejoin:miter;stroke-miterlimit:4;stroke-dasharray:5.29166658, 10.58333316999999951;stroke-dashoffset:0;stroke-opacity:1;paint-order:stroke fill markers" id="path16750" inkscape:connector-curvature="0" />
      <path d="M 632.88758,-780.01655 H 640.63662 V -710.14604 H 632.88758 V -767.55351 L 595.17558,-710.14604 H 587.49112 V -780.01655 H 595.17558 V -722.5445 Z" style="font-style:normal;font-variant:normal;font-weight:300;font-stretch:normal;font-size:132.25028992px;line-height:1.10000002em;font-family:Roboto;-inkscape-font-specification:'Roboto Light';font-variant-ligatures:normal;font-variant-caps:normal;font-variant-numeric:normal;font-feature-settings:normal;text-align:start;writing-mode:lr-tb;baseline-shift:baseline;text-anchor:start;fill:#424242;fill-opacity:1;fill-rule:nonzero;stroke:none;stroke-width:7.41065073;stroke-linecap:square;stroke-linejoin:miter;stroke-miterlimit:4;stroke-dasharray:5.29166658, 10.58333316999999951;stroke-dashoffset:0;stroke-opacity:1;paint-order:stroke fill markers" id="path16752" inkscape:connector-curvature="0" />
    </g>
  </g>
</svg>
