<?xml version="1.0" encoding="UTF-8" standalone="no"?>
<!-- Created with Inkscape (http://www.inkscape.org/) -->

<svg xmlns:dc="http://purl.org/dc/elements/1.1/" xmlns:cc="http://creativecommons.org/ns#" xmlns:rdf="http://www.w3.org/1999/02/22-rdf-syntax-ns#" xmlns:svg="http://www.w3.org/2000/svg" xmlns="http://www.w3.org/2000/svg" xmlns:sodipodi="http://sodipodi.sourceforge.net/DTD/sodipodi-0.dtd" xmlns:inkscape="http://www.inkscape.org/namespaces/inkscape" width="1200mm" height="850mm" viewBox="0 0 1200 850" version="1.1" id="svg8" inkscape:version="0.92.2 2405546, 2018-03-11" sodipodi:docname="banner7.svg">
  <defs id="defs2" />
  <sodipodi:namedview id="base" pagecolor="#898989" bordercolor="#666666" borderopacity="1.0" inkscape:pageopacity="0.67058824" inkscape:pageshadow="2" inkscape:zoom="0.08" inkscape:cx="2156.7705" inkscape:cy="-882.88101" inkscape:document-units="mm" inkscape:current-layer="layer1" showgrid="false" inkscape:snap-bbox="true" inkscape:bbox-paths="true" inkscape:bbox-nodes="true" inkscape:snap-bbox-edge-midpoints="true" inkscape:snap-bbox-midpoints="true" inkscape:snap-page="true" inkscape:showpageshadow="false" inkscape:pagecheckerboard="true" showguides="false">
    <sodipodi:guide position="1215.4297,176.94011" orientation="0,19200" id="guide14773" inkscape:locked="false" />
    <sodipodi:guide position="5080,0" orientation="-3420.4724,0" id="guide14775" inkscape:locked="false" />
    <sodipodi:guide position="869.89452,728.38494" orientation="0,-19200" id="guide14777" inkscape:locked="false" />
    <sodipodi:guide position="947.53133,565.63054" orientation="3420.4724,0" id="guide14779" inkscape:locked="false" />
  </sodipodi:namedview>
  <metadata id="metadata5">
    <rdf:RDF>
      <cc:Work rdf:about="">
        <dc:format>image/svg+xml</dc:format>
        <dc:type rdf:resource="http://purl.org/dc/dcmitype/StillImage" />
        <dc:title></dc:title>
      </cc:Work>
    </rdf:RDF>
  </metadata>
  <g inkscape:label="Layer 1" inkscape:groupmode="layer" id="layer1" transform="translate(0,553)">
    <rect y="-553" x="-7.7989081e-14" height="850" width="1200" id="rect14771" style="opacity:1;vector-effect:none;fill:white;fill-opacity:1;fill-rule:evenodd;stroke:none;stroke-width:1.41869628;stroke-linecap:butt;stroke-linejoin:miter;stroke-miterlimit:4;stroke-dasharray:none;stroke-dashoffset:0;stroke-opacity:1;paint-order:fill markers stroke" />
    <g id="g14788" transform="matrix(0.40271674,0,0,0.37096738,-280.62907,-285.34749)" style="stroke-width:2.58721375">
      <g id="g14769" transform="matrix(14.908441,0,0,14.908441,115.5443,-654.84024)" style="stroke-width:0.05243589">
        <path d="M 115.9,29.13 C 116.7,29.12 117.4,28.98 118.1,28.7 C 118.7,28.42 119.2,28.04 119.7,27.56 C 120.2,27.08 120.5,26.52 120.8,25.89 C 121,25.26 121.1,24.58 121.1,23.85 C 121.1,23.14 121,22.46 120.8,21.83 C 120.5,21.19 120.2,20.64 119.7,20.17 C 119.2,19.69 118.7,19.31 118.1,19.03 C 117.4,18.75 116.7,18.6 115.9,18.59 Z M 113.7,18.59 C 112.9,18.6 112.2,18.74 111.5,19.02 C 110.9,19.3 110.4,19.68 109.9,20.16 C 109.4,20.63 109.1,21.19 108.8,21.83 C 108.6,22.46 108.5,23.14 108.5,23.85 C 108.5,24.58 108.6,25.26 108.8,25.89 C 109.1,26.52 109.4,27.08 109.9,27.56 C 110.4,28.04 110.9,28.42 111.5,28.7 C 112.2,28.98 112.9,29.12 113.7,29.13 Z M 115.9,16.72 C 117,16.75 118.1,16.95 119,17.34 C 119.9,17.72 120.7,18.23 121.4,18.88 C 122.1,19.53 122.6,20.28 123,21.13 C 123.3,21.98 123.5,22.89 123.5,23.85 C 123.5,24.82 123.3,25.74 123,26.6 C 122.6,27.45 122.1,28.21 121.4,28.86 C 120.7,29.5 119.9,30.01 119,30.4 C 118.1,30.79 117,30.99 115.9,31.02 V 33.16 H 113.7 V 31.02 C 112.6,30.99 111.5,30.79 110.6,30.4 C 109.7,30.01 108.9,29.5 108.2,28.86 C 107.5,28.21 107,27.45 106.6,26.6 C 106.3,25.74 106.1,24.82 106.1,23.85 C 106.1,22.89 106.3,21.98 106.6,21.13 C 107,20.28 107.5,19.53 108.2,18.88 C 108.9,18.23 109.7,17.72 110.6,17.34 C 111.5,16.95 112.6,16.75 113.7,16.72 V 15.44 H 115.9 Z M 104,24.31 C 104,25.64 103.8,26.86 103.3,27.97 C 102.9,29.07 102.3,30.02 101.5,30.82 C 100.8,31.62 99.86,32.24 98.78,32.69 C 97.71,33.12 96.52,33.34 95.22,33.34 C 93.92,33.34 92.73,33.12 91.66,32.69 C 90.59,32.24 89.67,31.62 88.9,30.82 C 88.13,30.02 87.54,29.07 87.12,27.97 C 86.7,26.86 86.49,25.64 86.49,24.31 C 86.49,22.98 86.7,21.77 87.12,20.66 C 87.54,19.55 88.13,18.6 88.9,17.8 C 89.67,16.99 90.59,16.37 91.66,15.92 C 92.73,15.47 93.92,15.25 95.22,15.25 C 96.52,15.25 97.71,15.47 98.78,15.92 C 99.86,16.37 100.8,16.99 101.5,17.8 C 102.3,18.6 102.9,19.55 103.3,20.66 C 103.8,21.77 104,22.98 104,24.31 Z M 101.5,24.31 C 101.5,23.22 101.4,22.25 101.1,21.38 C 100.8,20.51 100.3,19.78 99.79,19.19 C 99.24,18.59 98.58,18.13 97.81,17.81 C 97.04,17.49 96.17,17.33 95.22,17.33 C 94.27,17.33 93.41,17.49 92.63,17.81 C 91.86,18.13 91.2,18.59 90.65,19.19 C 90.1,19.78 89.68,20.51 89.38,21.38 C 89.09,22.25 88.94,23.22 88.94,24.31 C 88.94,25.4 89.09,26.37 89.38,27.24 C 89.68,28.09 90.1,28.82 90.65,29.43 C 91.2,30.02 91.86,30.48 92.63,30.8 C 93.41,31.11 94.27,31.27 95.22,31.27 C 96.17,31.27 97.04,31.11 97.81,30.8 C 98.58,30.48 99.24,30.02 99.79,29.43 C 100.3,28.82 100.8,28.09 101.1,27.24 C 101.4,26.37 101.5,25.4 101.5,24.31 Z M 78,24.63 C 78.69,24.63 79.29,24.54 79.8,24.36 C 80.33,24.18 80.77,23.93 81.13,23.61 C 81.49,23.28 81.76,22.88 81.94,22.43 C 82.12,21.98 82.21,21.48 82.21,20.94 C 82.21,19.81 81.86,18.92 81.16,18.29 C 80.47,17.66 79.42,17.34 78,17.34 H 75.16 V 24.63 Z M 78,15.45 C 79.12,15.45 80.09,15.58 80.92,15.84 C 81.75,16.1 82.43,16.47 82.98,16.94 C 83.53,17.42 83.93,18 84.19,18.67 C 84.46,19.35 84.6,20.11 84.6,20.94 C 84.6,21.76 84.46,22.51 84.17,23.2 C 83.88,23.88 83.45,24.47 82.89,24.97 C 82.34,25.46 81.66,25.85 80.83,26.13 C 80.02,26.4 79.07,26.53 78,26.53 H 75.16 V 33.16 H 72.77 V 15.45 Z M 68.23,33.16 H 65.82 V 17.34 H 56.97 V 33.16 H 54.57 V 15.45 H 68.23 Z" id="path875" inkscape:connector-curvature="0" style="fill:#f13535;fill-opacity:1;stroke-width:0.05243589" />
        <path d="M 211.8,17.11 Q 212.8,16.23 214.1,15.76 Q 215.4,15.29 217.1,15.29 Q 218.5,15.29 219.6,15.62 Q 220.7,15.95 221.4,16.56 Q 222.2,17.16 222.6,17.99 Q 223,18.82 223,19.81 Q 223,21.14 222.4,22.16 Q 221.7,23.17 220.5,23.73 Q 221.2,24.01 221.7,24.43 Q 222.3,24.84 222.7,25.36 Q 223.1,25.88 223.3,26.5 Q 223.5,27.11 223.5,27.79 Q 223.5,28.95 223.1,29.97 Q 222.7,30.98 221.8,31.74 Q 221,32.48 219.8,32.91 Q 218.6,33.34 217.1,33.34 Q 215.2,33.34 213.7,32.72 Q 212.1,32.09 211.1,31.03 L 211.7,29.89 Q 211.8,29.76 212,29.67 Q 212.1,29.57 212.3,29.57 Q 212.6,29.57 212.9,29.86 Q 213.3,30.13 213.8,30.46 Q 214.4,30.8 215.2,31.08 Q 216,31.35 217.1,31.35 Q 218.1,31.35 218.9,31.12 Q 219.7,30.88 220.2,30.44 Q 220.7,29.99 221,29.35 Q 221.3,28.71 221.3,27.9 Q 221.3,27.21 221,26.63 Q 220.7,26.05 220.2,25.64 Q 219.7,25.22 219,25 Q 218.3,24.77 217.4,24.77 H 214.9 V 22.8 H 217.3 Q 218,22.8 218.7,22.61 Q 219.3,22.43 219.8,22.07 Q 220.2,21.71 220.5,21.19 Q 220.8,20.67 220.8,20.01 Q 220.8,19.4 220.5,18.89 Q 220.3,18.39 219.8,18.03 Q 219.3,17.66 218.7,17.46 Q 218,17.26 217.1,17.26 Q 216.1,17.26 215.4,17.47 Q 214.7,17.68 214.2,17.94 Q 213.7,18.19 213.4,18.4 Q 213.1,18.61 212.9,18.61 Q 212.7,18.61 212.6,18.52 Q 212.5,18.44 212.4,18.24 Z M 208.3,15.46 V 33.17 H 205.9 V 20.59 Q 205.9,20.06 205.9,19.49 Q 205.9,18.91 206,18.26 Q 205.8,18.82 205.6,19.3 Q 205.3,19.78 205.1,20.14 L 196.8,32.42 Q 196.6,32.7 196.3,32.93 Q 196.1,33.17 195.7,33.17 H 193.9 V 15.46 H 196.3 V 28.05 Q 196.3,28.58 196.3,29.16 Q 196.3,29.73 196.2,30.39 Q 196.4,29.82 196.6,29.34 Q 196.9,28.86 197.1,28.49 L 205.4,16.21 Q 205.6,15.93 205.9,15.69 Q 206.1,15.46 206.5,15.46 Z M 189.4,15.46 V 33.17 H 187 V 25.11 H 177.4 V 33.17 H 175 V 15.46 H 177.4 V 23.36 H 187 V 15.46 Z M 165.5,24.64 Q 166.5,24.64 167.3,24.37 Q 168,24.1 168.6,23.62 Q 169.1,23.12 169.4,22.44 Q 169.7,21.76 169.7,20.95 Q 169.7,19.25 168.6,18.3 Q 167.6,17.35 165.5,17.35 H 162.6 V 24.64 Z M 165.5,15.46 Q 167.1,15.46 168.4,15.85 Q 169.6,16.24 170.4,16.95 Q 171.2,17.67 171.6,18.68 Q 172.1,19.7 172.1,20.95 Q 172.1,22.18 171.6,23.21 Q 171.2,24.23 170.3,24.98 Q 169.5,25.72 168.3,26.14 Q 167.1,26.54 165.5,26.54 H 162.6 V 33.17 H 160.2 V 15.46 Z M 152.9,26.59 L 150.1,19.39 Q 150,19.07 149.9,18.65 Q 149.7,18.21 149.6,17.73 Q 149.3,18.73 149.1,19.4 L 146.3,26.59 Z M 157.9,33.17 H 156 Q 155.7,33.17 155.5,33.01 Q 155.3,32.85 155.2,32.6 L 153.6,28.32 H 145.6 L 144,32.6 Q 143.9,32.82 143.7,33 Q 143.5,33.17 143.1,33.17 H 141.3 L 148.4,15.46 H 150.8 Z M 141.1,33.17 H 138.9 Q 138.6,33.17 138.3,32.98 Q 138.1,32.79 137.9,32.42 L 133.2,25.93 Q 132.9,25.44 132.5,25.26 Q 132.1,25.06 131.5,25.06 H 129.3 V 33.17 H 127 V 15.46 H 129.3 V 23.22 H 131.2 Q 131.7,23.22 132.1,23.05 Q 132.5,22.87 132.9,22.37 L 137.5,16.14 Q 137.7,15.84 138,15.66 Q 138.3,15.46 138.6,15.46 H 140.6 L 135.3,22.74 Q 134.7,23.59 133.7,23.91 Q 134.4,24.09 134.8,24.47 Q 135.3,24.84 135.7,25.51 Z" id="path877" inkscape:connector-curvature="0" style="fill:#424242;fill-opacity:1;stroke-width:0.05243589" />
      </g>
    </g>
    <flowRoot xml:space="preserve" id="flowRoot14827" style="font-style:normal;font-variant:normal;font-weight:normal;font-stretch:normal;font-size:700.00006104px;line-height:25px;font-family:Roboto;-inkscape-font-specification:Roboto;font-variant-ligatures:normal;font-variant-caps:normal;font-variant-numeric:normal;font-feature-settings:normal;text-align:start;writing-mode:lr-tb;text-anchor:start;opacity:1;fill:white;fill-opacity:1;fill-rule:nonzero;stroke:none;stroke-width:20;stroke-linecap:square;stroke-linejoin:miter;stroke-miterlimit:4;stroke-dasharray:20, 40;stroke-dashoffset:0;stroke-opacity:1;paint-order:stroke fill markers"><flowRegion id="flowRegion14829"><rect id="rect14831" width="3164.3027" height="5762.9204" x="16201.584" y="-716.10229" /></flowRegion><flowPara id="flowPara14833" /></flowRoot>    <g style="fill:black;stroke-width:0.02172292" id="g973" transform="matrix(-18.26988,0,0,-18.26988,820.16946,117.26414)">
      <path id="path959" d="M 0,0 H 24 V 24 H 0 Z" inkscape:connector-curvature="0" style="fill:none;stroke-width:0.02172292" />
      <path id="path961" d="M 12,4 L 10.59,5.41 L 16.17,11 H 4 V 13 H 16.17 L 10.59,18.59 L 12,20 L 20,12 Z" inkscape:connector-curvature="0" style="fill:#424242;fill-opacity:1;stroke-width:0.02172292" />
    </g>
    <g id="g2289">
      <path d="M 121.16837,167.65385 H 147.39416 V 178.95807 H 121.16837 V 208.67202 H 109.1536 V 178.95807 H 82.927811 V 167.65385 H 109.1536 V 140.20074 H 121.16837 Z" style="font-style:normal;font-variant:normal;font-weight:normal;font-stretch:normal;font-size:132.29167175px;line-height:6.61458302px;font-family:Roboto;-inkscape-font-specification:Roboto;font-variant-ligatures:normal;font-variant-caps:normal;font-variant-numeric:normal;font-feature-settings:normal;text-align:start;writing-mode:lr-tb;text-anchor:start;fill:#424242;fill-opacity:1;fill-rule:nonzero;stroke:none;stroke-width:5.29166651;stroke-linecap:square;stroke-linejoin:miter;stroke-miterlimit:4;stroke-dasharray:5.2916666, 10.58333320000000022;stroke-dashoffset:0;stroke-opacity:1;paint-order:stroke fill markers" id="path2224" inkscape:connector-curvature="0" />
      <path d="M 221.35606,130.76979 L 182.40495,218.10297 H 169.87341 L 208.69533,133.87038 H 157.79405 V 124.05186 H 221.35606 Z" style="font-style:normal;font-variant:normal;font-weight:normal;font-stretch:normal;font-size:132.29167175px;line-height:6.61458302px;font-family:Roboto;-inkscape-font-specification:Roboto;font-variant-ligatures:normal;font-variant-caps:normal;font-variant-numeric:normal;font-feature-settings:normal;text-align:start;writing-mode:lr-tb;text-anchor:start;fill:#424242;fill-opacity:1;fill-rule:nonzero;stroke:none;stroke-width:5.29166651;stroke-linecap:square;stroke-linejoin:miter;stroke-miterlimit:4;stroke-dasharray:5.2916666, 10.58333320000000022;stroke-dashoffset:0;stroke-opacity:1;paint-order:stroke fill markers" id="path2226" inkscape:connector-curvature="0" />
      <path d="M 235.82546,179.927 Q 235.82546,165.32841 239.70119,151.89253 Q 243.64152,138.45666 251.39299,127.47542 Q 259.14445,116.49418 267.47728,111.97249 L 269.93191,119.85315 Q 260.50096,127.08785 254.42898,141.94482 Q 248.42159,156.8018 247.84023,175.21153 L 247.77564,180.70215 Q 247.77564,205.63603 256.88361,223.98116 Q 262.37423,234.9624 269.93191,241.16358 L 267.47728,248.46287 Q 258.88607,243.6828 251.07001,232.44318 Q 235.82546,210.48069 235.82546,179.927 Z" style="font-style:normal;font-variant:normal;font-weight:normal;font-stretch:normal;font-size:132.29167175px;line-height:6.61458302px;font-family:Roboto;-inkscape-font-specification:Roboto;font-variant-ligatures:normal;font-variant-caps:normal;font-variant-numeric:normal;font-feature-settings:normal;text-align:start;writing-mode:lr-tb;text-anchor:start;fill:#424242;fill-opacity:1;fill-rule:nonzero;stroke:none;stroke-width:5.29166651;stroke-linecap:square;stroke-linejoin:miter;stroke-miterlimit:4;stroke-dasharray:5.2916666, 10.58333320000000022;stroke-dashoffset:0;stroke-opacity:1;paint-order:stroke fill markers" id="path2228" inkscape:connector-curvature="0" />
      <path d="M 297.64339,165.26381 H 306.62217 Q 315.08418,165.13462 319.92885,160.80672 Q 324.77352,156.47882 324.77352,149.11493 Q 324.77352,132.57847 308.30165,132.57847 Q 300.55019,132.57847 295.89931,137.03556 Q 291.31302,141.42806 291.31302,148.72735 H 279.36285 Q 279.36285,137.55232 287.50189,130.18843 Q 295.70552,122.75995 308.30165,122.75995 Q 321.60833,122.75995 329.16601,129.80086 Q 336.72369,136.84177 336.72369,149.37331 Q 336.72369,155.50989 332.71877,161.25889 Q 328.77844,167.00789 321.93131,169.8501 Q 329.68278,172.30473 333.88149,177.98913 Q 338.14479,183.67354 338.14479,191.87718 Q 338.14479,204.5379 329.87656,211.96639 Q 321.60833,219.39488 308.36625,219.39488 Q 295.12416,219.39488 286.79134,212.22477 Q 278.52311,205.05467 278.52311,193.29828 H 290.53788 Q 290.53788,200.72677 295.38254,205.18386 Q 300.22721,209.64095 308.36625,209.64095 Q 317.02205,209.64095 321.60833,205.11926 Q 326.19462,200.59757 326.19462,192.13556 Q 326.19462,183.93192 321.15617,179.53943 Q 316.11771,175.14693 306.62217,175.01774 H 297.64339 Z" style="font-style:normal;font-variant:normal;font-weight:normal;font-stretch:normal;font-size:132.29167175px;line-height:6.61458302px;font-family:Roboto;-inkscape-font-specification:Roboto;font-variant-ligatures:normal;font-variant-caps:normal;font-variant-numeric:normal;font-feature-settings:normal;text-align:start;writing-mode:lr-tb;text-anchor:start;fill:#424242;fill-opacity:1;fill-rule:nonzero;stroke:none;stroke-width:5.29166651;stroke-linecap:square;stroke-linejoin:miter;stroke-miterlimit:4;stroke-dasharray:5.2916666, 10.58333320000000022;stroke-dashoffset:0;stroke-opacity:1;paint-order:stroke fill markers" id="path2230" inkscape:connector-curvature="0" />
      <path d="M 405.13037,186.51575 H 418.17867 V 196.26967 H 405.13037 V 218.10297 H 393.1156 V 196.26967 H 350.28875 V 189.22876 L 392.40505,124.05186 H 405.13037 Z M 363.85382,186.51575 H 393.1156 V 140.39453 L 391.6945,142.97835 Z" style="font-style:normal;font-variant:normal;font-weight:normal;font-stretch:normal;font-size:132.29167175px;line-height:6.61458302px;font-family:Roboto;-inkscape-font-specification:Roboto;font-variant-ligatures:normal;font-variant-caps:normal;font-variant-numeric:normal;font-feature-settings:normal;text-align:start;writing-mode:lr-tb;text-anchor:start;fill:#424242;fill-opacity:1;fill-rule:nonzero;stroke:none;stroke-width:5.29166651;stroke-linecap:square;stroke-linejoin:miter;stroke-miterlimit:4;stroke-dasharray:5.2916666, 10.58333320000000022;stroke-dashoffset:0;stroke-opacity:1;paint-order:stroke fill markers" id="path2232" inkscape:connector-curvature="0" />
      <path d="M 490.71946,218.10297 H 429.09531 V 209.51176 L 461.65147,173.33826 Q 468.88617,165.13462 471.59918,160.03157 Q 474.37679,154.86393 474.37679,149.37331 Q 474.37679,142.00942 469.91969,137.29394 Q 465.4626,132.57847 458.03411,132.57847 Q 449.11993,132.57847 444.14607,137.68152 Q 439.23681,142.71997 439.23681,151.76334 H 427.28664 Q 427.28664,138.77964 435.61946,130.76979 Q 444.01688,122.75995 458.03411,122.75995 Q 471.14701,122.75995 478.76928,129.67167 Q 486.39156,136.5188 486.39156,147.95221 Q 486.39156,161.84025 468.69238,181.02512 L 443.50012,208.34904 H 490.71946 Z" style="font-style:normal;font-variant:normal;font-weight:normal;font-stretch:normal;font-size:132.29167175px;line-height:6.61458302px;font-family:Roboto;-inkscape-font-specification:Roboto;font-variant-ligatures:normal;font-variant-caps:normal;font-variant-numeric:normal;font-feature-settings:normal;text-align:start;writing-mode:lr-tb;text-anchor:start;fill:#424242;fill-opacity:1;fill-rule:nonzero;stroke:none;stroke-width:5.29166651;stroke-linecap:square;stroke-linejoin:miter;stroke-miterlimit:4;stroke-dasharray:5.2916666, 10.58333320000000022;stroke-dashoffset:0;stroke-opacity:1;paint-order:stroke fill markers" id="path2234" inkscape:connector-curvature="0" />
      <path d="M 532.31899,180.57296 Q 532.31899,194.97776 528.50785,208.21985 Q 524.76131,221.39734 516.94525,232.57237 Q 509.19378,243.7474 500.66717,248.46287 L 498.14794,241.16358 Q 508.09566,233.5413 514.10304,217.52161 Q 520.17502,201.43732 520.30422,181.86487 V 179.79781 Q 520.30422,166.23275 517.46201,154.60555 Q 514.61981,142.91375 509.51676,133.67659 Q 504.47831,124.43943 498.14794,119.27179 L 500.66717,111.97249 Q 509.19378,116.68796 516.88065,127.7338 Q 524.63212,138.77964 528.44325,152.08632 Q 532.31899,165.393 532.31899,180.57296 Z" style="font-style:normal;font-variant:normal;font-weight:normal;font-stretch:normal;font-size:132.29167175px;line-height:6.61458302px;font-family:Roboto;-inkscape-font-specification:Roboto;font-variant-ligatures:normal;font-variant-caps:normal;font-variant-numeric:normal;font-feature-settings:normal;text-align:start;writing-mode:lr-tb;text-anchor:start;fill:#424242;fill-opacity:1;fill-rule:nonzero;stroke:none;stroke-width:5.29166651;stroke-linecap:square;stroke-linejoin:miter;stroke-miterlimit:4;stroke-dasharray:5.2916666, 10.58333320000000022;stroke-dashoffset:0;stroke-opacity:1;paint-order:stroke fill markers" id="path2236" inkscape:connector-curvature="0" />
      <path d="M 611.12556,218.10297 H 549.50141 V 209.51176 L 582.05756,173.33826 Q 589.29226,165.13462 592.00528,160.03157 Q 594.78288,154.86393 594.78288,149.37331 Q 594.78288,142.00942 590.32579,137.29394 Q 585.8687,132.57847 578.44021,132.57847 Q 569.52603,132.57847 564.55217,137.68152 Q 559.64291,142.71997 559.64291,151.76334 H 547.69273 Q 547.69273,138.77964 556.02556,130.76979 Q 564.42298,122.75995 578.44021,122.75995 Q 591.55311,122.75995 599.17538,129.67167 Q 606.79766,136.5188 606.79766,147.95221 Q 606.79766,161.84025 589.09848,181.02512 L 563.90622,208.34904 H 611.12556 Z" style="font-style:normal;font-variant:normal;font-weight:normal;font-stretch:normal;font-size:132.29167175px;line-height:6.61458302px;font-family:Roboto;-inkscape-font-specification:Roboto;font-variant-ligatures:normal;font-variant-caps:normal;font-variant-numeric:normal;font-feature-settings:normal;text-align:start;writing-mode:lr-tb;text-anchor:start;fill:#424242;fill-opacity:1;fill-rule:nonzero;stroke:none;stroke-width:5.29166651;stroke-linecap:square;stroke-linejoin:miter;stroke-miterlimit:4;stroke-dasharray:5.2916666, 10.58333320000000022;stroke-dashoffset:0;stroke-opacity:1;paint-order:stroke fill markers" id="path2238" inkscape:connector-curvature="0" />
      <path d="M 641.2917,165.26381 H 650.27048 Q 658.7325,165.13462 663.57717,160.80672 Q 668.42183,156.47882 668.42183,149.11493 Q 668.42183,132.57847 651.94997,132.57847 Q 644.1985,132.57847 639.54762,137.03556 Q 634.96134,141.42806 634.96134,148.72735 H 623.01116 Q 623.01116,137.55232 631.1502,130.18843 Q 639.35384,122.75995 651.94997,122.75995 Q 665.25665,122.75995 672.81433,129.80086 Q 680.37201,136.84177 680.37201,149.37331 Q 680.37201,155.50989 676.36708,161.25889 Q 672.42675,167.00789 665.57963,169.8501 Q 673.33109,172.30473 677.5298,177.98913 Q 681.79311,183.67354 681.79311,191.87718 Q 681.79311,204.5379 673.52488,211.96639 Q 665.25665,219.39488 652.01456,219.39488 Q 638.77248,219.39488 630.43965,212.22477 Q 622.17142,205.05467 622.17142,193.29828 H 634.18619 Q 634.18619,200.72677 639.03086,205.18386 Q 643.87552,209.64095 652.01456,209.64095 Q 660.67037,209.64095 665.25665,205.11926 Q 669.84293,200.59757 669.84293,192.13556 Q 669.84293,183.93192 664.80448,179.53943 Q 659.76603,175.14693 650.27048,175.01774 H 641.2917 Z" style="font-style:normal;font-variant:normal;font-weight:normal;font-stretch:normal;font-size:132.29167175px;line-height:6.61458302px;font-family:Roboto;-inkscape-font-specification:Roboto;font-variant-ligatures:normal;font-variant-caps:normal;font-variant-numeric:normal;font-feature-settings:normal;text-align:start;writing-mode:lr-tb;text-anchor:start;fill:#424242;fill-opacity:1;fill-rule:nonzero;stroke:none;stroke-width:5.29166651;stroke-linecap:square;stroke-linejoin:miter;stroke-miterlimit:4;stroke-dasharray:5.2916666, 10.58333320000000022;stroke-dashoffset:0;stroke-opacity:1;paint-order:stroke fill markers" id="path2240" inkscape:connector-curvature="0" />
      <path d="M 748.77868,186.51575 H 761.82698 V 196.26967 H 748.77868 V 218.10297 H 736.76391 V 196.26967 H 693.93707 V 189.22876 L 736.05336,124.05186 H 748.77868 Z M 707.50213,186.51575 H 736.76391 V 140.39453 L 735.34281,142.97835 Z" style="font-style:normal;font-variant:normal;font-weight:normal;font-stretch:normal;font-size:132.29167175px;line-height:6.61458302px;font-family:Roboto;-inkscape-font-specification:Roboto;font-variant-ligatures:normal;font-variant-caps:normal;font-variant-numeric:normal;font-feature-settings:normal;text-align:start;writing-mode:lr-tb;text-anchor:start;fill:#424242;fill-opacity:1;fill-rule:nonzero;stroke:none;stroke-width:5.29166651;stroke-linecap:square;stroke-linejoin:miter;stroke-miterlimit:4;stroke-dasharray:5.2916666, 10.58333320000000022;stroke-dashoffset:0;stroke-opacity:1;paint-order:stroke fill markers" id="path2242" inkscape:connector-curvature="0" />
      <path d="M 798.84023,183.02759 H 767.3176 V 173.27366 H 798.84023 Z" style="font-style:normal;font-variant:normal;font-weight:normal;font-stretch:normal;font-size:132.29167175px;line-height:6.61458302px;font-family:Roboto;-inkscape-font-specification:Roboto;font-variant-ligatures:normal;font-variant-caps:normal;font-variant-numeric:normal;font-feature-settings:normal;text-align:start;writing-mode:lr-tb;text-anchor:start;fill:#424242;fill-opacity:1;fill-rule:nonzero;stroke:none;stroke-width:5.29166651;stroke-linecap:square;stroke-linejoin:miter;stroke-miterlimit:4;stroke-dasharray:5.2916666, 10.58333320000000022;stroke-dashoffset:0;stroke-opacity:1;paint-order:stroke fill markers" id="path2244" inkscape:connector-curvature="0" />
      <path d="M 859.62463,186.51575 H 872.67293 V 196.26967 H 859.62463 V 218.10297 H 847.60986 V 196.26967 H 804.78302 V 189.22876 L 846.89931,124.05186 H 859.62463 Z M 818.34808,186.51575 H 847.60986 V 140.39453 L 846.18876,142.97835 Z" style="font-style:normal;font-variant:normal;font-weight:normal;font-stretch:normal;font-size:132.29167175px;line-height:6.61458302px;font-family:Roboto;-inkscape-font-specification:Roboto;font-variant-ligatures:normal;font-variant-caps:normal;font-variant-numeric:normal;font-feature-settings:normal;text-align:start;writing-mode:lr-tb;text-anchor:start;fill:#424242;fill-opacity:1;fill-rule:nonzero;stroke:none;stroke-width:5.29166651;stroke-linecap:square;stroke-linejoin:miter;stroke-miterlimit:4;stroke-dasharray:5.2916666, 10.58333320000000022;stroke-dashoffset:0;stroke-opacity:1;paint-order:stroke fill markers" id="path2246" inkscape:connector-curvature="0" />
      <path d="M 940.62744,148.59816 Q 940.62744,155.63908 936.8809,161.1297 Q 933.19895,166.62032 926.86859,169.7209 Q 934.23248,172.88609 938.49579,178.95807 Q 942.82369,185.03005 942.82369,192.71692 Q 942.82369,204.92548 934.55546,212.16018 Q 926.35182,219.39488 912.91595,219.39488 Q 899.35089,219.39488 891.14725,212.16018 Q 883.00821,204.86088 883.00821,192.71692 Q 883.00821,185.09464 887.14233,178.95807 Q 891.34104,172.82149 898.70493,169.65631 Q 892.43916,166.55572 888.82181,161.0651 Q 885.20446,155.57448 885.20446,148.59816 Q 885.20446,136.71258 892.82674,129.73626 Q 900.44901,122.75995 912.91595,122.75995 Q 925.3183,122.75995 932.94057,129.73626 Q 940.62744,136.71258 940.62744,148.59816 Z M 930.87351,192.45854 Q 930.87351,184.57788 925.83506,179.60402 Q 920.8612,174.63017 912.78676,174.63017 Q 904.71232,174.63017 899.80306,179.53943 Q 894.95839,184.44869 894.95839,192.45854 Q 894.95839,200.46838 899.67386,205.05467 Q 904.45393,209.64095 912.91595,209.64095 Q 921.31337,209.64095 926.09344,205.05467 Q 930.87351,200.40379 930.87351,192.45854 Z M 912.91595,132.57847 Q 905.87504,132.57847 901.48254,136.97096 Q 897.15464,141.29887 897.15464,148.79195 Q 897.15464,155.96205 901.41794,160.41915 Q 905.74585,164.81164 912.91595,164.81164 Q 920.08606,164.81164 924.34936,160.41915 Q 928.67726,155.96205 928.67726,148.79195 Q 928.67726,141.62184 924.22017,137.10016 Q 919.76308,132.57847 912.91595,132.57847 Z" style="font-style:normal;font-variant:normal;font-weight:normal;font-stretch:normal;font-size:132.29167175px;line-height:6.61458302px;font-family:Roboto;-inkscape-font-specification:Roboto;font-variant-ligatures:normal;font-variant-caps:normal;font-variant-numeric:normal;font-feature-settings:normal;text-align:start;writing-mode:lr-tb;text-anchor:start;fill:#424242;fill-opacity:1;fill-rule:nonzero;stroke:none;stroke-width:5.29166651;stroke-linecap:square;stroke-linejoin:miter;stroke-miterlimit:4;stroke-dasharray:5.2916666, 10.58333320000000022;stroke-dashoffset:0;stroke-opacity:1;paint-order:stroke fill markers" id="path2248" inkscape:connector-curvature="0" />
      <path d="M 984.10024,183.02759 H 952.57761 V 173.27366 H 984.10024 Z" style="font-style:normal;font-variant:normal;font-weight:normal;font-stretch:normal;font-size:132.29167175px;line-height:6.61458302px;font-family:Roboto;-inkscape-font-specification:Roboto;font-variant-ligatures:normal;font-variant-caps:normal;font-variant-numeric:normal;font-feature-settings:normal;text-align:start;writing-mode:lr-tb;text-anchor:start;fill:#424242;fill-opacity:1;fill-rule:nonzero;stroke:none;stroke-width:5.29166651;stroke-linecap:square;stroke-linejoin:miter;stroke-miterlimit:4;stroke-dasharray:5.2916666, 10.58333320000000022;stroke-dashoffset:0;stroke-opacity:1;paint-order:stroke fill markers" id="path2250" inkscape:connector-curvature="0" />
      <path d="M 1051.4734,148.59816 Q 1051.4734,155.63908 1047.7268,161.1297 Q 1044.0449,166.62032 1037.7145,169.7209 Q 1045.0784,172.88609 1049.3417,178.95807 Q 1053.6696,185.03005 1053.6696,192.71692 Q 1053.6696,204.92548 1045.4014,212.16018 Q 1037.1978,219.39488 1023.7619,219.39488 Q 1010.1968,219.39488 1001.9932,212.16018 Q 993.85416,204.86088 993.85416,192.71692 Q 993.85416,185.09464 997.98828,178.95807 Q 1002.187,172.82149 1009.5509,169.65631 Q 1003.2851,166.55572 999.66776,161.0651 Q 996.05041,155.57448 996.05041,148.59816 Q 996.05041,136.71258 1003.6727,129.73626 Q 1011.295,122.75995 1023.7619,122.75995 Q 1036.1642,122.75995 1043.7865,129.73626 Q 1051.4734,136.71258 1051.4734,148.59816 Z M 1041.7195,192.45854 Q 1041.7195,184.57788 1036.681,179.60402 Q 1031.7071,174.63017 1023.6327,174.63017 Q 1015.5583,174.63017 1010.649,179.53943 Q 1005.8043,184.44869 1005.8043,192.45854 Q 1005.8043,200.46838 1010.5198,205.05467 Q 1015.2999,209.64095 1023.7619,209.64095 Q 1032.1593,209.64095 1036.9394,205.05467 Q 1041.7195,200.40379 1041.7195,192.45854 Z M 1023.7619,132.57847 Q 1016.721,132.57847 1012.3285,136.97096 Q 1008.0006,141.29887 1008.0006,148.79195 Q 1008.0006,155.96205 1012.2639,160.41915 Q 1016.5918,164.81164 1023.7619,164.81164 Q 1030.932,164.81164 1035.1953,160.41915 Q 1039.5232,155.96205 1039.5232,148.79195 Q 1039.5232,141.62184 1035.0661,137.10016 Q 1030.609,132.57847 1023.7619,132.57847 Z" style="font-style:normal;font-variant:normal;font-weight:normal;font-stretch:normal;font-size:132.29167175px;line-height:6.61458302px;font-family:Roboto;-inkscape-font-specification:Roboto;font-variant-ligatures:normal;font-variant-caps:normal;font-variant-numeric:normal;font-feature-settings:normal;text-align:start;writing-mode:lr-tb;text-anchor:start;fill:#424242;fill-opacity:1;fill-rule:nonzero;stroke:none;stroke-width:5.29166651;stroke-linecap:square;stroke-linejoin:miter;stroke-miterlimit:4;stroke-dasharray:5.2916666, 10.58333320000000022;stroke-dashoffset:0;stroke-opacity:1;paint-order:stroke fill markers" id="path2252" inkscape:connector-curvature="0" />
      <path d="M 1115.7459,123.98726 V 134.12876 H 1113.5497 Q 1099.5971,134.38714 1091.3288,142.39699 Q 1083.0606,150.40684 1081.7687,164.94083 Q 1089.1972,156.41422 1102.0517,156.41422 Q 1114.3248,156.41422 1121.6241,165.07003 Q 1128.988,173.72583 1128.988,187.42008 Q 1128.988,201.95408 1121.0428,210.67448 Q 1113.1621,219.39488 1099.8554,219.39488 Q 1086.355,219.39488 1077.9576,209.05959 Q 1069.5601,198.65971 1069.5601,182.31704 V 177.73075 Q 1069.5601,151.76334 1080.606,138.06909 Q 1091.7164,124.31024 1113.6143,123.98726 Z M 1100.0492,166.36194 Q 1093.9127,166.36194 1088.745,170.04388 Q 1083.5774,173.72583 1081.5749,179.28105 V 183.67354 Q 1081.5749,195.30074 1086.8071,202.40625 Q 1092.0394,209.51176 1099.8554,209.51176 Q 1107.9299,209.51176 1112.5162,203.56897 Q 1117.1671,197.62618 1117.1671,188.00144 Q 1117.1671,178.31211 1112.4516,172.36932 Q 1107.8007,166.36194 1100.0492,166.36194 Z" style="font-style:normal;font-variant:normal;font-weight:normal;font-stretch:normal;font-size:132.29167175px;line-height:6.61458302px;font-family:Roboto;-inkscape-font-specification:Roboto;font-variant-ligatures:normal;font-variant-caps:normal;font-variant-numeric:normal;font-feature-settings:normal;text-align:start;writing-mode:lr-tb;text-anchor:start;fill:#424242;fill-opacity:1;fill-rule:nonzero;stroke:none;stroke-width:5.29166651;stroke-linecap:square;stroke-linejoin:miter;stroke-miterlimit:4;stroke-dasharray:5.2916666, 10.58333320000000022;stroke-dashoffset:0;stroke-opacity:1;paint-order:stroke fill markers" id="path2254" inkscape:connector-curvature="0" />
    </g>
  </g>
</svg>
