<?xml version="1.0" encoding="UTF-8" standalone="no"?>
<!-- Created with Inkscape (http://www.inkscape.org/) -->

<svg xmlns:dc="http://purl.org/dc/elements/1.1/" xmlns:cc="http://creativecommons.org/ns#" xmlns:rdf="http://www.w3.org/1999/02/22-rdf-syntax-ns#" xmlns:svg="http://www.w3.org/2000/svg" xmlns="http://www.w3.org/2000/svg" xmlns:sodipodi="http://sodipodi.sourceforge.net/DTD/sodipodi-0.dtd" xmlns:inkscape="http://www.inkscape.org/namespaces/inkscape" width="5080mm" height="905mm" viewBox="0 0 5080 905" version="1.1" id="svg8" inkscape:version="0.92.2 2405546, 2018-03-11" sodipodi:docname="banner1.svg">
  <defs id="defs2" />
  <sodipodi:namedview id="base" pagecolor="#898989" bordercolor="#666666" borderopacity="1.0" inkscape:pageopacity="0.67058824" inkscape:pageshadow="2" inkscape:zoom="0.02" inkscape:cx="18986.821" inkscape:cy="-9314.235" inkscape:document-units="mm" inkscape:current-layer="layer1" showgrid="false" inkscape:snap-bbox="true" inkscape:bbox-paths="true" inkscape:bbox-nodes="true" inkscape:snap-bbox-edge-midpoints="true" inkscape:snap-bbox-midpoints="true" inkscape:snap-page="true" inkscape:showpageshadow="false" inkscape:pagecheckerboard="true" showguides="false">
    <sodipodi:guide position="1215.4297,176.94011" orientation="0,19200" id="guide14773" inkscape:locked="false" />
    <sodipodi:guide position="5080,0" orientation="-3420.4724,0" id="guide14775" inkscape:locked="false" />
    <sodipodi:guide position="869.89452,728.38494" orientation="0,-19200" id="guide14777" inkscape:locked="false" />
    <sodipodi:guide position="947.53133,565.63054" orientation="3420.4724,0" id="guide14779" inkscape:locked="false" />
  </sodipodi:namedview>
  <metadata id="metadata5">
    <rdf:RDF>
      <cc:Work rdf:about="">
        <dc:format>image/svg+xml</dc:format>
        <dc:type rdf:resource="http://purl.org/dc/dcmitype/StillImage" />
        <dc:title></dc:title>
      </cc:Work>
    </rdf:RDF>
  </metadata>
  <g inkscape:label="Layer 1" inkscape:groupmode="layer" id="layer1" transform="translate(0,608)">
    <rect y="-608" x="2.7640858e-06" height="905" width="5080" id="rect14771" style="opacity:1;vector-effect:none;fill:white;fill-opacity:1;fill-rule:evenodd;stroke:none;stroke-width:1.41869628;stroke-linecap:butt;stroke-linejoin:miter;stroke-miterlimit:4;stroke-dasharray:none;stroke-dashoffset:0;stroke-opacity:1;paint-order:fill markers stroke" />
    <g id="g14765" transform="matrix(1.0111166,0,0,1.0111166,142.30628,38.577417)" style="stroke-width:0.98900563">
      <path d="M 451.59959,-516.8543 C 436.8478,-516.8543 422.09602,-516.8543 407.08315,-512.59843 C 281.36661,-492.13522 185.81944,-397.88051 156.14616,-280.77349 C 129.24439,-173.46406 160.39285,-59.627343 238.15956,18.57018 C 268.00254,45.201743 325.49534,45.201743 361.1346,-7.6696748 C 350.8214,35.149642 330.45611,58.778584 309.43808,71.833305 C 369.75069,104.99215 439.20156,116.87191 507.08587,105.51435 C 591.15799,91.806938 665.83074,43.765717 713.61085,-27.382248 C 762.30479,-99.574609 783.19227,-205.44801 754.60253,-288.86744 L 725.36006,-258.05837 C 735.93434,-216.28345 735.93434,-175.29171 726.92662,-135.99713 C 665.43909,-139.78301 511.9161,-63.674282 423.53595,-89.130879 C 489.8537,-32.343014 639.85193,-112.36819 697.03141,-59.496774 C 694.42048,-54.405439 691.1568,-49.444673 687.89314,-44.353338 C 683.71564,-37.434349 679.01596,-30.907066 674.31627,-24.640765 C 633.84678,-106.23254 506.30259,-10.019528 414.65877,-87.303224 C 288.5506,23.269886 168.74784,-72.159788 155.654,-221.24422 C 164.33797,-357.14336 264.81981,-468.96971 397.94878,-490.94075 C 460.61123,-501.37144 518.83508,-492.16792 571.57597,-466.29355 L 626.79725,-462.42932 C 623.53359,-466.29355 624.7085,-465.8366 622.88085,-466.99845 C 572.22871,-501.00588 512.30775,-518.4052 451.47296,-516.83471 Z" id="path871" inkscape:connector-curvature="0" style="fill:#424242;fill-opacity:1;stroke-width:0.26167434" />
      <path d="M 574.05245,-453.45423 C 506.95141,-453.45423 515.04531,-369.29073 538.54373,-316.28874 C 562.43379,-261.4591 622.74639,-195.40247 668.04611,-254.93182 C 722.48411,-324.64376 782.01343,-390.28269 845.98135,-451.13053 C 754.59862,-444.77291 633.19013,-450.32112 574.05245,-453.45423 Z M 801.07326,-436.07848 L 584.36564,-358.45537 C 539.19646,-342.13704 536.45498,-411.19629 597.28977,-415.59568 C 677.44548,-421.35282 723.39794,-427.95846 801.07326,-436.07848 Z M 807.99224,-427.95846 L 631.49302,-294.35688 C 600.1618,-269.16142 583.974,-298.53439 608.12515,-313.15563 L 807.99224,-428.33705 Z M 471.57324,-353.75566 C 467.52629,-353.75566 463.87098,-352.9724 458.51857,-351.40589 C 438.67546,-342.3981 435.80343,-307.4116 450.29412,-274.25268 C 464.91535,-241.3549 492.72182,-221.6424 512.43438,-230.51954 C 532.27749,-239.39675 536.58552,-273.07779 521.96429,-305.84501 C 510.08454,-332.8682 493.11345,-354.40843 471.57324,-353.75566 Z M 303.29847,-299.70936 C 275.43979,-287.3074 271.22313,-236.0025 293.8991,-184.56711 C 316.48369,-133.65384 357.47538,-101.93102 385.28183,-114.33297 C 409.95517,-125.03776 415.96032,-166.81276 401.33908,-211.5903 L 378.88504,-201.92983 C 384.10692,-179.60634 380.05996,-159.89377 367.52748,-154.41081 C 351.86187,-147.49182 328.62454,-165.24617 315.70041,-194.22758 C 293.76855,-243.83532 312.43674,-279.34402 340.76539,-269.94468 C 340.76539,-269.94468 354.4728,-275.81928 362.43615,-278.03856 C 347.55382,-293.182 332.80204,-302.1897 321.70556,-302.84247 C 314.91713,-303.2341 309.69526,-302.1897 303.29847,-299.70936 Z M 401.73073,-276.99416 L 324.57759,-245.66297 C 323.40267,-241.7466 323.01103,-240.18001 322.61939,-236.78576 C 321.83611,-227.12537 324.18595,-215.50667 329.53837,-203.10472 H 330.32165 L 414.7854,-240.57164 C 442.85295,-252.97359 428.62336,-285.21861 401.73073,-276.99416 Z M 270.19181,-223.47006 L 167.36013,-181.56449 C 169.54026,-169.94587 175.38875,-152.97478 182.97352,-141.74779 L 283.58591,-182.86995 C 280.71388,-189.52788 272.80274,-210.67647 270.19181,-223.47006 Z" id="path873" inkscape:connector-curvature="0" style="fill:#f13535;fill-opacity:1;stroke-width:0.26167434" />
    </g>
    <g id="g14788" transform="matrix(1.0668905,0,0,1.0668905,79.027871,40.497394)" style="stroke-width:0.9373033">
      <g id="g14769" transform="matrix(14.908441,0,0,14.908441,115.5443,-654.84024)" style="stroke-width:0.01899663">
        <path d="M 115.9,29.13 C 116.7,29.12 117.4,28.98 118.1,28.7 C 118.7,28.42 119.2,28.04 119.7,27.56 C 120.2,27.08 120.5,26.52 120.8,25.89 C 121,25.26 121.1,24.58 121.1,23.85 C 121.1,23.14 121,22.46 120.8,21.83 C 120.5,21.19 120.2,20.64 119.7,20.17 C 119.2,19.69 118.7,19.31 118.1,19.03 C 117.4,18.75 116.7,18.6 115.9,18.59 Z M 113.7,18.59 C 112.9,18.6 112.2,18.74 111.5,19.02 C 110.9,19.3 110.4,19.68 109.9,20.16 C 109.4,20.63 109.1,21.19 108.8,21.83 C 108.6,22.46 108.5,23.14 108.5,23.85 C 108.5,24.58 108.6,25.26 108.8,25.89 C 109.1,26.52 109.4,27.08 109.9,27.56 C 110.4,28.04 110.9,28.42 111.5,28.7 C 112.2,28.98 112.9,29.12 113.7,29.13 Z M 115.9,16.72 C 117,16.75 118.1,16.95 119,17.34 C 119.9,17.72 120.7,18.23 121.4,18.88 C 122.1,19.53 122.6,20.28 123,21.13 C 123.3,21.98 123.5,22.89 123.5,23.85 C 123.5,24.82 123.3,25.74 123,26.6 C 122.6,27.45 122.1,28.21 121.4,28.86 C 120.7,29.5 119.9,30.01 119,30.4 C 118.1,30.79 117,30.99 115.9,31.02 V 33.16 H 113.7 V 31.02 C 112.6,30.99 111.5,30.79 110.6,30.4 C 109.7,30.01 108.9,29.5 108.2,28.86 C 107.5,28.21 107,27.45 106.6,26.6 C 106.3,25.74 106.1,24.82 106.1,23.85 C 106.1,22.89 106.3,21.98 106.6,21.13 C 107,20.28 107.5,19.53 108.2,18.88 C 108.9,18.23 109.7,17.72 110.6,17.34 C 111.5,16.95 112.6,16.75 113.7,16.72 V 15.44 H 115.9 Z M 104,24.31 C 104,25.64 103.8,26.86 103.3,27.97 C 102.9,29.07 102.3,30.02 101.5,30.82 C 100.8,31.62 99.86,32.24 98.78,32.69 C 97.71,33.12 96.52,33.34 95.22,33.34 C 93.92,33.34 92.73,33.12 91.66,32.69 C 90.59,32.24 89.67,31.62 88.9,30.82 C 88.13,30.02 87.54,29.07 87.12,27.97 C 86.7,26.86 86.49,25.64 86.49,24.31 C 86.49,22.98 86.7,21.77 87.12,20.66 C 87.54,19.55 88.13,18.6 88.9,17.8 C 89.67,16.99 90.59,16.37 91.66,15.92 C 92.73,15.47 93.92,15.25 95.22,15.25 C 96.52,15.25 97.71,15.47 98.78,15.92 C 99.86,16.37 100.8,16.99 101.5,17.8 C 102.3,18.6 102.9,19.55 103.3,20.66 C 103.8,21.77 104,22.98 104,24.31 Z M 101.5,24.31 C 101.5,23.22 101.4,22.25 101.1,21.38 C 100.8,20.51 100.3,19.78 99.79,19.19 C 99.24,18.59 98.58,18.13 97.81,17.81 C 97.04,17.49 96.17,17.33 95.22,17.33 C 94.27,17.33 93.41,17.49 92.63,17.81 C 91.86,18.13 91.2,18.59 90.65,19.19 C 90.1,19.78 89.68,20.51 89.38,21.38 C 89.09,22.25 88.94,23.22 88.94,24.31 C 88.94,25.4 89.09,26.37 89.38,27.24 C 89.68,28.09 90.1,28.82 90.65,29.43 C 91.2,30.02 91.86,30.48 92.63,30.8 C 93.41,31.11 94.27,31.27 95.22,31.27 C 96.17,31.27 97.04,31.11 97.81,30.8 C 98.58,30.48 99.24,30.02 99.79,29.43 C 100.3,28.82 100.8,28.09 101.1,27.24 C 101.4,26.37 101.5,25.4 101.5,24.31 Z M 78,24.63 C 78.69,24.63 79.29,24.54 79.8,24.36 C 80.33,24.18 80.77,23.93 81.13,23.61 C 81.49,23.28 81.76,22.88 81.94,22.43 C 82.12,21.98 82.21,21.48 82.21,20.94 C 82.21,19.81 81.86,18.92 81.16,18.29 C 80.47,17.66 79.42,17.34 78,17.34 H 75.16 V 24.63 Z M 78,15.45 C 79.12,15.45 80.09,15.58 80.92,15.84 C 81.75,16.1 82.43,16.47 82.98,16.94 C 83.53,17.42 83.93,18 84.19,18.67 C 84.46,19.35 84.6,20.11 84.6,20.94 C 84.6,21.76 84.46,22.51 84.17,23.2 C 83.88,23.88 83.45,24.47 82.89,24.97 C 82.34,25.46 81.66,25.85 80.83,26.13 C 80.02,26.4 79.07,26.53 78,26.53 H 75.16 V 33.16 H 72.77 V 15.45 Z M 68.23,33.16 H 65.82 V 17.34 H 56.97 V 33.16 H 54.57 V 15.45 H 68.23 Z" id="path875" inkscape:connector-curvature="0" style="fill:#f13535;fill-opacity:1;stroke-width:0.01899663" />
        <path d="M 211.8,17.11 Q 212.8,16.23 214.1,15.76 Q 215.4,15.29 217.1,15.29 Q 218.5,15.29 219.6,15.62 Q 220.7,15.95 221.4,16.56 Q 222.2,17.16 222.6,17.99 Q 223,18.82 223,19.81 Q 223,21.14 222.4,22.16 Q 221.7,23.17 220.5,23.73 Q 221.2,24.01 221.7,24.43 Q 222.3,24.84 222.7,25.36 Q 223.1,25.88 223.3,26.5 Q 223.5,27.11 223.5,27.79 Q 223.5,28.95 223.1,29.97 Q 222.7,30.98 221.8,31.74 Q 221,32.48 219.8,32.91 Q 218.6,33.34 217.1,33.34 Q 215.2,33.34 213.7,32.72 Q 212.1,32.09 211.1,31.03 L 211.7,29.89 Q 211.8,29.76 212,29.67 Q 212.1,29.57 212.3,29.57 Q 212.6,29.57 212.9,29.86 Q 213.3,30.13 213.8,30.46 Q 214.4,30.8 215.2,31.08 Q 216,31.35 217.1,31.35 Q 218.1,31.35 218.9,31.12 Q 219.7,30.88 220.2,30.44 Q 220.7,29.99 221,29.35 Q 221.3,28.71 221.3,27.9 Q 221.3,27.21 221,26.63 Q 220.7,26.05 220.2,25.64 Q 219.7,25.22 219,25 Q 218.3,24.77 217.4,24.77 H 214.9 V 22.8 H 217.3 Q 218,22.8 218.7,22.61 Q 219.3,22.43 219.8,22.07 Q 220.2,21.71 220.5,21.19 Q 220.8,20.67 220.8,20.01 Q 220.8,19.4 220.5,18.89 Q 220.3,18.39 219.8,18.03 Q 219.3,17.66 218.7,17.46 Q 218,17.26 217.1,17.26 Q 216.1,17.26 215.4,17.47 Q 214.7,17.68 214.2,17.94 Q 213.7,18.19 213.4,18.4 Q 213.1,18.61 212.9,18.61 Q 212.7,18.61 212.6,18.52 Q 212.5,18.44 212.4,18.24 Z M 208.3,15.46 V 33.17 H 205.9 V 20.59 Q 205.9,20.06 205.9,19.49 Q 205.9,18.91 206,18.26 Q 205.8,18.82 205.6,19.3 Q 205.3,19.78 205.1,20.14 L 196.8,32.42 Q 196.6,32.7 196.3,32.93 Q 196.1,33.17 195.7,33.17 H 193.9 V 15.46 H 196.3 V 28.05 Q 196.3,28.58 196.3,29.16 Q 196.3,29.73 196.2,30.39 Q 196.4,29.82 196.6,29.34 Q 196.9,28.86 197.1,28.49 L 205.4,16.21 Q 205.6,15.93 205.9,15.69 Q 206.1,15.46 206.5,15.46 Z M 189.4,15.46 V 33.17 H 187 V 25.11 H 177.4 V 33.17 H 175 V 15.46 H 177.4 V 23.36 H 187 V 15.46 Z M 165.5,24.64 Q 166.5,24.64 167.3,24.37 Q 168,24.1 168.6,23.62 Q 169.1,23.12 169.4,22.44 Q 169.7,21.76 169.7,20.95 Q 169.7,19.25 168.6,18.3 Q 167.6,17.35 165.5,17.35 H 162.6 V 24.64 Z M 165.5,15.46 Q 167.1,15.46 168.4,15.85 Q 169.6,16.24 170.4,16.95 Q 171.2,17.67 171.6,18.68 Q 172.1,19.7 172.1,20.95 Q 172.1,22.18 171.6,23.21 Q 171.2,24.23 170.3,24.98 Q 169.5,25.72 168.3,26.14 Q 167.1,26.54 165.5,26.54 H 162.6 V 33.17 H 160.2 V 15.46 Z M 152.9,26.59 L 150.1,19.39 Q 150,19.07 149.9,18.65 Q 149.7,18.21 149.6,17.73 Q 149.3,18.73 149.1,19.4 L 146.3,26.59 Z M 157.9,33.17 H 156 Q 155.7,33.17 155.5,33.01 Q 155.3,32.85 155.2,32.6 L 153.6,28.32 H 145.6 L 144,32.6 Q 143.9,32.82 143.7,33 Q 143.5,33.17 143.1,33.17 H 141.3 L 148.4,15.46 H 150.8 Z M 141.1,33.17 H 138.9 Q 138.6,33.17 138.3,32.98 Q 138.1,32.79 137.9,32.42 L 133.2,25.93 Q 132.9,25.44 132.5,25.26 Q 132.1,25.06 131.5,25.06 H 129.3 V 33.17 H 127 V 15.46 H 129.3 V 23.22 H 131.2 Q 131.7,23.22 132.1,23.05 Q 132.5,22.87 132.9,22.37 L 137.5,16.14 Q 137.7,15.84 138,15.66 Q 138.3,15.46 138.6,15.46 H 140.6 L 135.3,22.74 Q 134.7,23.59 133.7,23.91 Q 134.4,24.09 134.8,24.47 Q 135.3,24.84 135.7,25.51 Z" id="path877" inkscape:connector-curvature="0" style="fill:#424242;fill-opacity:1;stroke-width:0.01899663" />
      </g>
    </g>
    <g id="g15598">
      <g id="text14811" style="font-style:normal;font-variant:normal;font-weight:normal;font-stretch:normal;font-size:46.71799088px;line-height:8.11076164px;font-family:Roboto;-inkscape-font-specification:Roboto;font-variant-ligatures:normal;font-variant-caps:normal;font-variant-numeric:normal;font-feature-settings:normal;text-align:start;writing-mode:lr-tb;text-anchor:start;opacity:1;fill:#424242;fill-opacity:1;fill-rule:nonzero;stroke:none;stroke-width:5.29166651;stroke-linecap:square;stroke-linejoin:miter;stroke-miterlimit:4;stroke-dasharray:5.2916665, 10.58333297000000073;stroke-dashoffset:0;stroke-opacity:1;paint-order:stroke fill markers" aria-label="карнизы, шторы, жалюзи">
        <path id="path15517" style="font-size:227.10134888px;fill:#424242;fill-opacity:1;stroke:none;stroke-width:5.29166651" d="M 1104.0638,53.521407 H 1089.0937 V 104.64139 H 1068.4683 V -15.340868 H 1089.0937 V 35.446446 H 1102.5113 L 1142.875,-15.340868 H 1167.7142 L 1120.2536,42.321584 L 1171.7063,104.64139 H 1145.6473 Z" />
        <path id="path15519" style="font-size:227.10134888px;fill:#424242;fill-opacity:1;stroke:none;stroke-width:5.29166651" d="M 1263.6335,104.64139 Q 1261.8593,101.09293 1260.7504,92.000004 Q 1246.4457,106.85917 1226.5965,106.85917 Q 1208.8542,106.85917 1197.4326,96.879135 Q 1186.1219,86.788206 1186.1219,71.374589 Q 1186.1219,52.634292 1200.3157,42.321584 Q 1214.6204,31.897987 1240.4576,31.897987 H 1260.4177 V 22.472394 Q 1260.4177,11.716129 1253.9861,5.3954371 Q 1247.5546,-1.036144 1235.0241,-1.036144 Q 1224.046,-1.036144 1216.6164,4.5083225 Q 1209.1869,10.052789 1209.1869,17.925931 H 1188.5614 Q 1188.5614,8.9438957 1194.8821,0.62719592 Q 1201.3137,-7.8003932 1212.1809,-12.679524 Q 1223.1589,-17.558654 1236.2438,-17.558654 Q 1256.9802,-17.558654 1268.7344,-7.1350572 Q 1280.4887,3.1776505 1280.9322,21.363501 V 76.586387 Q 1280.9322,93.108898 1285.146,102.86716 V 104.64139 Z M 1229.5905,89.005992 Q 1239.2379,89.005992 1247.8872,84.015972 Q 1256.5366,79.025953 1260.4177,71.041921 V 46.424489 H 1244.3388 Q 1206.6364,46.424489 1206.6364,68.491466 Q 1206.6364,78.138838 1213.068,83.572415 Q 1219.4996,89.005992 1229.5905,89.005992 Z" />
        <path id="path15521" style="font-size:227.10134888px;fill:#424242;fill-opacity:1;stroke:none;stroke-width:5.29166651" d="M 1414.6648,45.980932 Q 1414.6648,73.370597 1402.1343,90.114886 Q 1389.6038,106.85917 1368.2022,106.85917 Q 1346.357,106.85917 1333.8265,92.998008 V 150.77135 H 1313.3119 V -15.340868 H 1332.0522 L 1333.0502,-2.034148 Q 1345.5807,-17.558654 1367.8695,-17.558654 Q 1389.4929,-17.558654 1402.0234,-1.2579227 Q 1414.6648,15.042809 1414.6648,44.095813 Z M 1394.1503,43.652256 Q 1394.1503,23.359509 1385.5009,11.60524 Q 1376.8515,-0.14902939 1361.7706,-0.14902939 Q 1343.1412,-0.14902939 1333.8265,16.373481 V 73.703265 Q 1343.0303,90.114886 1361.9924,90.114886 Q 1376.7406,90.114886 1385.39,78.471506 Q 1394.1503,66.717237 1394.1503,43.652256 Z" />
        <path id="path15523" style="font-size:227.10134888px;fill:#424242;fill-opacity:1;stroke:none;stroke-width:5.29166651" d="M 1538.6391,104.64139 H 1518.1245 V 53.410517 H 1463.0125 V 104.64139 H 1442.3871 V -15.340868 H 1463.0125 V 36.666228 H 1518.1245 V -15.340868 H 1538.6391 Z" />
        <path id="path15525" style="font-size:227.10134888px;fill:#424242;fill-opacity:1;stroke:none;stroke-width:5.29166651" d="M 1649.0848,-15.340868 H 1669.5994 V 104.64139 H 1649.0848 V 17.149706 L 1593.7511,104.64139 H 1573.2365 V -15.340868 H 1593.7511 V 72.261703 Z" />
        <path id="path15527" style="font-size:227.10134888px;fill:#424242;fill-opacity:1;stroke:none;stroke-width:5.29166651" d="M 1768.7344,17.482374 Q 1768.7344,9.054785 1762.3029,4.1756545 Q 1755.8713,-0.81436537 1744.6714,-0.81436537 Q 1733.8043,-0.81436537 1726.4856,4.8409905 Q 1719.2778,10.496346 1719.2778,18.14771 H 1698.8742 Q 1698.8742,2.5123145 1711.9591,-7.4677252 Q 1725.044,-17.447765 1744.6714,-17.447765 Q 1765.7404,-17.447765 1777.4947,-8.3548398 Q 1789.249,0.62719592 1789.249,17.371485 Q 1789.249,25.466406 1784.3698,32.230655 Q 1779.4907,38.994904 1770.5087,42.98692 Q 1791.4667,50.083837 1791.4667,70.931031 Q 1791.4667,87.453542 1778.7145,97.100913 Q 1765.9622,106.74829 1744.6714,106.74829 Q 1723.9351,106.74829 1710.4066,96.657356 Q 1696.989,86.455538 1696.989,69.156802 H 1717.3927 Q 1717.3927,77.917059 1725.1549,84.237751 Q 1733.0281,90.447554 1744.6714,90.447554 Q 1756.4257,90.447554 1763.6335,85.013976 Q 1770.8413,79.580399 1770.8413,70.931031 Q 1770.8413,60.840102 1764.7424,56.515418 Q 1758.7544,52.079845 1746.0021,52.079845 H 1725.4876 V 34.78111 H 1747.7763 Q 1768.7344,34.226663 1768.7344,17.482374 Z" />
        <path id="path15529" style="font-size:227.10134888px;fill:#424242;fill-opacity:1;stroke:none;stroke-width:5.29166651" d="M 1840.4798,26.020853 H 1871.6397 Q 1892.0434,26.242631 1903.9085,36.666228 Q 1915.7737,47.089825 1915.7737,64.943008 Q 1915.7737,82.907079 1903.5758,93.774234 Q 1891.378,104.64139 1870.7526,104.64139 H 1819.9653 V -15.340868 H 1840.4798 Z M 1958.577,104.64139 H 1937.9515 V -15.340868 H 1958.577 Z M 1840.4798,42.765142 V 87.897099 H 1870.9744 Q 1882.5069,87.897099 1888.8276,82.019965 Q 1895.1483,76.031941 1895.1483,65.719233 Q 1895.1483,55.739193 1888.9385,49.418501 Q 1882.8395,42.98692 1871.7506,42.765142 Z" />
        <path id="path15531" style="font-size:227.10134888px;fill:#424242;fill-opacity:1;stroke:none;stroke-width:5.29166651" d="M 1993.9507,136.79929 L 1982.3073,128.81526 Q 1992.7309,114.28876 1993.1744,98.875143 V 80.356625 H 2013.2454 V 96.435577 Q 2013.2454,107.6354 2007.7009,118.83522 Q 2002.2674,130.03504 1993.9507,136.79929 Z" />
        <path id="path15533" style="font-size:227.10134888px;fill:#424242;fill-opacity:1;stroke:none;stroke-width:5.29166651" d="M 2118.1467,-15.340868 V 87.897099 H 2162.0589 V -15.340868 H 2182.5734 V 87.897099 H 2226.3747 V -15.340868 H 2247.0001 V 104.64139 H 2097.5213 V -15.340868 Z" />
        <path id="path15535" style="font-size:227.10134888px;fill:#424242;fill-opacity:1;stroke:none;stroke-width:5.29166651" d="M 2368.5348,1.2925319 H 2328.2819 V 104.64139 H 2307.7674 V 1.2925319 H 2268.2908 V -15.340868 H 2368.5348 Z" />
        <path id="path15537" style="font-size:227.10134888px;fill:#424242;fill-opacity:1;stroke:none;stroke-width:5.29166651" d="M 2383.0613,43.541367 Q 2383.0613,25.909963 2389.9364,11.827018 Q 2396.9224,-2.2559267 2409.2311,-9.9072905 Q 2421.6508,-17.558654 2437.5079,-17.558654 Q 2462.0145,-17.558654 2477.0954,-0.59258671 Q 2492.2873,16.373481 2492.2873,44.539371 V 45.980932 Q 2492.2873,63.501446 2485.523,77.473502 Q 2478.8696,91.334668 2466.3392,99.096921 Q 2453.9195,106.85917 2437.7297,106.85917 Q 2413.3341,106.85917 2398.1422,89.893107 Q 2383.0613,72.927039 2383.0613,44.982928 Z M 2403.6867,45.980932 Q 2403.6867,65.941012 2412.8905,78.027949 Q 2422.2052,90.114886 2437.7297,90.114886 Q 2453.3651,90.114886 2462.5689,77.917059 Q 2471.7727,65.608344 2471.7727,43.541367 Q 2471.7727,23.803066 2462.3471,11.60524 Q 2453.0324,-0.70347604 2437.5079,-0.70347604 Q 2422.3161,-0.70347604 2413.0014,11.383461 Q 2403.6867,23.470398 2403.6867,45.980932 Z" />
        <path id="path15539" style="font-size:227.10134888px;fill:#424242;fill-opacity:1;stroke:none;stroke-width:5.29166651" d="M 2619.3665,45.980932 Q 2619.3665,73.370597 2606.836,90.114886 Q 2594.3055,106.85917 2572.9039,106.85917 Q 2551.0587,106.85917 2538.5282,92.998008 V 150.77135 H 2518.0136 V -15.340868 H 2536.7539 L 2537.7519,-2.034148 Q 2550.2824,-17.558654 2572.5712,-17.558654 Q 2594.1946,-17.558654 2606.7251,-1.2579227 Q 2619.3665,15.042809 2619.3665,44.095813 Z M 2598.852,43.652256 Q 2598.852,23.359509 2590.2026,11.60524 Q 2581.5532,-0.14902939 2566.4723,-0.14902939 Q 2547.8429,-0.14902939 2538.5282,16.373481 V 73.703265 Q 2547.732,90.114886 2566.6941,90.114886 Q 2581.4423,90.114886 2590.0917,78.471506 Q 2598.852,66.717237 2598.852,43.652256 Z" />
        <path id="path15541" style="font-size:227.10134888px;fill:#424242;fill-opacity:1;stroke:none;stroke-width:5.29166651" d="M 2667.7142,26.020853 H 2698.8741 Q 2719.2777,26.242631 2731.1429,36.666228 Q 2743.008,47.089825 2743.008,64.943008 Q 2743.008,82.907079 2730.8102,93.774234 Q 2718.6124,104.64139 2697.987,104.64139 H 2647.1997 V -15.340868 H 2667.7142 Z M 2785.8113,104.64139 H 2765.1859 V -15.340868 H 2785.8113 Z M 2667.7142,42.765142 V 87.897099 H 2698.2088 Q 2709.7412,87.897099 2716.0619,82.019965 Q 2722.3826,76.031941 2722.3826,65.719233 Q 2722.3826,55.739193 2716.1728,49.418501 Q 2710.0739,42.98692 2698.985,42.765142 Z" />
        <path id="path15543" style="font-size:227.10134888px;fill:#424242;fill-opacity:1;stroke:none;stroke-width:5.29166651" d="M 2821.1851,136.79929 L 2809.5417,128.81526 Q 2819.9653,114.28876 2820.4089,98.875143 V 80.356625 H 2840.4798 V 96.435577 Q 2840.4798,107.6354 2834.9354,118.83522 Q 2829.5018,130.03504 2821.1851,136.79929 Z" />
        <path id="path15545" style="font-size:227.10134888px;fill:#424242;fill-opacity:1;stroke:none;stroke-width:5.29166651" d="M 3018.6789,52.523403 H 3004.2633 V 104.64139 H 2983.7488 V 52.523403 H 2969.3332 L 2935.7337,104.64139 H 2909.7856 L 2952.6998,42.543363 L 2913.8885,-15.340868 H 2938.7277 L 2969.6658,34.337552 H 2983.7488 V -15.340868 H 3004.2633 V 34.337552 H 3018.2354 L 3049.3953,-15.340868 H 3074.2345 L 3035.3123,42.654252 L 3078.2265,104.64139 H 3052.2784 Z" />
        <path id="path15547" style="font-size:227.10134888px;fill:#424242;fill-opacity:1;stroke:none;stroke-width:5.29166651" d="M 3170.93,104.64139 Q 3169.1558,101.09293 3168.0469,92.000004 Q 3153.7422,106.85917 3133.893,106.85917 Q 3116.1507,106.85917 3104.7291,96.879135 Q 3093.4184,86.788206 3093.4184,71.374589 Q 3093.4184,52.634292 3107.6122,42.321584 Q 3121.9169,31.897987 3147.7541,31.897987 H 3167.7142 V 22.472394 Q 3167.7142,11.716129 3161.2826,5.3954371 Q 3154.851,-1.036144 3142.3206,-1.036144 Q 3131.3425,-1.036144 3123.9129,4.5083225 Q 3116.4833,10.052789 3116.4833,17.925931 H 3095.8579 Q 3095.8579,8.9438957 3102.1786,0.62719592 Q 3108.6102,-7.8003932 3119.4774,-12.679524 Q 3130.4554,-17.558654 3143.5403,-17.558654 Q 3164.2766,-17.558654 3176.0309,-7.1350572 Q 3187.7852,3.1776505 3188.2287,21.363501 V 76.586387 Q 3188.2287,93.108898 3192.4425,102.86716 V 104.64139 Z M 3136.887,89.005992 Q 3146.5343,89.005992 3155.1837,84.015972 Q 3163.8331,79.025953 3167.7142,71.041921 V 46.424489 H 3151.6353 Q 3113.9329,46.424489 3113.9329,68.491466 Q 3113.9329,78.138838 3120.3645,83.572415 Q 3126.796,89.005992 3136.887,89.005992 Z" />
        <path id="path15549" style="font-size:227.10134888px;fill:#424242;fill-opacity:1;stroke:none;stroke-width:5.29166651" d="M 3318.9672,-15.340868 V 104.64139 H 3298.3418 V 1.6251999 H 3257.5345 L 3255.095,46.535379 Q 3253.0989,77.473502 3244.6714,90.780222 Q 3236.3547,104.08694 3218.1688,104.64139 H 3209.963 V 86.566427 L 3215.8401,86.12287 Q 3225.8202,85.013976 3230.1449,74.590379 Q 3234.4695,64.166782 3235.6893,36.000892 L 3237.9071,-15.340868 Z" />
        <path id="path15551" style="font-size:227.10134888px;fill:#424242;fill-opacity:1;stroke:none;stroke-width:5.29166651" d="M 3374.301,35.557335 H 3403.1322 Q 3405.4609,11.60524 3420.0983,-2.9212627 Q 3434.8466,-17.558654 3457.2462,-17.558654 Q 3480.7547,-17.558654 3495.7248,-1.70148 Q 3510.6949,14.155694 3511.9146,39.549351 L 3512.0255,45.980932 Q 3512.0255,63.501446 3505.1504,77.584391 Q 3498.2753,91.667336 3485.8556,99.3187 Q 3473.436,106.85917 3457.468,106.85917 Q 3434.2921,106.85917 3419.5438,91.778226 Q 3404.7955,76.586387 3403.0213,52.412513 H 3374.301 V 104.64139 H 3353.7865 V -15.340868 H 3374.301 Z M 3423.3141,45.980932 Q 3423.3141,65.941012 3432.5179,78.027949 Q 3441.8326,90.114886 3457.468,90.114886 Q 3473.1034,90.114886 3482.1963,77.80617 Q 3491.4001,65.497454 3491.4001,43.541367 Q 3491.4001,23.913955 3482.0854,11.60524 Q 3472.7707,-0.70347604 3457.2462,-0.70347604 Q 3441.9435,-0.70347604 3432.6288,11.383461 Q 3423.3141,23.470398 3423.3141,45.980932 Z" />
        <path id="path15553" style="font-size:227.10134888px;fill:#424242;fill-opacity:1;stroke:none;stroke-width:5.29166651" d="M 3603.2875,17.482374 Q 3603.2875,9.054785 3596.8559,4.1756545 Q 3590.4243,-0.81436537 3579.2245,-0.81436537 Q 3568.3573,-0.81436537 3561.0386,4.8409905 Q 3553.8308,10.496346 3553.8308,18.14771 H 3533.4272 Q 3533.4272,2.5123145 3546.5121,-7.4677252 Q 3559.5971,-17.447765 3579.2245,-17.447765 Q 3600.2935,-17.447765 3612.0477,-8.3548398 Q 3623.802,0.62719592 3623.802,17.371485 Q 3623.802,25.466406 3618.9229,32.230655 Q 3614.0437,38.994904 3605.0617,42.98692 Q 3626.0198,50.083837 3626.0198,70.931031 Q 3626.0198,87.453542 3613.2675,97.100913 Q 3600.5152,106.74829 3579.2245,106.74829 Q 3558.4882,106.74829 3544.9597,96.657356 Q 3531.5421,86.455538 3531.5421,69.156802 H 3551.9457 Q 3551.9457,77.917059 3559.708,84.237751 Q 3567.5811,90.447554 3579.2245,90.447554 Q 3590.9788,90.447554 3598.1866,85.013976 Q 3605.3944,79.580399 3605.3944,70.931031 Q 3605.3944,60.840102 3599.2955,56.515418 Q 3593.3074,52.079845 3580.5552,52.079845 H 3560.0406 V 34.78111 H 3582.3294 Q 3603.2875,34.226663 3603.2875,17.482374 Z" />
        <path id="path15555" style="font-size:227.10134888px;fill:#424242;fill-opacity:1;stroke:none;stroke-width:5.29166651" d="M 3730.2558,-15.340868 H 3750.7703 V 104.64139 H 3730.2558 V 17.149706 L 3674.922,104.64139 H 3654.4075 V -15.340868 H 3674.922 V 72.261703 Z" />
      </g>
    </g>
    <rect style="opacity:1;vector-effect:none;fill:#424242;fill-opacity:1;fill-rule:evenodd;stroke:none;stroke-width:1.41869628;stroke-linecap:butt;stroke-linejoin:miter;stroke-miterlimit:4;stroke-dasharray:none;stroke-dashoffset:0;stroke-opacity:1;paint-order:fill markers stroke" id="rect14813" width="906.0603" height="905" x="4173.9399" y="-608" />
    <g id="g15575">
      <g id="text14821" style="font-style:normal;font-variant:normal;font-weight:normal;font-stretch:normal;font-size:228.25726318px;line-height:8.1520443px;font-family:Roboto;-inkscape-font-specification:Roboto;font-variant-ligatures:normal;font-variant-caps:normal;font-variant-numeric:normal;font-feature-settings:normal;text-align:start;writing-mode:lr-tb;text-anchor:start;opacity:1;fill:white;fill-opacity:1;fill-rule:nonzero;stroke:none;stroke-width:5.29166651;stroke-linecap:square;stroke-linejoin:miter;stroke-miterlimit:4;stroke-dasharray:5.29166667, 10.58333333999999937;stroke-dashoffset:0;stroke-opacity:1;paint-order:stroke fill markers" aria-label="этаж">
        <path id="path15558" style="fill:white;fill-opacity:1;stroke-width:5.29166651" d="M 4428.6586,9.2051117 Q 4417.6247,9.2051117 4409.4885,16.226697 Q 4401.4639,23.248283 4401.4639,32.833305 H 4381.848 Q 4381.848,22.468107 4388.4238,12.994539 Q 4394.9996,3.5209709 4405.922,-2.0517162 Q 4416.8445,-7.7358571 4428.6586,-7.7358571 Q 4452.1753,-7.7358571 4466.6643,9.3165654 Q 4481.2647,26.257534 4481.2647,53.675155 V 57.130221 Q 4481.2647,74.071189 4474.5775,88.114361 Q 4468.0018,102.04608 4455.9647,109.73639 Q 4444.0392,117.31524 4428.6586,117.31524 Q 4408.5969,117.31524 4395.2225,104.83242 Q 4381.848,92.349603 4381.848,73.736828 H 4401.4639 Q 4401.4639,85.10511 4409.3771,92.906872 Q 4417.2903,100.59718 4428.6586,100.59718 Q 4441.9216,100.59718 4450.5035,90.343436 Q 4459.0855,80.089691 4460.4229,62.145639 H 4415.1727 V 45.20467 H 4460.2 Q 4458.6396,28.932424 4450.2806,19.124495 Q 4441.9216,9.2051117 4428.6586,9.2051117 Z" />
        <path id="path15560" style="fill:white;fill-opacity:1;stroke-width:5.29166651" d="M 4598.5141,11.211279 H 4558.0564 V 115.08617 H 4537.4374 V 11.211279 H 4497.7599 V -5.5067822 H 4598.5141 Z" />
        <path id="path15562" style="fill:white;fill-opacity:1;stroke-width:5.29166651" d="M 4693.0269,115.08617 Q 4691.2436,111.51965 4690.1291,102.38044 Q 4675.7515,117.31524 4655.8013,117.31524 Q 4637.9687,117.31524 4626.489,107.2844 Q 4615.1207,97.142114 4615.1207,81.650044 Q 4615.1207,62.814361 4629.3868,52.449163 Q 4643.7643,41.972512 4669.733,41.972512 H 4689.7947 V 32.498944 Q 4689.7947,21.687931 4683.3304,15.335067 Q 4676.8661,8.8707505 4664.2718,8.8707505 Q 4653.2379,8.8707505 4645.7705,14.443438 Q 4638.3031,20.016125 4638.3031,27.92934 H 4617.5727 Q 4617.5727,18.901587 4623.9255,10.542557 Q 4630.3898,2.0720722 4641.3123,-2.8318924 Q 4652.3462,-7.7358571 4665.4978,-7.7358571 Q 4686.3396,-7.7358571 4698.1537,2.7407947 Q 4709.9678,13.105993 4710.4136,31.384406 V 86.88837 Q 4710.4136,103.49498 4714.6489,113.30291 V 115.08617 Z M 4658.8106,99.371189 Q 4668.507,99.371189 4677.2004,94.35577 Q 4685.8938,89.340352 4689.7947,81.315683 V 56.572952 H 4673.6339 Q 4635.7396,56.572952 4635.7396,78.752247 Q 4635.7396,88.448722 4642.2039,93.909955 Q 4648.6683,99.371189 4658.8106,99.371189 Z" />
        <path id="path15564" style="fill:white;fill-opacity:1;stroke-width:5.29166651" d="M 4839.1427,62.702908 H 4824.6537 V 115.08617 H 4804.0348 V 62.702908 H 4789.5458 L 4755.7753,115.08617 H 4729.6951 L 4772.8277,52.672071 L 4733.8189,-5.5067822 H 4758.7846 L 4789.8802,44.424494 H 4804.0348 V -5.5067822 H 4824.6537 V 44.424494 H 4838.6969 L 4870.0154,-5.5067822 H 4894.981 L 4855.8608,52.783525 L 4898.9934,115.08617 H 4872.9132 Z" />
      </g>
    </g>
    <g aria-label="2" transform="scale(1.0027637,0.99724392)" style="font-style:normal;font-variant:normal;font-weight:normal;font-stretch:normal;font-size:430.66778564px;line-height:15.38099194px;font-family:Roboto;-inkscape-font-specification:Roboto;font-variant-ligatures:normal;font-variant-caps:normal;font-variant-numeric:normal;font-feature-settings:normal;text-align:start;writing-mode:lr-tb;text-anchor:start;opacity:1;fill:white;fill-opacity:1;fill-rule:nonzero;stroke:none;stroke-width:5.29166698;stroke-linecap:square;stroke-linejoin:miter;stroke-miterlimit:4;stroke-dasharray:5.29166679, 10.58333357000000063;stroke-dashoffset:0;stroke-opacity:1;paint-order:stroke fill markers" id="text14825">
      <path d="M 4721.5771,-109.25921 H 4520.9633 V -137.22738 L 4626.9479,-254.9881 Q 4650.5001,-281.69455 4659.3321,-298.30723 Q 4668.3745,-315.13019 4668.3745,-333.00458 Q 4668.3745,-356.9773 4653.8647,-372.32825 Q 4639.3549,-387.6792 4615.1719,-387.6792 Q 4586.1523,-387.6792 4569.9602,-371.06653 Q 4553.9783,-354.66414 4553.9783,-325.22396 H 4515.0752 Q 4515.0752,-367.49165 4542.2023,-393.56724 Q 4569.5396,-419.64283 4615.1719,-419.64283 Q 4657.8601,-419.64283 4682.674,-397.14212 Q 4707.4879,-374.8517 4707.4879,-337.6309 Q 4707.4879,-292.41919 4649.8692,-229.96395 L 4567.8573,-141.01255 H 4721.5771 Z" style="stroke-width:5.29166698" id="path15567" />
    </g>
    <flowRoot xml:space="preserve" id="flowRoot14827" style="fill-opacity:1;font-size:700.00003052px;-inkscape-font-specification:Roboto;font-family:Roboto;font-weight:normal;font-style:normal;font-stretch:normal;font-variant:normal;opacity:1;stroke-width:20;stroke-miterlimit:4;stroke-dasharray:20, 40;stroke:none;stroke-opacity:1;stroke-dashoffset:0;stroke-linecap:square;stroke-linejoin:miter;paint-order:stroke fill markers;text-anchor:start;text-align:start;writing-mode:lr;font-variant-ligatures:normal;font-variant-caps:normal;font-variant-numeric:normal;font-feature-settings:normal;line-height:25px;fill-rule:nonzero;fill:white"><flowRegion id="flowRegion14829"><rect id="rect14831" width="3164.3027" height="5762.9204" x="16201.584" y="-716.10229" /></flowRegion><flowPara id="flowPara14833" /></flowRoot>  </g>
</svg>
