<?xml version="1.0" encoding="UTF-8" standalone="no"?>
<!-- Created with Inkscape (http://www.inkscape.org/) -->

<svg xmlns:dc="http://purl.org/dc/elements/1.1/" xmlns:cc="http://creativecommons.org/ns#" xmlns:rdf="http://www.w3.org/1999/02/22-rdf-syntax-ns#" xmlns:svg="http://www.w3.org/2000/svg" xmlns="http://www.w3.org/2000/svg" xmlns:sodipodi="http://sodipodi.sourceforge.net/DTD/sodipodi-0.dtd" xmlns:inkscape="http://www.inkscape.org/namespaces/inkscape" width="2000mm" height="850mm" viewBox="0 0 2000 850" version="1.1" id="svg8" inkscape:version="0.92.2 2405546, 2018-03-11" sodipodi:docname="banner6.svg">
  <defs id="defs2" />
  <sodipodi:namedview id="base" pagecolor="#898989" bordercolor="#666666" borderopacity="1.0" inkscape:pageopacity="0.67058824" inkscape:pageshadow="2" inkscape:zoom="0.08" inkscape:cx="3710.5083" inkscape:cy="528.32313" inkscape:document-units="mm" inkscape:current-layer="layer1" showgrid="false" inkscape:snap-bbox="true" inkscape:bbox-paths="true" inkscape:bbox-nodes="true" inkscape:snap-bbox-edge-midpoints="true" inkscape:snap-bbox-midpoints="true" inkscape:snap-page="true" inkscape:showpageshadow="false" inkscape:pagecheckerboard="true" showguides="false">
    <sodipodi:guide position="1215.4297,176.94011" orientation="0,19200" id="guide14773" inkscape:locked="false" />
    <sodipodi:guide position="5080,0" orientation="-3420.4724,0" id="guide14775" inkscape:locked="false" />
    <sodipodi:guide position="869.89452,728.38494" orientation="0,-19200" id="guide14777" inkscape:locked="false" />
    <sodipodi:guide position="947.53133,565.63054" orientation="3420.4724,0" id="guide14779" inkscape:locked="false" />
  </sodipodi:namedview>
  <metadata id="metadata5">
    <rdf:RDF>
      <cc:Work rdf:about="">
        <dc:format>image/svg+xml</dc:format>
        <dc:type rdf:resource="http://purl.org/dc/dcmitype/StillImage" />
        <dc:title></dc:title>
      </cc:Work>
    </rdf:RDF>
  </metadata>
  <g inkscape:label="Layer 1" inkscape:groupmode="layer" id="layer1" transform="translate(0,553)">
    <rect y="-553" x="-1.299818e-13" height="850" width="2000" id="rect14771" style="opacity:1;vector-effect:none;fill:white;fill-opacity:1;fill-rule:evenodd;stroke:none;stroke-width:1.41869628;stroke-linecap:butt;stroke-linejoin:miter;stroke-miterlimit:4;stroke-dasharray:none;stroke-dashoffset:0;stroke-opacity:1;paint-order:fill markers stroke" />
    <g id="g14788" transform="matrix(0.70357608,0,0,0.64810758,-547.42834,-153.9745)" style="stroke-width:1.4808836">
      <g id="g14769" transform="matrix(14.908441,0,0,14.908441,115.5443,-654.84024)" style="stroke-width:0.03001354">
        <path d="M 115.9,29.13 C 116.7,29.12 117.4,28.98 118.1,28.7 C 118.7,28.42 119.2,28.04 119.7,27.56 C 120.2,27.08 120.5,26.52 120.8,25.89 C 121,25.26 121.1,24.58 121.1,23.85 C 121.1,23.14 121,22.46 120.8,21.83 C 120.5,21.19 120.2,20.64 119.7,20.17 C 119.2,19.69 118.7,19.31 118.1,19.03 C 117.4,18.75 116.7,18.6 115.9,18.59 Z M 113.7,18.59 C 112.9,18.6 112.2,18.74 111.5,19.02 C 110.9,19.3 110.4,19.68 109.9,20.16 C 109.4,20.63 109.1,21.19 108.8,21.83 C 108.6,22.46 108.5,23.14 108.5,23.85 C 108.5,24.58 108.6,25.26 108.8,25.89 C 109.1,26.52 109.4,27.08 109.9,27.56 C 110.4,28.04 110.9,28.42 111.5,28.7 C 112.2,28.98 112.9,29.12 113.7,29.13 Z M 115.9,16.72 C 117,16.75 118.1,16.95 119,17.34 C 119.9,17.72 120.7,18.23 121.4,18.88 C 122.1,19.53 122.6,20.28 123,21.13 C 123.3,21.98 123.5,22.89 123.5,23.85 C 123.5,24.82 123.3,25.74 123,26.6 C 122.6,27.45 122.1,28.21 121.4,28.86 C 120.7,29.5 119.9,30.01 119,30.4 C 118.1,30.79 117,30.99 115.9,31.02 V 33.16 H 113.7 V 31.02 C 112.6,30.99 111.5,30.79 110.6,30.4 C 109.7,30.01 108.9,29.5 108.2,28.86 C 107.5,28.21 107,27.45 106.6,26.6 C 106.3,25.74 106.1,24.82 106.1,23.85 C 106.1,22.89 106.3,21.98 106.6,21.13 C 107,20.28 107.5,19.53 108.2,18.88 C 108.9,18.23 109.7,17.72 110.6,17.34 C 111.5,16.95 112.6,16.75 113.7,16.72 V 15.44 H 115.9 Z M 104,24.31 C 104,25.64 103.8,26.86 103.3,27.97 C 102.9,29.07 102.3,30.02 101.5,30.82 C 100.8,31.62 99.86,32.24 98.78,32.69 C 97.71,33.12 96.52,33.34 95.22,33.34 C 93.92,33.34 92.73,33.12 91.66,32.69 C 90.59,32.24 89.67,31.62 88.9,30.82 C 88.13,30.02 87.54,29.07 87.12,27.97 C 86.7,26.86 86.49,25.64 86.49,24.31 C 86.49,22.98 86.7,21.77 87.12,20.66 C 87.54,19.55 88.13,18.6 88.9,17.8 C 89.67,16.99 90.59,16.37 91.66,15.92 C 92.73,15.47 93.92,15.25 95.22,15.25 C 96.52,15.25 97.71,15.47 98.78,15.92 C 99.86,16.37 100.8,16.99 101.5,17.8 C 102.3,18.6 102.9,19.55 103.3,20.66 C 103.8,21.77 104,22.98 104,24.31 Z M 101.5,24.31 C 101.5,23.22 101.4,22.25 101.1,21.38 C 100.8,20.51 100.3,19.78 99.79,19.19 C 99.24,18.59 98.58,18.13 97.81,17.81 C 97.04,17.49 96.17,17.33 95.22,17.33 C 94.27,17.33 93.41,17.49 92.63,17.81 C 91.86,18.13 91.2,18.59 90.65,19.19 C 90.1,19.78 89.68,20.51 89.38,21.38 C 89.09,22.25 88.94,23.22 88.94,24.31 C 88.94,25.4 89.09,26.37 89.38,27.24 C 89.68,28.09 90.1,28.82 90.65,29.43 C 91.2,30.02 91.86,30.48 92.63,30.8 C 93.41,31.11 94.27,31.27 95.22,31.27 C 96.17,31.27 97.04,31.11 97.81,30.8 C 98.58,30.48 99.24,30.02 99.79,29.43 C 100.3,28.82 100.8,28.09 101.1,27.24 C 101.4,26.37 101.5,25.4 101.5,24.31 Z M 78,24.63 C 78.69,24.63 79.29,24.54 79.8,24.36 C 80.33,24.18 80.77,23.93 81.13,23.61 C 81.49,23.28 81.76,22.88 81.94,22.43 C 82.12,21.98 82.21,21.48 82.21,20.94 C 82.21,19.81 81.86,18.92 81.16,18.29 C 80.47,17.66 79.42,17.34 78,17.34 H 75.16 V 24.63 Z M 78,15.45 C 79.12,15.45 80.09,15.58 80.92,15.84 C 81.75,16.1 82.43,16.47 82.98,16.94 C 83.53,17.42 83.93,18 84.19,18.67 C 84.46,19.35 84.6,20.11 84.6,20.94 C 84.6,21.76 84.46,22.51 84.17,23.2 C 83.88,23.88 83.45,24.47 82.89,24.97 C 82.34,25.46 81.66,25.85 80.83,26.13 C 80.02,26.4 79.07,26.53 78,26.53 H 75.16 V 33.16 H 72.77 V 15.45 Z M 68.23,33.16 H 65.82 V 17.34 H 56.97 V 33.16 H 54.57 V 15.45 H 68.23 Z" id="path875" inkscape:connector-curvature="0" style="fill:#f13535;fill-opacity:1;stroke-width:0.03001354" />
        <path d="M 211.8,17.11 Q 212.8,16.23 214.1,15.76 Q 215.4,15.29 217.1,15.29 Q 218.5,15.29 219.6,15.62 Q 220.7,15.95 221.4,16.56 Q 222.2,17.16 222.6,17.99 Q 223,18.82 223,19.81 Q 223,21.14 222.4,22.16 Q 221.7,23.17 220.5,23.73 Q 221.2,24.01 221.7,24.43 Q 222.3,24.84 222.7,25.36 Q 223.1,25.88 223.3,26.5 Q 223.5,27.11 223.5,27.79 Q 223.5,28.95 223.1,29.97 Q 222.7,30.98 221.8,31.74 Q 221,32.48 219.8,32.91 Q 218.6,33.34 217.1,33.34 Q 215.2,33.34 213.7,32.72 Q 212.1,32.09 211.1,31.03 L 211.7,29.89 Q 211.8,29.76 212,29.67 Q 212.1,29.57 212.3,29.57 Q 212.6,29.57 212.9,29.86 Q 213.3,30.13 213.8,30.46 Q 214.4,30.8 215.2,31.08 Q 216,31.35 217.1,31.35 Q 218.1,31.35 218.9,31.12 Q 219.7,30.88 220.2,30.44 Q 220.7,29.99 221,29.35 Q 221.3,28.71 221.3,27.9 Q 221.3,27.21 221,26.63 Q 220.7,26.05 220.2,25.64 Q 219.7,25.22 219,25 Q 218.3,24.77 217.4,24.77 H 214.9 V 22.8 H 217.3 Q 218,22.8 218.7,22.61 Q 219.3,22.43 219.8,22.07 Q 220.2,21.71 220.5,21.19 Q 220.8,20.67 220.8,20.01 Q 220.8,19.4 220.5,18.89 Q 220.3,18.39 219.8,18.03 Q 219.3,17.66 218.7,17.46 Q 218,17.26 217.1,17.26 Q 216.1,17.26 215.4,17.47 Q 214.7,17.68 214.2,17.94 Q 213.7,18.19 213.4,18.4 Q 213.1,18.61 212.9,18.61 Q 212.7,18.61 212.6,18.52 Q 212.5,18.44 212.4,18.24 Z M 208.3,15.46 V 33.17 H 205.9 V 20.59 Q 205.9,20.06 205.9,19.49 Q 205.9,18.91 206,18.26 Q 205.8,18.82 205.6,19.3 Q 205.3,19.78 205.1,20.14 L 196.8,32.42 Q 196.6,32.7 196.3,32.93 Q 196.1,33.17 195.7,33.17 H 193.9 V 15.46 H 196.3 V 28.05 Q 196.3,28.58 196.3,29.16 Q 196.3,29.73 196.2,30.39 Q 196.4,29.82 196.6,29.34 Q 196.9,28.86 197.1,28.49 L 205.4,16.21 Q 205.6,15.93 205.9,15.69 Q 206.1,15.46 206.5,15.46 Z M 189.4,15.46 V 33.17 H 187 V 25.11 H 177.4 V 33.17 H 175 V 15.46 H 177.4 V 23.36 H 187 V 15.46 Z M 165.5,24.64 Q 166.5,24.64 167.3,24.37 Q 168,24.1 168.6,23.62 Q 169.1,23.12 169.4,22.44 Q 169.7,21.76 169.7,20.95 Q 169.7,19.25 168.6,18.3 Q 167.6,17.35 165.5,17.35 H 162.6 V 24.64 Z M 165.5,15.46 Q 167.1,15.46 168.4,15.85 Q 169.6,16.24 170.4,16.95 Q 171.2,17.67 171.6,18.68 Q 172.1,19.7 172.1,20.95 Q 172.1,22.18 171.6,23.21 Q 171.2,24.23 170.3,24.98 Q 169.5,25.72 168.3,26.14 Q 167.1,26.54 165.5,26.54 H 162.6 V 33.17 H 160.2 V 15.46 Z M 152.9,26.59 L 150.1,19.39 Q 150,19.07 149.9,18.65 Q 149.7,18.21 149.6,17.73 Q 149.3,18.73 149.1,19.4 L 146.3,26.59 Z M 157.9,33.17 H 156 Q 155.7,33.17 155.5,33.01 Q 155.3,32.85 155.2,32.6 L 153.6,28.32 H 145.6 L 144,32.6 Q 143.9,32.82 143.7,33 Q 143.5,33.17 143.1,33.17 H 141.3 L 148.4,15.46 H 150.8 Z M 141.1,33.17 H 138.9 Q 138.6,33.17 138.3,32.98 Q 138.1,32.79 137.9,32.42 L 133.2,25.93 Q 132.9,25.44 132.5,25.26 Q 132.1,25.06 131.5,25.06 H 129.3 V 33.17 H 127 V 15.46 H 129.3 V 23.22 H 131.2 Q 131.7,23.22 132.1,23.05 Q 132.5,22.87 132.9,22.37 L 137.5,16.14 Q 137.7,15.84 138,15.66 Q 138.3,15.46 138.6,15.46 H 140.6 L 135.3,22.74 Q 134.7,23.59 133.7,23.91 Q 134.4,24.09 134.8,24.47 Q 135.3,24.84 135.7,25.51 Z" id="path877" inkscape:connector-curvature="0" style="fill:#424242;fill-opacity:1;stroke-width:0.03001354" />
      </g>
    </g>
    <flowRoot xml:space="preserve" id="flowRoot14827" style="font-style:normal;font-variant:normal;font-weight:normal;font-stretch:normal;font-size:700.00006104px;line-height:25px;font-family:Roboto;-inkscape-font-specification:Roboto;font-variant-ligatures:normal;font-variant-caps:normal;font-variant-numeric:normal;font-feature-settings:normal;text-align:start;writing-mode:lr-tb;text-anchor:start;opacity:1;fill:white;fill-opacity:1;fill-rule:nonzero;stroke:none;stroke-width:20;stroke-linecap:square;stroke-linejoin:miter;stroke-miterlimit:4;stroke-dasharray:20, 40;stroke-dashoffset:0;stroke-opacity:1;paint-order:stroke fill markers"><flowRegion id="flowRegion14829"><rect id="rect14831" width="3164.3027" height="5762.9204" x="16201.584" y="-716.10229" /></flowRegion><flowPara id="flowPara14833" /></flowRoot>    <g style="fill:black;stroke-width:0.01726531" id="g973" transform="matrix(22.986852,0,0,22.986852,1041.8373,-233.88362)">
      <path id="path959" d="M 0,0 H 24 V 24 H 0 Z" inkscape:connector-curvature="0" style="fill:none;stroke-width:0.01726531" />
      <path id="path961" d="M 12,4 L 10.59,5.41 L 16.17,11 H 4 V 13 H 16.17 L 10.59,18.59 L 12,20 L 20,12 Z" inkscape:connector-curvature="0" style="fill:#424242;fill-opacity:1;stroke-width:0.01726531" />
    </g>
    <g id="g1581">
      <path d="M 641.22452,111.21515 H 618.75474 V -37.737769 L 573.69437,-21.187444 V -41.482732 L 637.72117,-65.522984 H 641.22452 Z" style="font-style:normal;font-variant:normal;font-weight:normal;font-stretch:normal;font-size:medium;line-height:8.83604336px;font-family:Roboto;-inkscape-font-specification:Roboto;font-variant-ligatures:normal;font-variant-caps:normal;font-variant-numeric:normal;font-feature-settings:normal;text-align:start;writing-mode:lr-tb;text-anchor:start;fill:#424242;fill-opacity:1;fill-rule:nonzero;stroke:none;stroke-width:5.29166651;stroke-linecap:square;stroke-linejoin:miter;stroke-miterlimit:4;stroke-dasharray:5.29166645, 10.58333292000000014;stroke-dashoffset:0;stroke-opacity:1;paint-order:stroke fill markers" id="path1568" inkscape:connector-curvature="0" />
      <path d="M 717.21105,23.02729 L 726.15064,-64.677347 H 816.27139 V -44.019643 H 745.11707 L 739.80164,3.9400551 Q 752.72781,-3.6706779 769.15733,-3.6706779 Q 793.19758,-3.6706779 807.3318,12.27562 Q 821.46602,28.101112 821.46602,55.161496 Q 821.46602,82.342686 806.72777,98.047373 Q 792.11033,113.63125 765.77478,113.63125 Q 742.45936,113.63125 727.72111,100.70509 Q 712.98287,87.778923 710.92918,64.946724 H 732.0701 Q 734.12379,80.047385 742.82177,87.778923 Q 751.51975,95.389656 765.77478,95.389656 Q 781.35866,95.389656 790.17745,84.758791 Q 799.11704,74.127926 799.11704,55.403107 Q 799.11704,37.765535 789.45261,27.13467 Q 779.909,16.383 763.9627,16.383 Q 749.34526,16.383 741.0097,22.78568 L 735.09024,27.617891 Z" style="font-style:normal;font-variant:normal;font-weight:normal;font-stretch:normal;font-size:medium;line-height:8.83604336px;font-family:Roboto;-inkscape-font-specification:Roboto;font-variant-ligatures:normal;font-variant-caps:normal;font-variant-numeric:normal;font-feature-settings:normal;text-align:start;writing-mode:lr-tb;text-anchor:start;fill:#424242;fill-opacity:1;fill-rule:nonzero;stroke:none;stroke-width:5.29166651;stroke-linecap:square;stroke-linejoin:miter;stroke-miterlimit:4;stroke-dasharray:5.29166645, 10.58333292000000014;stroke-dashoffset:0;stroke-opacity:1;paint-order:stroke fill markers" id="path1570" inkscape:connector-curvature="0" />
      <path d="M 985.03637,81.617854 L 1029.4927,-19.49617 H 1057.3987 V 111.21515 H 1035.0498 V 16.141389 L 992.76791,111.21515 H 977.30483 L 934.17735,14.087699 V 111.21515 H 911.82837 V -19.49617 H 940.82164 Z" style="font-style:normal;font-variant:normal;font-weight:normal;font-stretch:normal;font-size:medium;line-height:8.83604336px;font-family:Roboto;-inkscape-font-specification:Roboto;font-variant-ligatures:normal;font-variant-caps:normal;font-variant-numeric:normal;font-feature-settings:normal;text-align:start;writing-mode:lr-tb;text-anchor:start;fill:#424242;fill-opacity:1;fill-rule:nonzero;stroke:none;stroke-width:5.29166651;stroke-linecap:square;stroke-linejoin:miter;stroke-miterlimit:4;stroke-dasharray:5.29166645, 10.58333292000000014;stroke-dashoffset:0;stroke-opacity:1;paint-order:stroke fill markers" id="path1572" inkscape:connector-curvature="0" />
    </g>
  </g>
</svg>
